<?xml version="1.0" standalone="no"?>
<!DOCTYPE svg PUBLIC "-//W3C//DTD SVG 1.1//EN" "http://www.w3.org/Graphics/SVG/1.1/DTD/svg11.dtd" >
<svg xmlns="http://www.w3.org/2000/svg" xmlns:xlink="http://www.w3.org/1999/xlink" version="1.1">
<metadata>
Created by FontForge 20190801 at Tue Jul 23 23:31:38 2013
 By root
Copyright (c) 2009 by A K. All rights reserved.
</metadata>
<defs>
<font id="KiddyKitty-Medium" horiz-adv-x="626" >
  <font-face 
    font-family="Kiddy Kitty"
    font-weight="500"
    font-stretch="normal"
    units-per-em="1000"
    panose-1="4 7 7 5 4 11 2 2 15 2"
    ascent="750"
    descent="-250"
    x-height="503"
    cap-height="711"
    bbox="-311 -416 1196.34 939"
    underline-thickness="50"
    underline-position="-100"
    unicode-range="U+0020-FB06"
  />
<missing-glyph horiz-adv-x="793" 
d="M89 614c34 -14 56 -33 70 -58c20 4 61 5 88 1c16 29 46 50 69 57c29 -49 25 -149 16 -192c57 -18 190 -8 259 -3c35 68 55 194 13 270c11 15 43 32 71 32c33 0 70 -24 70 -91c0 -60 -21 -134 -65 -241c24 -76 43 -147 43 -236c0 -83 -22 -167 -76 -167
c-22 0 -37 17 -38 33c15 21 14 81 -4 93c-13 5 -31 22 -43 43c-3 -22 27 -52 37 -58c-13 -45 -31 -92 -67 -92c-24 0 -41 12 -43 35c21 24 23 88 0 108c-45 -16 -120 -18 -164 -7c-3 -54 -1 -153 -71 -153c-27 0 -41 17 -38 39c25 27 19 126 -20 132c-14 3 -32 11 -42 17
c-1 -5 9 -21 42 -29c-10 -82 -32 -133 -78 -133c-21 0 -40 12 -38 37c15 17 24 49 24 113c0 115 -39 206 -39 307c0 32 7 94 24 143zM198 409l11 -15c-2 -8 -8 -14 -15 -14s-20 4 -27 7v-4c5 -4 18 -10 28 -10c11 0 16 7 18 15c3 -8 10 -14 22 -14c10 0 20 6 27 13l-1 4
c-6 -4 -17 -8 -27 -8c-7 0 -16 5 -18 13l12 20c-9 3 -26 -2 -30 -7zM168 484c-10 9 -26 8 -36 6c-2 -14 2 -25 9 -34c7 14 17 22 27 28zM278 463c5 11 5 25 0 35c-13 -2 -24 -7 -31 -15c13 -4 24 -10 31 -20zM241 473c-4 -10 -4 -22 3 -32c13 1 24 7 30 14
c-12 0 -23 5 -33 18zM149 448c9 -7 21 -10 30 -5c1 14 -1 24 -4 31c-6 -12 -14 -20 -26 -26z" />
    <glyph glyph-name="c_t" unicode="ct" horiz-adv-x="966" 
d="M513 394c-3 -58 -73 -91 -133 -80c-10 49 -32 84 -80 84c-60 0 -102 -53 -102 -147c0 -122 112 -182 277 -104c19 -27 27 -67 12 -102c-50 -39 -129 -54 -189 -54c-187 0 -265 123 -265 254c0 185 131 262 259 265c33 0 63 -2 88 -7c-18 37 -29 76 -29 122
c0 104 88 177 211 177c157 0 254 -74 232 -278l-5 -1l2 -22h134c12 -29 14 -92 -2 -127l-129 12l-13 -187c-4 -66 14 -83 45 -83c22 0 49 7 65 28c22 -16 38 -62 26 -97c-25 -34 -72 -56 -139 -56c-81 0 -156 36 -148 160l15 233l-90 -21c-10 31 -9 96 7 129l82 1
c19 135 -9 209 -100 209c-55 0 -99 -39 -99 -118c0 -22 1 -45 6 -71c0 -1 1 -1 1 -1c18 -47 46 -87 61 -118z" />
    <glyph glyph-name="e_s" unicode="es" horiz-adv-x="968" 
d="M787 526c53 0 89 -28 89 -67c0 -36 -25 -63 -53 -89c67 -77 123 -130 123 -219c0 -112 -92 -160 -185 -160c-66 0 -125 16 -156 46c-10 45 16 109 53 115c18 -28 46 -41 76 -41c26 0 53 17 53 60c0 48 -26 90 -51 132c-117 -135 -225 -313 -431 -313
c-167 0 -272 89 -272 257c0 161 115 265 285 265c169 0 223 -77 223 -151c0 -150 -191 -179 -346 -139c-1 -71 47 -115 128 -115c160 0 268 154 371 284c-3 13 -5 27 -5 41c0 57 43 94 98 94zM192 288c55 -8 191 -10 191 65c0 38 -23 62 -66 62c-89 0 -120 -66 -125 -127z
" />
    <glyph glyph-name="f_f" unicode="ff" horiz-adv-x="823" 
d="M406 -4c5 138 8 224 15 390l-157 4c-9 -161 -14 -303 -19 -423c-5 -124 -37 -215 -164 -215c-38 0 -103 11 -136 28c-10 31 15 117 38 125c26 -13 46 -19 65 -19c37 0 47 33 50 108c5 149 8 249 15 390l-69 -7c-12 12 -15 109 1 127l74 -5c9 166 100 225 218 225
c57 0 117 -11 171 -32c32 23 74 32 122 32c58 0 114 -17 150 -36c2 -32 -25 -98 -53 -108c-26 21 -47 27 -76 27c-45 0 -70 -29 -74 -112l136 9c13 -25 5 -102 -11 -124l-131 10c-9 -161 -13 -303 -18 -421c-6 -149 -59 -217 -161 -217c-44 0 -90 10 -124 27
c-10 28 12 111 37 125c22 -11 38 -18 55 -18c36 0 43 36 46 110zM355 612c-56 0 -82 -35 -86 -117l158 3v1c1 34 6 63 13 88c-25 15 -53 25 -85 25z" />
    <glyph glyph-name="f_f_l" unicode="ffl" horiz-adv-x="1018" 
d="M408 -4c5 138 8 223 16 390l-160 4c-9 -161 -13 -303 -18 -423c-5 -124 -37 -215 -164 -215c-38 0 -103 11 -136 28c-11 31 15 117 38 125c26 -13 45 -19 64 -19c38 0 48 33 51 108c5 149 8 249 15 390l-69 -7c-12 12 -15 109 1 127l74 -5c9 166 100 225 215 225
c66 0 130 -14 181 -35c37 25 83 35 134 35c85 0 190 -24 242 -46l-21 -492c-3 -60 30 -94 108 -55c19 -13 30 -67 17 -94c-19 -32 -74 -53 -136 -53c-76 0 -151 33 -146 168l20 444c-25 10 -52 16 -76 16c-47 0 -75 -34 -79 -117l87 5c14 -25 11 -98 -6 -119l-87 9
c-9 -161 -13 -303 -18 -421c-6 -149 -59 -217 -161 -217c-45 0 -92 10 -125 27c-10 28 11 111 36 125c22 -11 38 -18 54 -18c39 0 46 36 49 110zM351 612c-51 0 -77 -35 -81 -117l159 3v1c1 32 6 61 13 85c-23 16 -51 28 -91 28z" />
    <glyph glyph-name="s_t" unicode="st" horiz-adv-x="963" 
d="M492 477c9 -37 -15 -106 -44 -118c-29 23 -111 46 -148 46c-41 0 -74 -10 -74 -35c0 -71 270 -67 270 -232c0 -75 -61 -152 -229 -152c-69 0 -185 22 -230 52c-10 29 10 107 45 127c44 -38 131 -71 183 -71c45 0 73 10 73 38c0 64 -276 67 -276 239c0 96 94 141 212 141
c41 0 80 -4 114 -11c-33 36 -47 80 -47 128c0 107 91 173 210 173c184 0 254 -98 235 -272l-3 -29h134c12 -29 13 -92 -2 -127l-129 12l-13 -187c-4 -66 14 -83 45 -83c22 0 48 7 65 28c22 -16 38 -62 26 -97c-25 -34 -72 -56 -140 -56c-80 0 -155 36 -147 160l15 230
l-90 -19c-10 31 -8 97 8 130l81 1l2 50c5 111 -32 159 -102 159c-64 0 -99 -43 -99 -97c0 -53 26 -96 55 -128z" />
    <glyph glyph-name=".notdef" horiz-adv-x="793" 
d="M89 614c34 -14 56 -33 70 -58c20 4 61 5 88 1c16 29 46 50 69 57c29 -49 25 -149 16 -192c57 -18 190 -8 259 -3c35 68 55 194 13 270c11 15 43 32 71 32c33 0 70 -24 70 -91c0 -60 -21 -134 -65 -241c24 -76 43 -147 43 -236c0 -83 -22 -167 -76 -167
c-22 0 -37 17 -38 33c15 21 14 81 -4 93c-13 5 -31 22 -43 43c-3 -22 27 -52 37 -58c-13 -45 -31 -92 -67 -92c-24 0 -41 12 -43 35c21 24 23 88 0 108c-45 -16 -120 -18 -164 -7c-3 -54 -1 -153 -71 -153c-27 0 -41 17 -38 39c25 27 19 126 -20 132c-14 3 -32 11 -42 17
c-1 -5 9 -21 42 -29c-10 -82 -32 -133 -78 -133c-21 0 -40 12 -38 37c15 17 24 49 24 113c0 115 -39 206 -39 307c0 32 7 94 24 143zM198 409l11 -15c-2 -8 -8 -14 -15 -14s-20 4 -27 7v-4c5 -4 18 -10 28 -10c11 0 16 7 18 15c3 -8 10 -14 22 -14c10 0 20 6 27 13l-1 4
c-6 -4 -17 -8 -27 -8c-7 0 -16 5 -18 13l12 20c-9 3 -26 -2 -30 -7zM168 484c-10 9 -26 8 -36 6c-2 -14 2 -25 9 -34c7 14 17 22 27 28zM278 463c5 11 5 25 0 35c-13 -2 -24 -7 -31 -15c13 -4 24 -10 31 -20zM241 473c-4 -10 -4 -22 3 -32c13 1 24 7 30 14
c-12 0 -23 5 -33 18zM149 448c9 -7 21 -10 30 -5c1 14 -1 24 -4 31c-6 -12 -14 -20 -26 -26z" />
    <glyph glyph-name="A" unicode="A" horiz-adv-x="669" 
d="M432 695l228 -649c-30 -35 -119 -56 -177 -54l-48 194l-222 -9l-59 -187c-52 -8 -140 8 -164 40l267 667c45 20 134 14 175 -2zM241 295l172 6l-73 273z" />
    <glyph glyph-name="A.alt01" horiz-adv-x="843" 
d="M-57 117c137 -166 253 44 392 457c-72 -26 -136 -77 -194 -128c-47 18 -85 101 -69 138c84 72 252 133 378 132c154 -2 228 -51 228 -324c0 -59 -2 -123 -2 -180c0 -85 35 -103 87 -77c22 -15 24 -78 8 -119c-33 -24 -69 -36 -118 -36c-98 0 -133 73 -136 193l-195 -11
c-101 -216 -200 -255 -282 -254c-111 2 -162 61 -177 84c-5 47 45 113 80 125zM368 281l150 8c8 233 -3 289 -58 300c-24 -111 -54 -214 -92 -308z" />
    <glyph glyph-name="AE" unicode="&#xc6;" horiz-adv-x="925" 
d="M441 701l428 5c18 -34 15 -92 -7 -125l-266 2l-13 -150l246 15c19 -38 23 -97 1 -134l-248 -3l5 -187l288 29c28 -41 22 -108 3 -148l-475 -10l10 191l-173 -9l-86 -188c-58 -7 -136 7 -164 40l348 663c19 7 83 9 103 9zM283 295l136 6l16 293h-6l-51 -107z" />
    <glyph glyph-name="Aacute" unicode="&#xc1;" horiz-adv-x="669" 
d="M432 695l228 -649c-30 -35 -119 -56 -177 -54l-48 194l-222 -9l-59 -187c-52 -8 -140 8 -164 40l267 667c45 20 134 14 175 -2zM435 939c42 -7 78 -89 63 -140l-195 -53c-22 4 -42 56 -40 82zM241 295l172 6l-73 273z" />
    <glyph glyph-name="Abreve" unicode="&#x102;" horiz-adv-x="669" 
d="M245 899c6 -26 32 -45 93 -45c60 0 84 20 92 45c15 13 95 3 102 -13c-7 -105 -91 -143 -197 -143c-101 0 -185 36 -195 143c11 22 90 27 105 13zM432 695l228 -649c-30 -35 -119 -56 -177 -54l-48 194l-222 -9l-59 -187c-52 -8 -140 8 -164 40l267 667
c45 20 134 14 175 -2zM241 295l172 6l-73 273z" />
    <glyph glyph-name="Acircumflex" unicode="&#xc2;" horiz-adv-x="669" 
d="M432 695l228 -649c-30 -35 -119 -56 -177 -54l-48 194l-222 -9l-59 -187c-52 -8 -140 8 -164 40l267 667c45 20 134 14 175 -2zM332 786l-125 -43c-22 3 -42 37 -41 55l128 109c13 12 67 12 84 0l132 -109c1 -18 -29 -53 -50 -54zM241 295l172 6l-73 273z" />
    <glyph glyph-name="Acute" horiz-adv-x="262" 
d="M273 738c42 -7 78 -89 63 -140l-195 -53c-22 4 -42 56 -40 82z" />
    <glyph glyph-name="Adieresis" unicode="&#xc4;" horiz-adv-x="669" 
d="M460 740c-36 13 -73 49 -88 84c15 32 54 70 90 82c36 -13 74 -49 89 -85c-12 -34 -53 -70 -91 -81zM224 742c-37 14 -73 49 -88 84c14 33 53 70 90 82c36 -14 75 -50 89 -85c-15 -36 -56 -70 -91 -81zM432 695l228 -649c-30 -35 -119 -56 -177 -54l-48 194l-222 -9
l-59 -187c-52 -8 -140 8 -164 40l267 667c45 20 134 14 175 -2zM241 295l172 6l-73 273z" />
    <glyph glyph-name="Agrave" unicode="&#xc0;" horiz-adv-x="669" 
d="M432 695l228 -649c-30 -35 -119 -56 -177 -54l-48 194l-222 -9l-59 -187c-52 -8 -140 8 -164 40l267 667c45 20 134 14 175 -2zM216 937l170 -110c5 -28 -16 -79 -35 -83l-196 53c-17 53 20 132 61 140zM241 295l172 6l-73 273z" />
    <glyph glyph-name="Amacron" unicode="&#x100;" horiz-adv-x="669" 
d="M432 695l228 -649c-30 -35 -119 -56 -177 -54l-48 194l-222 -9l-59 -187c-52 -8 -140 8 -164 40l267 667c45 20 134 14 175 -2zM184 854l302 8c19 -13 14 -103 0 -116h-294c-21 9 -25 97 -8 108zM241 295l172 6l-73 273z" />
    <glyph glyph-name="Aogonek" unicode="&#x104;" horiz-adv-x="669" 
d="M432 695l228 -649c-14 -16 -39 -29 -68 -38l1 -1c-49 -27 -93 -67 -93 -97c0 -16 10 -29 30 -29c23 0 37 9 57 27c23 0 50 -39 45 -58c-20 -35 -65 -72 -132 -72c-60 0 -129 23 -129 91c0 63 40 107 105 149l-41 168l-222 -9l-59 -187c-52 -8 -140 8 -164 40l267 667
c45 20 134 14 175 -2zM241 295l172 6l-73 273z" />
    <glyph glyph-name="Aring" unicode="&#xc5;" horiz-adv-x="669" 
d="M195 786c0 62 67 106 152 106c87 0 152 -44 152 -106c0 -41 -26 -74 -67 -93l228 -647c-30 -35 -119 -56 -177 -54l-48 194l-222 -9l-59 -187c-52 -8 -140 8 -164 40l266 666c-38 19 -61 51 -61 90zM241 295l172 6l-73 273zM314 786c0 -21 16 -35 33 -35
c19 0 33 15 33 35c0 19 -14 34 -33 34c-17 0 -33 -13 -33 -34z" />
    <glyph glyph-name="Atilde" unicode="&#xc3;" horiz-adv-x="669" 
d="M209 749c-32 4 -47 61 -43 82c15 30 51 64 106 64c57 0 91 -32 129 -32c24 0 41 9 57 29c16 2 55 -22 60 -50c-2 -56 -46 -100 -103 -100c-55 0 -85 33 -139 33c-26 0 -49 -13 -67 -26zM432 695l228 -649c-30 -35 -119 -56 -177 -54l-48 194l-222 -9l-59 -187
c-52 -8 -140 8 -164 40l267 667c45 20 134 14 175 -2zM241 295l172 6l-73 273z" />
    <glyph glyph-name="B" unicode="B" horiz-adv-x="652" 
d="M53 37l34 646c73 21 164 31 228 31c157 0 268 -60 268 -171c0 -83 -60 -136 -148 -169c114 -17 187 -77 187 -170c0 -150 -154 -218 -324 -218c-73 0 -177 16 -245 51zM237 596l-6 -170c20 -3 37 -4 50 -4c74 0 130 29 130 101c0 51 -35 85 -99 85c-23 0 -46 -4 -75 -12z
M229 317l-16 -190c32 -17 63 -24 96 -24c75 0 138 39 138 110c0 81 -74 106 -163 106c-19 0 -40 0 -55 -2z" />
    <glyph glyph-name="B.alt01" horiz-adv-x="770" 
d="M414 -14c-80 0 -183 16 -251 51l25 545c-64 -27 -100 -71 -96 -136c-43 -15 -95 29 -105 65c-10 97 80 214 384 214c226 0 322 -76 322 -181c0 -77 -59 -136 -147 -170c114 -17 186 -76 186 -169c0 -143 -143 -219 -318 -219zM338 317l-15 -190c28 -16 61 -24 95 -24
c76 0 139 39 139 115c0 70 -68 101 -161 101c-20 0 -39 0 -58 -2zM375 612c-10 0 -19 0 -29 -1l-5 -185c19 -3 35 -4 50 -4c74 0 131 34 131 104c0 45 -36 86 -147 86z" />
    <glyph glyph-name="Breve" horiz-adv-x="494" 
d="M152 709c6 -26 32 -45 93 -45c60 0 84 20 92 45c15 13 95 3 102 -13c-7 -105 -91 -143 -197 -143c-101 0 -185 36 -195 143c11 22 90 27 105 13z" />
    <glyph glyph-name="C" unicode="C" horiz-adv-x="630" 
d="M399 705c97 0 172 -30 219 -85c-3 -42 -36 -101 -76 -105c-42 35 -83 47 -130 47c-109 0 -199 -89 -199 -221c0 -148 80 -225 196 -225c40 0 84 8 131 29c26 -22 43 -87 27 -122c-64 -31 -142 -43 -210 -43c-215 0 -321 149 -321 346c0 264 193 379 363 379z" />
    <glyph glyph-name="C.alt01" horiz-adv-x="699" 
d="M411 705c95 0 170 -28 217 -84c-2 -36 -40 -95 -75 -108c-39 32 -82 49 -129 49c-139 0 -203 -132 -203 -327c0 -183 62 -298 182 -298c71 0 101 52 110 99c40 6 115 -13 128 -57c-11 -93 -90 -174 -243 -174c-222 0 -353 158 -353 437c0 322 186 463 366 463z" />
    <glyph glyph-name="Cacute" unicode="&#x106;" horiz-adv-x="630" 
d="M399 705c97 0 172 -30 219 -85c-3 -42 -36 -101 -76 -105c-42 35 -83 47 -130 47c-109 0 -199 -89 -199 -221c0 -148 80 -225 196 -225c40 0 84 8 131 29c26 -22 43 -87 27 -122c-64 -31 -142 -43 -210 -43c-215 0 -321 149 -321 346c0 264 193 379 363 379zM469 938
c42 -7 78 -89 63 -140l-195 -53c-22 4 -42 56 -40 82z" />
    <glyph glyph-name="Caron" horiz-adv-x="425" 
d="M227 685l134 51c18 -2 42 -40 40 -62l-121 -90c-22 -14 -85 -14 -109 0l-116 89c-5 17 17 63 40 64z" />
    <glyph glyph-name="Ccaron" unicode="&#x10c;" horiz-adv-x="630" 
d="M399 705c97 0 172 -30 219 -85c-3 -42 -36 -101 -76 -105c-42 35 -83 47 -130 47c-109 0 -199 -89 -199 -221c0 -148 80 -225 196 -225c40 0 84 8 131 29c26 -22 43 -87 27 -122c-64 -31 -142 -43 -210 -43c-215 0 -321 149 -321 346c0 264 193 379 363 379zM381 858
l134 51c18 -2 42 -40 40 -62l-121 -90c-22 -14 -85 -14 -109 0l-116 89c-5 17 17 63 40 64z" />
    <glyph glyph-name="Ccedilla" unicode="&#xc7;" horiz-adv-x="630" 
d="M399 705c97 0 172 -30 219 -85c-3 -42 -36 -101 -76 -105c-42 35 -83 47 -130 47c-109 0 -199 -89 -199 -221c0 -148 80 -225 196 -225c40 0 84 8 131 29c26 -22 43 -87 27 -122c-49 -23 -106 -36 -160 -41l-20 -41c57 -10 88 -37 88 -90c0 -92 -120 -128 -242 -69
c-12 21 8 79 28 77c56 -19 100 -28 101 0c1 26 -43 42 -90 48l30 77c-178 23 -266 162 -266 342c0 264 193 379 363 379z" />
    <glyph glyph-name="Ccircumflex" unicode="&#x108;" horiz-adv-x="630" 
d="M399 705c97 0 172 -30 219 -85c-3 -42 -36 -101 -76 -105c-42 35 -83 47 -130 47c-109 0 -199 -89 -199 -221c0 -148 80 -225 196 -225c40 0 84 8 131 29c26 -22 43 -87 27 -122c-64 -31 -142 -43 -210 -43c-215 0 -321 149 -321 346c0 264 193 379 363 379zM374 786
l-125 -43c-22 3 -42 37 -41 55l128 109c13 12 67 12 84 0l132 -109c1 -18 -29 -53 -50 -54z" />
    <glyph glyph-name="Cdotaccent" unicode="&#x10a;" horiz-adv-x="630" 
d="M377 743c-39 14 -72 46 -89 84c14 33 55 72 92 81c38 -15 73 -47 90 -85c-17 -37 -57 -71 -93 -80zM399 705c97 0 172 -30 219 -85c-3 -42 -36 -101 -76 -105c-42 35 -83 47 -130 47c-109 0 -199 -89 -199 -221c0 -148 80 -225 196 -225c40 0 84 8 131 29
c26 -22 43 -87 27 -122c-64 -31 -142 -43 -210 -43c-215 0 -321 149 -321 346c0 264 193 379 363 379z" />
    <glyph glyph-name="Cedilla" horiz-adv-x="319" 
d="M91 -73l50 125l99 -21l-34 -70c57 -10 88 -37 88 -90c0 -92 -120 -128 -242 -69c-12 21 8 79 28 77c56 -19 100 -28 101 0c1 26 -43 42 -90 48z" />
    <glyph glyph-name="Circumflex" horiz-adv-x="464" 
d="M210 592l-125 -43c-22 3 -42 37 -41 55l128 109c13 12 67 12 84 0l132 -109c1 -18 -29 -53 -50 -54z" />
    <glyph glyph-name="Commaaccent" horiz-adv-x="319" 
d="M151 -179c-23 -2 -51 29 -50 43c18 14 31 27 39 48c-36 8 -52 35 -52 65c0 37 37 64 80 64s88 -30 88 -87c0 -56 -39 -107 -105 -133z" />
    <glyph glyph-name="D" unicode="D" horiz-adv-x="710" 
d="M325 -22c-98 0 -204 14 -272 32l26 664c94 28 189 41 266 41c183 0 327 -112 327 -330c0 -264 -145 -407 -347 -407zM237 561l-27 -450c168 -43 283 31 283 255c0 180 -88 242 -256 195z" />
    <glyph glyph-name="Dcaron" unicode="&#x10e;" horiz-adv-x="710" 
d="M325 -22c-98 0 -204 14 -272 32l26 664c94 28 189 41 266 41c183 0 327 -112 327 -330c0 -264 -145 -407 -347 -407zM237 561l-27 -450c168 -43 283 31 283 255c0 180 -88 242 -256 195zM344 855l134 51c18 -2 42 -40 40 -62l-121 -90c-22 -14 -85 -14 -109 0l-116 89
c-5 17 17 63 40 64z" />
    <glyph glyph-name="Dcroat" unicode="&#x110;" horiz-adv-x="752" 
d="M366 -22c-98 0 -204 14 -272 32l11 277h-81c-25 15 -25 114 -8 125l94 2l10 260c94 28 189 41 266 41c183 0 327 -112 327 -330c0 -264 -145 -407 -347 -407zM278 561l-9 -144l99 3c22 -15 16 -116 0 -133h-107l-10 -176c168 -43 283 31 283 255c0 180 -88 242 -256 195z
" />
    <glyph glyph-name="Delta" unicode="&#x394;" horiz-adv-x="718" 
d="M280 715c10 13 106 12 126 0l287 -714h-672zM327 536l-142 -436l291 7z" />
    <glyph glyph-name="Delta" unicode="&#x2206;" horiz-adv-x="718" 
d="M280 715c10 13 106 12 126 0l287 -714h-672zM327 536l-142 -436l291 7z" />
    <glyph glyph-name="Dieresis" horiz-adv-x="562" 
d="M394 740c-36 13 -73 49 -88 84c15 32 54 70 90 82c36 -13 74 -49 89 -85c-12 -34 -53 -70 -91 -81zM158 742c-37 14 -73 49 -88 84c14 33 53 70 90 82c36 -14 75 -50 89 -85c-15 -36 -56 -70 -91 -81z" />
    <glyph glyph-name="Dotaccent" horiz-adv-x="366" 
d="M162 743c-39 14 -72 46 -89 84c14 33 55 72 92 81c38 -15 73 -47 90 -85c-17 -37 -57 -71 -93 -80z" />
    <glyph glyph-name="E" unicode="E" horiz-adv-x="571" 
d="M86 701l430 5c16 -27 15 -97 -7 -125l-266 2l-12 -150l245 15c20 -30 19 -106 1 -135l-247 -3l4 -186l288 28c26 -30 24 -112 2 -147l-471 -10z" />
    <glyph glyph-name="E.alt01" horiz-adv-x="677" 
d="M608 646c1 -31 -39 -93 -74 -104c-38 36 -90 61 -157 61c-69 0 -111 -34 -111 -87c0 -57 40 -96 92 -115c46 6 107 14 139 -4c33 -18 19 -99 -11 -122c-38 -5 -82 4 -125 17c-74 -46 -124 -142 -124 -237c0 -86 45 -145 139 -145c86 0 122 56 127 140
c29 13 122 -1 136 -20c-7 -142 -95 -243 -274 -243c-197 0 -302 106 -302 253c0 130 99 248 193 298c-76 24 -159 96 -160 194c-1 123 124 189 258 189c112 0 212 -32 254 -75z" />
    <glyph glyph-name="Eacute" unicode="&#xc9;" horiz-adv-x="571" 
d="M86 701l430 5c16 -27 15 -97 -7 -125l-266 2l-12 -150l245 15c20 -30 19 -106 1 -135l-247 -3l4 -186l288 28c26 -30 24 -112 2 -147l-471 -10zM396 938c42 -7 78 -89 63 -140l-195 -53c-22 4 -42 56 -40 82z" />
    <glyph glyph-name="Ecaron" unicode="&#x11a;" horiz-adv-x="571" 
d="M86 701l430 5c16 -27 15 -97 -7 -125l-266 2l-12 -150l245 15c20 -30 19 -106 1 -135l-247 -3l4 -186l288 28c26 -30 24 -112 2 -147l-471 -10zM322 856l134 51c18 -2 42 -40 40 -62l-121 -90c-22 -14 -85 -14 -109 0l-116 89c-5 17 17 63 40 64z" />
    <glyph glyph-name="Ecircumflex" unicode="&#xca;" horiz-adv-x="571" 
d="M86 701l430 5c16 -27 15 -97 -7 -125l-266 2l-12 -150l245 15c20 -30 19 -106 1 -135l-247 -3l4 -186l288 28c26 -30 24 -112 2 -147l-471 -10zM306 786l-125 -43c-22 3 -42 37 -41 55l128 109c13 12 67 12 84 0l132 -109c1 -18 -29 -53 -50 -54z" />
    <glyph glyph-name="Edieresis" unicode="&#xcb;" horiz-adv-x="576" 
d="M432 740c-36 13 -73 49 -88 84c15 32 54 70 90 82c36 -13 74 -49 89 -85c-12 -34 -53 -70 -91 -81zM196 742c-37 14 -73 49 -88 84c14 33 53 70 90 82c36 -14 75 -50 89 -85c-15 -36 -56 -70 -91 -81zM86 701l430 5c16 -27 15 -97 -7 -125l-266 2l-12 -150l245 15
c20 -30 19 -106 1 -135l-247 -3l4 -186l288 28c26 -30 24 -112 2 -147l-471 -10z" />
    <glyph glyph-name="Edotaccent" unicode="&#x116;" horiz-adv-x="571" 
d="M317 743c-39 14 -72 46 -89 84c14 33 55 72 92 81c38 -15 73 -47 90 -85c-17 -37 -57 -71 -93 -80zM86 701l430 5c16 -27 15 -97 -7 -125l-266 2l-12 -150l245 15c20 -30 19 -106 1 -135l-247 -3l4 -186l288 28c26 -30 24 -112 2 -147l-471 -10z" />
    <glyph glyph-name="Egrave" unicode="&#xc8;" horiz-adv-x="571" 
d="M86 701l430 5c16 -27 15 -97 -7 -125l-266 2l-12 -150l245 15c20 -30 19 -106 1 -135l-247 -3l4 -186l288 28c26 -30 24 -112 2 -147l-471 -10zM254 935l170 -110c5 -28 -16 -79 -35 -83l-196 53c-17 53 20 132 61 140z" />
    <glyph glyph-name="Emacron" unicode="&#x112;" horiz-adv-x="571" 
d="M86 701l430 5c16 -27 15 -97 -7 -125l-266 2l-12 -150l245 15c20 -30 19 -106 1 -135l-247 -3l4 -186l288 28c26 -30 24 -112 2 -147l-471 -10zM163 854l302 8c19 -13 14 -103 0 -116h-294c-21 9 -25 97 -8 108z" />
    <glyph glyph-name="Eogonek" unicode="&#x118;" horiz-adv-x="604" 
d="M86 701l430 5c16 -27 15 -97 -7 -125l-266 2l-12 -150l245 15c20 -30 19 -106 1 -135l-247 -3l4 -186l288 28c26 -30 24 -112 2 -147c-49 -27 -93 -67 -93 -97c0 -16 10 -29 30 -29c23 0 37 9 57 27c23 0 50 -39 45 -58c-20 -35 -65 -72 -132 -72c-60 0 -129 23 -129 91
c0 56 31 97 84 135l-333 -7z" />
    <glyph glyph-name="Eth" unicode="&#xd0;" horiz-adv-x="753" 
d="M368 -22c-98 0 -204 14 -272 32l10 269l-86 -1c-19 33 -18 90 -6 126l97 1l11 269c94 28 189 41 266 41c183 0 327 -112 327 -330c0 -264 -145 -407 -347 -407zM280 561l-10 -153l102 2c15 -37 14 -90 -2 -128l-107 -1l-10 -170c168 -43 283 31 283 255
c0 180 -88 242 -256 195z" />
    <glyph glyph-name="Euro" unicode="&#x20ac;" horiz-adv-x="586" 
d="M56 488l68 -3c53 164 216 246 439 222c17 -33 -6 -109 -34 -131c-109 19 -199 -20 -234 -91h193c11 -31 -8 -86 -31 -99l-194 -4c-3 -20 -3 -43 -2 -62l189 3c9 -32 -1 -85 -22 -106l-143 -3c34 -79 125 -110 228 -106c12 -28 10 -104 -19 -129c-218 -8 -347 83 -382 231
l-81 -5c-10 27 -4 86 13 112l54 1c-1 19 1 42 4 61l-67 -2c-7 27 -1 83 21 111z" />
    <glyph glyph-name="F" unicode="F" horiz-adv-x="555" 
d="M85 701l431 5c18 -31 14 -100 -8 -129l-266 4l-11 -149l229 15c21 -27 23 -112 -1 -139l-229 1l-7 -309c-24 -29 -139 -26 -170 -8z" />
    <glyph glyph-name="F.alt01" horiz-adv-x="766" 
d="M199 451c-40 -24 -117 -10 -140 23c-32 198 163 256 352 256c108 0 233 -13 308 -25c15 -26 -1 -114 -19 -132c-82 17 -137 26 -200 27l-8 -196l154 3c20 -24 7 -114 -14 -137l-145 11l-5 -128c-8 -218 -80 -297 -195 -297c-147 0 -234 141 -234 286
c0 192 147 258 275 260h5l7 201c-88 -2 -169 -58 -141 -152zM213 132c0 -81 28 -155 62 -155c39 0 48 101 53 252l2 58c-82 -8 -117 -47 -117 -155z" />
    <glyph glyph-name="G" unicode="G" horiz-adv-x="658" 
d="M399 707c84 0 171 -27 218 -82c-4 -47 -27 -92 -77 -109c-42 34 -86 48 -132 48c-102 0 -194 -90 -194 -218c0 -157 89 -233 198 -233c15 0 31 2 47 5l-25 195c31 25 142 34 176 14l-12 -286c-80 -41 -159 -58 -231 -58c-214 0 -331 146 -331 344c0 264 195 380 363 380z
" />
    <glyph glyph-name="G.alt01" horiz-adv-x="724" 
d="M451 293c28 29 129 33 169 17c0 -186 48 -257 48 -361c0 -139 -133 -211 -309 -211c-147 0 -273 49 -273 151c0 39 20 75 52 94c48 5 122 -26 130 -41c-6 -11 -9 -22 -9 -37c0 -32 38 -48 108 -48c91 0 142 36 142 111c0 11 -1 21 -2 31c-43 -11 -85 -17 -126 -17
c-201 0 -326 127 -326 346c0 259 195 379 363 379c98 0 171 -32 218 -87c-8 -45 -29 -87 -79 -104c-42 34 -82 48 -128 48c-111 0 -196 -96 -196 -225c0 -150 91 -227 197 -227c14 0 32 1 51 4c-15 51 -30 106 -30 177z" />
    <glyph glyph-name="Gbreve" unicode="&#x11e;" horiz-adv-x="658" 
d="M282 899c6 -26 32 -45 93 -45c60 0 84 20 92 45c15 13 95 3 102 -13c-7 -105 -91 -143 -197 -143c-101 0 -185 36 -195 143c11 22 90 27 105 13zM399 707c84 0 171 -27 218 -82c-4 -47 -27 -92 -77 -109c-42 34 -86 48 -132 48c-102 0 -194 -90 -194 -218
c0 -157 89 -233 198 -233c15 0 31 2 47 5l-25 195c31 25 142 34 176 14l-12 -286c-80 -41 -159 -58 -231 -58c-214 0 -331 146 -331 344c0 264 195 380 363 380z" />
    <glyph glyph-name="Gcircumflex" unicode="&#x11c;" horiz-adv-x="658" 
d="M399 707c84 0 171 -27 218 -82c-4 -47 -27 -92 -77 -109c-42 34 -86 48 -132 48c-102 0 -194 -90 -194 -218c0 -157 89 -233 198 -233c15 0 31 2 47 5l-25 195c31 25 142 34 176 14l-12 -286c-80 -41 -159 -58 -231 -58c-214 0 -331 146 -331 344c0 264 195 380 363 380z
M382 785l-125 -43c-22 3 -42 37 -41 55l128 109c13 12 67 12 84 0l132 -109c1 -18 -29 -53 -50 -54z" />
    <glyph glyph-name="Gcommaaccent" unicode="&#x122;" horiz-adv-x="658" 
d="M399 707c84 0 171 -27 218 -82c-4 -47 -27 -92 -77 -109c-42 34 -86 48 -132 48c-102 0 -194 -90 -194 -218c0 -157 89 -233 198 -233c15 0 31 2 47 5l-25 195c31 25 142 34 176 14l-12 -286c-80 -41 -159 -58 -231 -58c-214 0 -331 146 -331 344c0 264 195 380 363 380z
M336 -271c-23 -2 -51 29 -50 43c18 14 31 27 39 48c-36 8 -52 35 -52 65c0 37 37 64 80 64s88 -30 88 -87c0 -56 -39 -107 -105 -133z" />
    <glyph glyph-name="Gdotaccent" unicode="&#x120;" horiz-adv-x="658" 
d="M373 743c-39 14 -72 46 -89 84c14 33 55 72 92 81c38 -15 73 -47 90 -85c-17 -37 -57 -71 -93 -80zM399 707c84 0 171 -27 218 -82c-4 -47 -27 -92 -77 -109c-42 34 -86 48 -132 48c-102 0 -194 -90 -194 -218c0 -157 89 -233 198 -233c15 0 31 2 47 5l-25 195
c31 25 142 34 176 14l-12 -286c-80 -41 -159 -58 -231 -58c-214 0 -331 146 -331 344c0 264 195 380 363 380z" />
    <glyph glyph-name="Germandbls" horiz-adv-x="654" 
d="M52 0l25 468c10 197 124 258 276 258c110 0 203 -41 240 -131c-7 -124 -100 -155 -100 -192c0 -33 123 -86 123 -213c0 -140 -123 -238 -314 -183c-20 12 -28 97 7 120c89 -28 141 19 141 77c0 81 -106 131 -106 178c0 36 79 78 88 166c-10 34 -45 60 -94 60
c-71 0 -113 -41 -113 -159l-2 -449c-24 -17 -132 -24 -171 0z" />
    <glyph glyph-name="Grave" horiz-adv-x="262" 
d="M174 738l170 -110c5 -28 -16 -79 -35 -83l-196 53c-17 53 20 132 61 140z" />
    <glyph glyph-name="H" unicode="H" horiz-adv-x="742" 
d="M278 706l-30 -256l266 3l-9 244c41 16 139 16 181 3l-38 -702c-38 -14 -138 -9 -177 2l39 305l-278 4l-7 -298c-37 -18 -130 -18 -172 -10l43 702c39 14 137 16 182 3z" />
    <glyph glyph-name="Hbar" unicode="&#x126;" horiz-adv-x="783" 
d="M292 706l-10 -87l240 2l-3 76c41 16 139 16 181 3l-4 -77l83 1c20 -6 14 -98 0 -111h-89l-28 -515c-38 -14 -138 -9 -177 2l39 305l-278 4l-7 -298c-37 -18 -130 -18 -172 -10l31 512h-79c-21 9 -25 92 -8 103l94 1l5 86c39 14 137 16 182 3zM528 453l-2 60h-257l-7 -63z
" />
    <glyph glyph-name="Hcircumflex" unicode="&#x124;" horiz-adv-x="742" 
d="M278 706l-30 -256l266 3l-9 244c41 16 139 16 181 3l-38 -702c-38 -14 -138 -9 -177 2l39 305l-278 4l-7 -298c-37 -18 -130 -18 -172 -10l43 702c39 14 137 16 182 3zM394 785l-125 -43c-22 3 -42 37 -41 55l128 109c13 12 67 12 84 0l132 -109c1 -18 -29 -53 -50 -54z
" />
    <glyph glyph-name="Hungarumlaut" horiz-adv-x="733" 
d="M542 738c42 -7 76 -95 59 -140l-192 -53c-23 3 -42 55 -40 83zM272 738c44 -9 76 -92 62 -140l-192 -53c-22 5 -43 53 -41 82z" />
    <glyph glyph-name="I" unicode="I" horiz-adv-x="421" 
d="M140 579l-74 4c-19 19 -18 99 3 117h306c21 -29 15 -99 -5 -128l-79 3l-10 -457s62 -4 71 -4c20 -20 21 -95 -1 -114h-306c-21 21 -13 103 5 125l63 -1z" />
    <glyph glyph-name="Iacute" unicode="&#xcd;" horiz-adv-x="421" 
d="M140 579l-74 4c-19 19 -18 99 3 117h306c21 -29 15 -99 -5 -128l-79 3l-10 -457s62 -4 71 -4c20 -20 21 -95 -1 -114h-306c-21 21 -13 103 5 125l63 -1zM296 938c42 -7 78 -89 63 -140l-195 -53c-22 4 -42 56 -40 82z" />
    <glyph glyph-name="Icircumflex" unicode="&#xce;" horiz-adv-x="426" 
d="M138 579l-74 4c-19 19 -18 99 3 117h306c21 -29 15 -99 -5 -128l-79 3l-10 -457s62 -4 71 -4c20 -20 21 -95 -1 -114h-306c-21 21 -13 103 5 125l63 -1zM212 786l-125 -43c-22 3 -42 37 -41 55l128 109c13 12 67 12 84 0l132 -109c1 -18 -29 -53 -50 -54z" />
    <glyph glyph-name="Idieresis" unicode="&#xcf;" horiz-adv-x="397" 
d="M131 580l-75 4c-17 16 -16 101 3 116h307c20 -29 16 -99 -5 -128l-79 4l-10 -458l71 -4c19 -20 22 -95 -1 -114h-308c-17 20 -11 105 7 125l64 -1zM334 740c-36 13 -73 49 -88 84c15 32 54 70 90 82c36 -13 74 -49 89 -85c-12 -34 -53 -70 -91 -81zM98 742
c-37 14 -73 49 -88 84c14 33 53 70 90 82c36 -14 75 -50 89 -85c-15 -36 -56 -70 -91 -81z" />
    <glyph glyph-name="Idotaccent" unicode="&#x130;" horiz-adv-x="421" 
d="M221 743c-39 14 -72 46 -89 84c14 33 55 72 92 81c38 -15 73 -47 90 -85c-17 -37 -57 -71 -93 -80zM140 579l-74 4c-19 19 -18 99 3 117h306c21 -29 15 -99 -5 -128l-79 3l-10 -457s62 -4 71 -4c20 -20 21 -95 -1 -114h-306c-21 21 -13 103 5 125l63 -1z" />
    <glyph glyph-name="Igrave" unicode="&#xcc;" horiz-adv-x="421" 
d="M140 579l-74 4c-19 19 -18 99 3 117h306c21 -29 15 -99 -5 -128l-79 3l-10 -457s62 -4 71 -4c20 -20 21 -95 -1 -114h-306c-21 21 -13 103 5 125l63 -1zM127 935l170 -110c5 -28 -16 -79 -35 -83l-196 53c-17 53 20 132 61 140z" />
    <glyph glyph-name="Imacron" unicode="&#x12a;" horiz-adv-x="422" 
d="M140 579l-74 4c-19 19 -18 99 3 117h306c21 -29 15 -99 -5 -128l-79 3l-10 -457s62 -4 71 -4c20 -20 21 -95 -1 -114h-306c-21 21 -13 103 5 125l63 -1zM71 854l302 8c19 -13 14 -103 0 -116h-294c-21 9 -25 97 -8 108z" />
    <glyph glyph-name="Iogonek" unicode="&#x12e;" horiz-adv-x="421" 
d="M140 579l-74 4c-19 19 -18 99 3 117h306c21 -29 15 -99 -5 -128l-79 3l-10 -457s62 -4 71 -4c20 -20 21 -95 -1 -114h-54c-48 -27 -91 -66 -91 -96c0 -16 10 -29 30 -29c23 0 37 9 57 27c23 0 50 -39 45 -58c-20 -35 -65 -72 -132 -72c-60 0 -129 23 -129 91
c0 57 33 99 87 137h-119c-21 21 -13 103 5 125l63 -1z" />
    <glyph glyph-name="J" unicode="J" horiz-adv-x="344" 
d="M100 211l5 473c26 24 150 30 182 3l-32 -517c-12 -190 -85 -315 -242 -336c-30 13 -42 79 -32 111c99 43 118 108 119 266z" />
    <glyph glyph-name="Jcircumflex" unicode="&#x134;" horiz-adv-x="357" 
d="M103 211l5 473c26 24 150 30 182 3l-32 -517c-12 -190 -85 -315 -242 -336c-30 13 -42 79 -32 111c99 43 118 108 119 266zM184 784l-125 -43c-22 3 -42 37 -41 55l128 109c13 12 67 12 84 0l132 -109c1 -18 -29 -53 -50 -54z" />
    <glyph glyph-name="K" unicode="K" horiz-adv-x="651" 
d="M66 705c22 11 157 9 180 -3l-27 -307l62 18l162 295c52 12 165 -1 188 -50l-240 -284l257 -347c-19 -35 -149 -63 -191 -48l-172 320l-71 -5l3 -306c-23 -14 -139 -15 -164 -1z" />
    <glyph glyph-name="Kcommaaccent" unicode="&#x136;" horiz-adv-x="651" 
d="M66 705c22 11 157 9 180 -3l-27 -307l62 18l162 295c52 12 165 -1 188 -50l-240 -284l257 -347c-19 -35 -149 -63 -191 -48l-172 320l-71 -5l3 -306c-23 -14 -139 -15 -164 -1zM275 -271c-23 -2 -51 29 -50 43c18 14 31 27 39 48c-36 8 -52 35 -52 65c0 37 37 64 80 64
s88 -30 88 -87c0 -56 -39 -107 -105 -133z" />
    <glyph glyph-name="L" unicode="L" horiz-adv-x="502" 
d="M53 -3l23 702c34 16 148 18 194 3l-46 -553l250 21c22 -37 26 -136 -8 -170z" />
    <glyph glyph-name="L.alt01" horiz-adv-x="682" 
d="M558 675c23 -25 -2 -128 -61 -137c-29 47 -88 73 -140 73c-59 0 -82 -46 -82 -111c0 -81 6 -164 6 -240c0 -59 -21 -98 -57 -133c45 13 76 26 104 26c50 0 98 -14 129 -14c41 0 80 14 102 40c30 -1 67 -42 70 -71c-24 -79 -85 -117 -158 -117c-71 0 -158 28 -207 28
c-42 0 -91 -7 -158 -30c-7 1 -39 53 -38 63c40 55 60 108 60 171c0 101 -12 229 -12 287c0 131 88 214 235 214c78 0 142 -13 207 -49z" />
    <glyph glyph-name="Lacute" unicode="&#x139;" horiz-adv-x="502" 
d="M53 -3l23 702c34 16 148 18 194 3l-46 -553l250 21c22 -37 26 -136 -8 -170zM290 938c42 -7 78 -89 63 -140l-195 -53c-22 4 -42 56 -40 82z" />
    <glyph glyph-name="Lcaron" unicode="&#x13d;" horiz-adv-x="517" 
d="M385 700c18 30 122 28 129 11c1 -82 -29 -175 -58 -212c-22 -13 -81 1 -86 23c20 59 29 117 15 178zM53 -3l23 702c34 16 148 18 194 3l-46 -553l250 21c22 -37 26 -136 -8 -170z" />
    <glyph glyph-name="Lcommaaccent" unicode="&#x13b;" horiz-adv-x="502" 
d="M53 -3l23 702c34 16 148 18 194 3l-46 -553l250 21c22 -37 26 -136 -8 -170zM238 -269c-23 -2 -51 29 -50 43c18 14 31 27 39 48c-36 8 -52 35 -52 65c0 37 37 64 80 64s88 -30 88 -87c0 -56 -39 -107 -105 -133z" />
    <glyph glyph-name="Ldot" unicode="&#x13f;" horiz-adv-x="513" 
d="M397 333c-39 14 -72 46 -89 84c14 33 55 72 92 81c38 -15 73 -47 90 -85c-17 -37 -57 -71 -93 -80zM53 -3l23 702c34 16 148 18 194 3l-46 -553l250 21c22 -37 26 -136 -8 -170z" />
    <glyph glyph-name="Lslash" unicode="&#x141;" horiz-adv-x="556" 
d="M107 -3l8 246l-57 -27c-33 14 -54 74 -46 110l107 50l11 323c34 16 148 18 194 3l-20 -239l103 49c24 -11 48 -82 33 -116l-147 -70l-15 -177l250 21c22 -37 26 -136 -8 -170z" />
    <glyph glyph-name="M" unicode="M" horiz-adv-x="899" 
d="M346 695l105 -356l159 361c38 12 141 15 175 1l69 -682c-43 -25 -119 -35 -168 -29l-45 530l-141 -338c-31 -29 -113 -45 -144 -30l-109 374l-60 -522c-46 -17 -133 -14 -170 10l131 677c42 16 157 16 198 4z" />
    <glyph glyph-name="M.alt01" horiz-adv-x="1039" 
d="M119 742c219 0 372 -179 419 -429l151 386c40 21 124 16 166 2c0 -431 28 -590 103 -623c1 -51 -77 -99 -133 -73c-57 20 -110 94 -94 527l-144 -371c-30 -33 -95 -39 -138 -26c-17 105 -49 237 -121 334c3 -300 -70 -477 -186 -477c-36 0 -70 8 -92 33
c-11 30 -5 92 15 112c97 -25 155 135 161 411c-16 22 -77 54 -138 49c-14 52 0 128 31 145z" />
    <glyph glyph-name="Macron" horiz-adv-x="377" 
d="M37 854l302 8c19 -13 14 -103 0 -116h-294c-21 9 -25 97 -8 108z" />
    <glyph glyph-name="N" unicode="N" horiz-adv-x="748" 
d="M53 7l21 666c24 33 125 36 164 25l297 -506l-6 504c27 15 133 19 162 1l-44 -693c-28 -27 -109 -35 -147 -25l-310 510l15 -484c-31 -17 -121 -12 -152 2z" />
    <glyph glyph-name="N.alt01" horiz-adv-x="986" 
d="M62 20c-11 35 4 99 31 109c10 -5 26 -10 43 -10c68 0 76 80 83 285l7 206c-19 24 -50 48 -83 54c-9 42 30 117 63 128c102 -3 192 -107 275 -235l207 -343l1 214c-3 243 46 357 208 361c26 -12 41 -76 32 -114c-94 -19 -101 -105 -107 -262l-16 -367
c-14 -33 -110 -61 -154 -54l-306 498l1 -210c-1 -229 -62 -292 -182 -292c-37 0 -82 9 -103 32z" />
    <glyph glyph-name="Nacute" unicode="&#x143;" horiz-adv-x="748" 
d="M53 7l21 666c24 33 125 36 164 25l297 -506l-6 504c27 15 133 19 162 1l-44 -693c-28 -27 -109 -35 -147 -25l-310 510l15 -484c-31 -17 -121 -12 -152 2zM488 938c42 -7 78 -89 63 -140l-195 -53c-22 4 -42 56 -40 82z" />
    <glyph glyph-name="Ncaron" unicode="&#x147;" horiz-adv-x="748" 
d="M53 7l21 666c24 33 125 36 164 25l297 -506l-6 504c27 15 133 19 162 1l-44 -693c-28 -27 -109 -35 -147 -25l-310 510l15 -484c-31 -17 -121 -12 -152 2zM396 852l134 51c18 -2 42 -40 40 -62l-121 -90c-22 -14 -85 -14 -109 0l-116 89c-5 17 17 63 40 64z" />
    <glyph glyph-name="Ncommaaccent" unicode="&#x145;" horiz-adv-x="748" 
d="M53 7l21 666c24 33 125 36 164 25l297 -506l-6 504c27 15 133 19 162 1l-44 -693c-28 -27 -109 -35 -147 -25l-310 510l15 -484c-31 -17 -121 -12 -152 2zM308 -265c-23 -2 -51 29 -50 43c18 14 31 27 39 48c-36 8 -52 35 -52 65c0 37 37 64 80 64s88 -30 88 -87
c0 -56 -39 -107 -105 -133z" />
    <glyph glyph-name="Ntilde" unicode="&#xd1;" horiz-adv-x="748" 
d="M256 749c-32 4 -47 61 -43 82c15 30 51 64 106 64c57 0 91 -32 129 -32c24 0 41 9 57 29c16 2 55 -22 60 -50c-2 -56 -46 -100 -103 -100c-55 0 -85 33 -139 33c-26 0 -49 -13 -67 -26zM53 7l21 666c24 33 125 36 164 25l297 -506l-6 504c27 15 133 19 162 1l-44 -693
c-28 -27 -109 -35 -147 -25l-310 510l15 -484c-31 -17 -121 -12 -152 2z" />
    <glyph glyph-name="O" unicode="O" horiz-adv-x="729" 
d="M369 719c193 1 321 -125 321 -352c0 -228 -139 -387 -336 -387c-191 0 -318 91 -318 366c0 201 128 372 333 373zM207 345c0 -129 20 -233 149 -233c116 0 164 102 164 261c0 131 -26 217 -155 217c-102 0 -158 -91 -158 -245z" />
    <glyph glyph-name="OE" unicode="&#x152;" horiz-adv-x="1027" 
d="M563 701l410 5c15 -35 16 -89 -7 -125l-267 2l-12 -150l246 15c18 -36 20 -98 1 -135l-248 -3l6 -185l285 28c29 -39 23 -113 2 -148l-454 -10l6 45c-45 -40 -105 -60 -180 -60c-190 0 -315 94 -315 367c0 193 122 371 333 372c85 0 152 -24 197 -79zM206 349
c0 -129 18 -237 150 -237c118 0 163 105 163 264c0 132 -27 215 -154 215c-103 0 -159 -96 -159 -242z" />
    <glyph glyph-name="Oacute" unicode="&#xd3;" horiz-adv-x="729" 
d="M369 719c193 1 321 -125 321 -352c0 -228 -139 -387 -336 -387c-191 0 -318 91 -318 366c0 201 128 372 333 373zM207 345c0 -129 20 -233 149 -233c116 0 164 102 164 261c0 131 -26 217 -155 217c-102 0 -158 -91 -158 -245zM443 938c42 -7 78 -89 63 -140l-195 -53
c-22 4 -42 56 -40 82z" />
    <glyph glyph-name="Ocircumflex" unicode="&#xd4;" horiz-adv-x="729" 
d="M369 719c193 1 321 -125 321 -352c0 -228 -139 -387 -336 -387c-191 0 -318 91 -318 366c0 201 128 372 333 373zM207 345c0 -129 20 -233 149 -233c116 0 164 102 164 261c0 131 -26 217 -155 217c-102 0 -158 -91 -158 -245zM371 786l-125 -43c-22 3 -42 37 -41 55
l128 109c13 12 67 12 84 0l132 -109c1 -18 -29 -53 -50 -54z" />
    <glyph glyph-name="Odieresis" unicode="&#xd6;" horiz-adv-x="729" 
d="M484 740c-36 13 -73 49 -88 84c15 32 54 70 90 82c36 -13 74 -49 89 -85c-12 -34 -53 -70 -91 -81zM248 742c-37 14 -73 49 -88 84c14 33 53 70 90 82c36 -14 75 -50 89 -85c-15 -36 -56 -70 -91 -81zM369 719c193 1 321 -125 321 -352c0 -228 -139 -387 -336 -387
c-191 0 -318 91 -318 366c0 201 128 372 333 373zM207 345c0 -129 20 -233 149 -233c116 0 164 102 164 261c0 131 -26 217 -155 217c-102 0 -158 -91 -158 -245z" />
    <glyph glyph-name="Ogonek" horiz-adv-x="340" 
d="M217 49l52 -48c-49 -27 -93 -67 -93 -97c0 -16 10 -29 30 -29c23 0 37 9 57 27c23 0 50 -39 45 -58c-20 -35 -65 -72 -132 -72c-60 0 -129 23 -129 91c0 81 67 132 170 186z" />
    <glyph glyph-name="Ograve" unicode="&#xd2;" horiz-adv-x="729" 
d="M369 719c193 1 321 -125 321 -352c0 -228 -139 -387 -336 -387c-191 0 -318 91 -318 366c0 201 128 372 333 373zM207 345c0 -129 20 -233 149 -233c116 0 164 102 164 261c0 131 -26 217 -155 217c-102 0 -158 -91 -158 -245zM314 934l170 -110c5 -28 -16 -79 -35 -83
l-196 53c-17 53 20 132 61 140z" />
    <glyph glyph-name="Ohungarumlaut" unicode="&#x150;" horiz-adv-x="729" 
d="M369 719c193 1 321 -125 321 -352c0 -228 -139 -387 -336 -387c-191 0 -318 91 -318 366c0 201 128 372 333 373zM207 345c0 -129 20 -233 149 -233c116 0 164 102 164 261c0 131 -26 217 -155 217c-102 0 -158 -91 -158 -245zM612 936c42 -7 76 -95 59 -140l-192 -53
c-23 3 -42 55 -40 83zM342 936c44 -9 76 -92 62 -140l-192 -53c-22 5 -43 53 -41 82z" />
    <glyph glyph-name="Omacron" unicode="&#x14c;" horiz-adv-x="729" 
d="M369 719c193 1 321 -125 321 -352c0 -228 -139 -387 -336 -387c-191 0 -318 91 -318 366c0 201 128 372 333 373zM207 345c0 -129 20 -233 149 -233c116 0 164 102 164 261c0 131 -26 217 -155 217c-102 0 -158 -91 -158 -245zM220 854l302 8c19 -13 14 -103 0 -116h-294
c-21 9 -25 97 -8 108z" />
    <glyph glyph-name="Omega" unicode="&#x3a9;" horiz-adv-x="912" 
d="M62 143l151 -21c-60 64 -130 142 -130 297c0 154 148 318 375 318c244 0 349 -159 349 -303c0 -141 -78 -244 -134 -310l160 27c25 -33 24 -138 2 -160l-303 12l-2 110c50 57 126 154 126 284s-69 215 -200 215c-130 0 -219 -89 -219 -218c0 -140 71 -221 138 -283v-109
l-309 -14c-18 17 -30 129 -4 155z" />
    <glyph glyph-name="Omega" unicode="&#x2126;" horiz-adv-x="912" 
d="M62 143l151 -21c-60 64 -130 142 -130 297c0 154 148 318 375 318c244 0 349 -159 349 -303c0 -141 -78 -244 -134 -310l160 27c25 -33 24 -138 2 -160l-303 12l-2 110c50 57 126 154 126 284s-69 215 -200 215c-130 0 -219 -89 -219 -218c0 -140 71 -221 138 -283v-109
l-309 -14c-18 17 -30 129 -4 155z" />
    <glyph glyph-name="Oslash" unicode="&#xd8;" horiz-adv-x="729" 
d="M369 719c32 0 62 -4 90 -10l29 66c23 11 122 -26 138 -59l-40 -73c66 -59 104 -153 104 -276c0 -228 -139 -387 -336 -387c-34 0 -66 3 -96 10l-37 -86c-38 -9 -125 30 -131 51l48 91c-65 56 -102 151 -102 300c0 201 128 372 333 373zM381 266l-67 -150
c13 -3 26 -4 42 -4c116 0 164 102 164 261c0 47 -4 89 -14 122zM207 345c0 -52 3 -100 15 -138l109 207l75 172c-13 3 -26 4 -41 4c-102 0 -158 -91 -158 -245z" />
    <glyph glyph-name="Otilde" unicode="&#xd5;" horiz-adv-x="729" 
d="M252 749c-32 4 -47 61 -43 82c15 30 51 64 106 64c57 0 91 -32 129 -32c24 0 41 9 57 29c16 2 55 -22 60 -50c-2 -56 -46 -100 -103 -100c-55 0 -85 33 -139 33c-26 0 -49 -13 -67 -26zM369 719c193 1 321 -125 321 -352c0 -228 -139 -387 -336 -387
c-191 0 -318 91 -318 366c0 201 128 372 333 373zM207 345c0 -129 20 -233 149 -233c116 0 164 102 164 261c0 131 -26 217 -155 217c-102 0 -158 -91 -158 -245z" />
    <glyph glyph-name="P" unicode="P" 
d="M53 -3l26 692c71 19 157 27 225 27c188 0 307 -82 307 -240c0 -159 -140 -250 -278 -250c-38 0 -77 7 -110 20l2 -244c-40 -29 -129 -27 -172 -5zM227 581l1 -218c25 -7 52 -12 78 -12c81 0 143 45 143 127c0 68 -50 114 -136 114c-28 0 -55 -3 -86 -11z" />
    <glyph glyph-name="P.alt01" horiz-adv-x="803" 
d="M368 606l-4 -604c-24 -14 -56 -21 -85 -21c-28 0 -56 5 -87 16l24 580c-72 -20 -113 -75 -97 -142c-35 -18 -97 20 -109 65c-34 172 237 261 486 221c126 -19 248 -87 248 -246c0 -193 -174 -287 -338 -222c-18 25 -11 89 11 98c76 -8 165 23 165 120
c0 101 -86 143 -214 135z" />
    <glyph glyph-name="Q" unicode="Q" horiz-adv-x="735" 
d="M369 719c201 1 320 -135 320 -353c0 -167 -74 -285 -181 -344c39 -49 231 -117 298 -128c7 -43 -62 -126 -109 -123c-100 7 -256 106 -317 211c-10 -1 -20 -2 -30 -2c-190 0 -314 92 -314 373c0 186 121 365 333 366zM206 343c0 -122 19 -236 148 -236
c119 0 165 109 165 267c0 133 -33 216 -154 216c-100 0 -159 -87 -159 -247z" />
    <glyph glyph-name="Q.alt01" horiz-adv-x="854" 
d="M636 -30c41 12 130 -19 145 -50c-3 -71 -64 -146 -226 -146c-315 0 -505 239 -505 544c0 198 104 403 330 403c207 0 323 -139 323 -338c0 -227 -139 -433 -383 -387c63 -68 144 -95 208 -95c68 0 104 26 108 69zM533 379c0 140 -46 211 -145 211
c-116 0 -168 -104 -168 -295c0 -75 11 -137 31 -188c230 -26 282 78 282 272z" />
    <glyph glyph-name="Q.alt02" horiz-adv-x="895" 
d="M323 167c-187 0 -283 105 -283 255c0 143 109 298 330 298c200 0 322 -130 322 -336c0 -154 -71 -288 -164 -384c52 -31 96 -56 130 -56c42 0 60 47 18 98c19 48 101 73 135 56c97 -152 15 -280 -113 -280c-92 0 -184 52 -263 105c-71 -48 -146 -76 -208 -76
c-101 0 -181 45 -181 140c0 85 62 141 160 141c75 0 145 -28 209 -61c59 77 107 190 107 321c0 123 -54 202 -160 202c-93 0 -146 -73 -146 -169c0 -88 53 -138 133 -151c16 -28 -3 -90 -26 -103zM246 27c-24 0 -40 -12 -40 -30c0 -24 27 -36 57 -36c21 0 46 10 72 28
c-36 22 -66 38 -89 38z" />
    <glyph glyph-name="R" unicode="R" horiz-adv-x="663" 
d="M53 -4l27 693c70 19 153 27 224 27c182 0 307 -65 307 -227c0 -125 -74 -190 -150 -221c23 -54 141 -200 185 -232c-20 -48 -125 -73 -174 -56c-48 43 -126 187 -146 264c-31 -2 -67 2 -102 10v-251c-36 -28 -132 -30 -171 -7zM230 582v-211c29 -8 59 -11 87 -11
c74 0 132 43 132 116c0 76 -56 117 -138 117c-25 0 -53 -3 -81 -11z" />
    <glyph glyph-name="R.alt01" horiz-adv-x="856" 
d="M94 453c-48 -15 -106 40 -104 85c64 136 245 181 387 181c219 0 352 -76 352 -233c0 -120 -69 -185 -146 -217c21 -40 52 -91 86 -126c27 -27 57 -28 81 -17c21 -13 46 -55 43 -83c-18 -43 -63 -73 -118 -73c-97 0 -161 73 -232 274c-33 -2 -67 3 -101 10l2 -251
c-21 -14 -47 -22 -74 -22c-22 0 -81 5 -99 15l20 561c-45 -23 -79 -58 -97 -104zM372 596c-8 0 -16 0 -24 -1v-223c30 -9 60 -13 86 -13c76 0 133 42 133 122c0 73 -51 115 -195 115z" />
    <glyph glyph-name="Racute" unicode="&#x154;" horiz-adv-x="663" 
d="M53 -4l27 693c70 19 153 27 224 27c182 0 307 -65 307 -227c0 -125 -74 -190 -150 -221c23 -54 141 -200 185 -232c-20 -48 -125 -73 -174 -56c-48 43 -126 187 -146 264c-31 -2 -67 2 -102 10v-251c-36 -28 -132 -30 -171 -7zM230 582v-211c29 -8 59 -11 87 -11
c74 0 132 43 132 116c0 76 -56 117 -138 117c-25 0 -53 -3 -81 -11zM419 938c42 -7 78 -89 63 -140l-195 -53c-22 4 -42 56 -40 82z" />
    <glyph glyph-name="Rcaron" unicode="&#x158;" horiz-adv-x="663" 
d="M53 -4l27 693c70 19 153 27 224 27c182 0 307 -65 307 -227c0 -125 -74 -190 -150 -221c23 -54 141 -200 185 -232c-20 -48 -125 -73 -174 -56c-48 43 -126 187 -146 264c-31 -2 -67 2 -102 10v-251c-36 -28 -132 -30 -171 -7zM230 582v-211c29 -8 59 -11 87 -11
c74 0 132 43 132 116c0 76 -56 117 -138 117c-25 0 -53 -3 -81 -11zM319 856l134 51c18 -2 42 -40 40 -62l-121 -90c-22 -14 -85 -14 -109 0l-116 89c-5 17 17 63 40 64z" />
    <glyph glyph-name="Rcommaaccent" unicode="&#x156;" horiz-adv-x="663" 
d="M53 -4l27 693c70 19 153 27 224 27c182 0 307 -65 307 -227c0 -125 -74 -190 -150 -221c23 -54 141 -200 185 -232c-20 -48 -125 -73 -174 -56c-48 43 -126 187 -146 264c-31 -2 -67 2 -102 10v-251c-36 -28 -132 -30 -171 -7zM230 582v-211c29 -8 59 -11 87 -11
c74 0 132 43 132 116c0 76 -56 117 -138 117c-25 0 -53 -3 -81 -11zM292 -264c-23 -2 -51 29 -50 43c18 14 31 27 39 48c-36 8 -52 35 -52 65c0 37 37 64 80 64s88 -30 88 -87c0 -56 -39 -107 -105 -133z" />
    <glyph glyph-name="Ring" horiz-adv-x="321" 
d="M20 819c0 62 67 106 152 106c87 0 152 -44 152 -106c0 -64 -65 -110 -152 -110s-152 46 -152 110zM139 819c0 -21 16 -35 33 -35c19 0 33 15 33 35c0 19 -14 34 -33 34c-17 0 -33 -13 -33 -34z" />
    <glyph glyph-name="S" unicode="S" horiz-adv-x="559" 
d="M276 724c93 0 171 -15 229 -47c9 -43 -16 -130 -54 -144c-44 38 -99 70 -156 70c-50 0 -82 -22 -82 -66c0 -43 40 -67 106 -104c116 -66 194 -120 194 -237c0 -113 -88 -210 -252 -210c-99 0 -173 20 -220 50c-14 43 15 144 54 166c45 -56 99 -92 158 -92
c62 0 91 36 91 76c0 72 -89 107 -149 141c-91 53 -150 109 -150 209c0 115 78 188 231 188z" />
    <glyph glyph-name="S.alt01" horiz-adv-x="684" 
d="M341 724c101 0 183 -23 238 -53c6 -41 -21 -131 -58 -147c-43 39 -102 76 -161 76c-55 0 -86 -19 -86 -63c0 -46 52 -93 144 -185c88 -88 191 -191 191 -306c0 -154 -109 -245 -250 -245c-149 0 -261 61 -307 169c9 61 90 114 128 111c19 -79 80 -140 154 -140
c69 0 101 45 101 101c0 91 -115 181 -181 248c-80 81 -150 140 -150 247c0 104 77 187 237 187z" />
    <glyph glyph-name="Sacute" unicode="&#x15a;" horiz-adv-x="559" 
d="M276 724c93 0 171 -15 229 -47c9 -43 -16 -130 -54 -144c-44 38 -99 70 -156 70c-50 0 -82 -22 -82 -66c0 -43 40 -67 106 -104c116 -66 194 -120 194 -237c0 -113 -88 -210 -252 -210c-99 0 -173 20 -220 50c-14 43 15 144 54 166c45 -56 99 -92 158 -92
c62 0 91 36 91 76c0 72 -89 107 -149 141c-91 53 -150 109 -150 209c0 115 78 188 231 188zM359 938c42 -7 78 -89 63 -140l-195 -53c-22 4 -42 56 -40 82z" />
    <glyph glyph-name="Scaron" unicode="&#x160;" horiz-adv-x="559" 
d="M276 724c93 0 171 -15 229 -47c9 -43 -16 -130 -54 -144c-44 38 -99 70 -156 70c-50 0 -82 -22 -82 -66c0 -43 40 -67 106 -104c116 -66 194 -120 194 -237c0 -113 -88 -210 -252 -210c-99 0 -173 20 -220 50c-14 43 15 144 54 166c45 -56 99 -92 158 -92
c62 0 91 36 91 76c0 72 -89 107 -149 141c-91 53 -150 109 -150 209c0 115 78 188 231 188zM282 856l134 51c18 -2 42 -40 40 -62l-121 -90c-22 -14 -85 -14 -109 0l-116 89c-5 17 17 63 40 64z" />
    <glyph glyph-name="Scedilla" unicode="&#x15e;" horiz-adv-x="559" 
d="M198 -73l24 60c-80 5 -141 23 -181 49c-14 43 15 144 54 166c45 -56 99 -92 158 -92c62 0 91 36 91 76c0 72 -89 107 -149 141c-91 53 -150 109 -150 209c0 115 78 188 231 188c93 0 171 -15 229 -47c9 -43 -16 -130 -54 -144c-44 38 -99 70 -156 70
c-50 0 -82 -22 -82 -66c0 -43 40 -67 106 -104c116 -66 194 -120 194 -237c0 -97 -64 -181 -185 -204l-15 -31c57 -10 88 -37 88 -90c0 -92 -120 -128 -242 -69c-12 21 8 79 28 77c56 -19 100 -28 101 0c1 26 -43 42 -90 48z" />
    <glyph glyph-name="Scircumflex" unicode="&#x15c;" horiz-adv-x="559" 
d="M276 724c93 0 171 -15 229 -47c9 -43 -16 -130 -54 -144c-44 38 -99 70 -156 70c-50 0 -82 -22 -82 -66c0 -43 40 -67 106 -104c116 -66 194 -120 194 -237c0 -113 -88 -210 -252 -210c-99 0 -173 20 -220 50c-14 43 15 144 54 166c45 -56 99 -92 158 -92
c62 0 91 36 91 76c0 72 -89 107 -149 141c-91 53 -150 109 -150 209c0 115 78 188 231 188zM288 799l-125 -43c-22 3 -42 37 -41 55l128 109c13 12 67 12 84 0l132 -109c1 -18 -29 -53 -50 -54z" />
    <glyph glyph-name="Scommaaccent" unicode="&#x218;" horiz-adv-x="559" 
d="M276 724c93 0 171 -15 229 -47c9 -43 -16 -130 -54 -144c-44 38 -99 70 -156 70c-50 0 -82 -22 -82 -66c0 -43 40 -67 106 -104c116 -66 194 -120 194 -237c0 -113 -88 -210 -252 -210c-99 0 -173 20 -220 50c-14 43 15 144 54 166c45 -56 99 -92 158 -92
c62 0 91 36 91 76c0 72 -89 107 -149 141c-91 53 -150 109 -150 209c0 115 78 188 231 188zM248 -269c-23 -2 -51 29 -50 43c18 14 31 27 39 48c-36 8 -52 35 -52 65c0 37 37 64 80 64s88 -30 88 -87c0 -56 -39 -107 -105 -133z" />
    <glyph glyph-name="T" unicode="T" horiz-adv-x="575" 
d="M16 705l569 -5c12 -44 8 -110 -7 -153l-201 7l5 -548c-49 -13 -133 -19 -181 0l18 554l-203 -11c-20 41 -15 115 0 156z" />
    <glyph glyph-name="Tcaron" unicode="&#x164;" horiz-adv-x="575" 
d="M16 705l569 -5c12 -44 8 -110 -7 -153l-201 7l5 -548c-49 -13 -133 -19 -181 0l18 554l-203 -11c-20 41 -15 115 0 156zM308 856l134 51c18 -2 42 -40 40 -62l-121 -90c-22 -14 -85 -14 -109 0l-116 89c-5 17 17 63 40 64z" />
    <glyph glyph-name="Tcedilla" horiz-adv-x="575" 
d="M212 -73l28 70c-15 2 -28 4 -39 9l18 554l-203 -11c-20 41 -15 115 0 156l569 -5c12 -44 8 -110 -7 -153l-201 7l5 -548c-11 -3 -24 -6 -37 -7l-18 -38c57 -10 88 -37 88 -90c0 -92 -120 -128 -242 -69c-12 21 8 79 28 77c56 -19 100 -28 101 0c1 26 -43 42 -90 48z" />
    <glyph glyph-name="Tcommaaccent" unicode="&#x162;" horiz-adv-x="575" 
d="M16 705l569 -5c12 -44 8 -110 -7 -153l-201 7l5 -548c-49 -13 -133 -19 -181 0l18 554l-203 -11c-20 41 -15 115 0 156zM271 -279c-23 -2 -51 29 -50 43c18 14 31 27 39 48c-36 8 -52 35 -52 65c0 37 37 64 80 64s88 -30 88 -87c0 -56 -39 -107 -105 -133z" />
    <glyph glyph-name="Thorn" unicode="&#xde;" horiz-adv-x="627" 
d="M53 -3l13 323l6 371c9 21 129 26 156 9l-7 -88c34 3 68 4 96 4c168 0 291 -80 291 -236c0 -167 -139 -253 -276 -253c-38 0 -75 6 -113 20l6 -145c-46 -28 -118 -27 -172 -5zM225 481l1 -217c27 -9 54 -12 77 -12c83 0 143 45 143 120c0 69 -47 121 -137 121
c-26 0 -54 -3 -84 -12z" />
    <glyph glyph-name="Tilde" horiz-adv-x="366" 
d="M52 749c-32 4 -47 61 -43 82c15 30 51 64 106 64c57 0 91 -32 129 -32c24 0 41 9 57 29c16 2 55 -22 60 -50c-2 -56 -46 -100 -103 -100c-55 0 -85 33 -139 33c-26 0 -49 -13 -67 -26z" />
    <glyph glyph-name="U" unicode="U" horiz-adv-x="708" 
d="M64 255l8 434c26 21 135 25 167 9l-12 -392c-4 -136 21 -204 125 -204c93 0 116 79 122 207l16 391c25 13 144 11 165 -8l-24 -426c-12 -198 -125 -282 -291 -282c-145 0 -279 75 -276 271z" />
    <glyph glyph-name="Uacute" unicode="&#xda;" horiz-adv-x="708" 
d="M64 255l8 434c26 21 135 25 167 9l-12 -392c-4 -136 21 -204 125 -204c93 0 116 79 122 207l16 391c25 13 144 11 165 -8l-24 -426c-12 -198 -125 -282 -291 -282c-145 0 -279 75 -276 271zM435 938c42 -7 78 -89 63 -140l-195 -53c-22 4 -42 56 -40 82z" />
    <glyph glyph-name="Ubreve" unicode="&#x16c;" horiz-adv-x="708" 
d="M277 899c6 -26 32 -45 93 -45c60 0 84 20 92 45c15 13 95 3 102 -13c-7 -105 -91 -143 -197 -143c-101 0 -185 36 -195 143c11 22 90 27 105 13zM64 255l8 434c26 21 135 25 167 9l-12 -392c-4 -136 21 -204 125 -204c93 0 116 79 122 207l16 391c25 13 144 11 165 -8
l-24 -426c-12 -198 -125 -282 -291 -282c-145 0 -279 75 -276 271z" />
    <glyph glyph-name="Ucircumflex" unicode="&#xdb;" horiz-adv-x="708" 
d="M64 255l8 434c26 21 135 25 167 9l-12 -392c-4 -136 21 -204 125 -204c93 0 116 79 122 207l16 391c25 13 144 11 165 -8l-24 -426c-12 -198 -125 -282 -291 -282c-145 0 -279 75 -276 271zM361 786l-125 -43c-22 3 -42 37 -41 55l128 109c13 12 67 12 84 0l132 -109
c1 -18 -29 -53 -50 -54z" />
    <glyph glyph-name="Udieresis" unicode="&#xdc;" horiz-adv-x="708" 
d="M485 740c-36 13 -73 49 -88 84c15 32 54 70 90 82c36 -13 74 -49 89 -85c-12 -34 -53 -70 -91 -81zM249 742c-37 14 -73 49 -88 84c14 33 53 70 90 82c36 -14 75 -50 89 -85c-15 -36 -56 -70 -91 -81zM64 255l8 434c26 21 135 25 167 9l-12 -392
c-4 -136 21 -204 125 -204c93 0 116 79 122 207l16 391c25 13 144 11 165 -8l-24 -426c-12 -198 -125 -282 -291 -282c-145 0 -279 75 -276 271z" />
    <glyph glyph-name="Ugrave" unicode="&#xd9;" horiz-adv-x="708" 
d="M64 255l8 434c26 21 135 25 167 9l-12 -392c-4 -136 21 -204 125 -204c93 0 116 79 122 207l16 391c25 13 144 11 165 -8l-24 -426c-12 -198 -125 -282 -291 -282c-145 0 -279 75 -276 271zM273 931l170 -110c5 -28 -16 -79 -35 -83l-196 53c-17 53 20 132 61 140z" />
    <glyph glyph-name="Uhungarumlaut" unicode="&#x170;" horiz-adv-x="717" 
d="M64 255l8 434c26 21 135 25 167 9l-12 -392c-4 -136 21 -204 125 -204c93 0 116 79 122 207l16 391c25 13 144 11 165 -8l-24 -426c-12 -198 -125 -282 -291 -282c-145 0 -279 75 -276 271zM604 936c42 -7 76 -95 59 -140l-192 -53c-23 3 -42 55 -40 83zM334 936
c44 -9 76 -92 62 -140l-192 -53c-22 5 -43 53 -41 82z" />
    <glyph glyph-name="Umacron" unicode="&#x16a;" horiz-adv-x="708" 
d="M64 255l8 434c26 21 135 25 167 9l-12 -392c-4 -136 21 -204 125 -204c93 0 116 79 122 207l16 391c25 13 144 11 165 -8l-24 -426c-12 -198 -125 -282 -291 -282c-145 0 -279 75 -276 271zM210 854l302 8c19 -13 14 -103 0 -116h-294c-21 9 -25 97 -8 108z" />
    <glyph glyph-name="Uogonek" unicode="&#x172;" horiz-adv-x="708" 
d="M64 255l8 434c26 21 135 25 167 9l-12 -392c-4 -136 21 -204 125 -204c93 0 116 79 122 207l16 391c25 13 144 11 165 -8l-24 -426c-10 -157 -83 -243 -196 -271c-44 -26 -82 -63 -82 -91c0 -16 10 -29 30 -29c23 0 37 9 57 27c23 0 50 -39 45 -58
c-20 -35 -65 -72 -132 -72c-60 0 -129 23 -129 91c0 50 25 89 69 124c-126 15 -232 93 -229 268z" />
    <glyph glyph-name="Uring" unicode="&#x16e;" horiz-adv-x="708" 
d="M210 800c0 62 67 106 152 106c87 0 152 -44 152 -106c0 -64 -65 -110 -152 -110s-152 46 -152 110zM329 800c0 -21 16 -35 33 -35c19 0 33 15 33 35c0 19 -14 34 -33 34c-17 0 -33 -13 -33 -34zM64 255l8 434c26 21 135 25 167 9l-12 -392c-4 -136 21 -204 125 -204
c93 0 116 79 122 207l16 391c25 13 144 11 165 -8l-24 -426c-12 -198 -125 -282 -291 -282c-145 0 -279 75 -276 271z" />
    <glyph glyph-name="V" unicode="V" horiz-adv-x="648" 
d="M208 7l-197 665c20 28 138 42 176 36l124 -564l168 562c43 9 157 1 182 -25l-256 -675c-30 -23 -168 -20 -197 1z" />
    <glyph glyph-name="V.alt01" horiz-adv-x="660" 
d="M-38 666c19 22 65 43 119 43c66 0 134 -28 180 -120c50 -103 63 -271 63 -440c101 110 229 301 103 523c32 64 132 65 173 49c117 -341 -71 -560 -277 -730c-44 -12 -95 8 -126 36c-7 252 -35 396 -77 472c-30 54 -77 74 -127 62c-16 13 -37 72 -31 105z" />
    <glyph glyph-name="W" unicode="W" horiz-adv-x="954" 
d="M167 -3l-146 659c16 38 139 73 176 55l87 -578l103 455c23 35 136 56 180 41l119 -485l101 571c45 12 152 -14 172 -48l-190 -666c-31 -27 -165 -23 -199 -1l-102 448l-117 -452c-35 -23 -151 -17 -184 1z" />
    <glyph glyph-name="W.alt01" horiz-adv-x="941" 
d="M394 609c29 57 129 71 200 5c-2 -33 -20 -87 -36 -131c5 -97 48 -273 92 -350c89 83 107 227 107 316c0 86 -20 161 -54 219c25 50 113 70 173 54c13 -36 31 -123 31 -232c0 -232 -154 -520 -327 -505c-66 92 -108 206 -133 333c-46 -97 -82 -185 -118 -322
c-54 -20 -122 10 -136 43c-12 134 -23 371 -80 466c-38 64 -75 69 -119 57c-21 19 -37 76 -31 104c24 24 67 43 120 43c62 0 129 -30 172 -117c47 -98 52 -210 61 -364c23 106 43 160 80 253c-12 52 -23 88 -2 128z" />
    <glyph glyph-name="X" unicode="X" horiz-adv-x="622" 
d="M208 332l-173 292c19 36 120 81 173 86l117 -259l140 262c49 1 116 -43 138 -74l-196 -287l203 -313c-33 -35 -120 -64 -181 -64l-136 256l-145 -259c-40 3 -128 34 -140 60z" />
    <glyph glyph-name="X.alt01" horiz-adv-x="835" 
d="M44 565c-28 14 -44 74 -30 107c29 27 80 47 137 47c75 0 140 -33 234 -265l113 161c28 43 27 71 21 93c35 20 112 10 134 -10c20 -30 30 -78 -33 -151l-161 -200l113 -230c79 -163 140 -192 201 -192c48 0 75 28 94 63c35 3 83 -35 89 -72c-16 -70 -97 -133 -188 -133
c-118 0 -221 41 -328 261l-96 195l-129 -174c-27 -38 -37 -67 -39 -89c-40 -1 -98 27 -113 67c-2 21 3 57 37 99l174 216l-72 142c-34 67 -56 84 -95 84c-25 0 -47 -10 -63 -19z" />
    <glyph glyph-name="Y" unicode="Y" horiz-adv-x="617" 
d="M226 263l-215 380c14 43 112 84 166 76l140 -365l138 363c49 16 159 -25 178 -59l-246 -405l1 -257c-34 -15 -145 -18 -178 1z" />
    <glyph glyph-name="Yacute" unicode="&#xdd;" horiz-adv-x="617" 
d="M226 263l-215 380c14 43 112 84 166 76l140 -365l138 363c49 16 159 -25 178 -59l-246 -405l1 -257c-34 -15 -145 -18 -178 1zM419 938c42 -7 78 -89 63 -140l-195 -53c-22 4 -42 56 -40 82z" />
    <glyph glyph-name="Ydieresis" unicode="&#x178;" horiz-adv-x="617" 
d="M226 263l-215 380c14 43 112 84 166 76l140 -365l138 363c49 16 159 -25 178 -59l-246 -405l1 -257c-34 -15 -145 -18 -178 1zM440 740c-36 13 -73 49 -88 84c15 32 54 70 90 82c36 -13 74 -49 89 -85c-12 -34 -53 -70 -91 -81zM204 742c-37 14 -73 49 -88 84
c14 33 53 70 90 82c36 -14 75 -50 89 -85c-15 -36 -56 -70 -91 -81z" />
    <glyph glyph-name="Z" unicode="Z" horiz-adv-x="587" 
d="M356 573l-286 -22c-22 20 -24 127 -10 152l490 -4l12 -84l-324 -467l288 13c24 -28 28 -129 4 -159l-477 -2l-28 88z" />
    <glyph glyph-name="Zacute" unicode="&#x179;" horiz-adv-x="587" 
d="M356 573l-286 -22c-22 20 -24 127 -10 152l490 -4l12 -84l-324 -467l288 13c24 -28 28 -129 4 -159l-477 -2l-28 88zM403 938c42 -7 78 -89 63 -140l-195 -53c-22 4 -42 56 -40 82z" />
    <glyph glyph-name="Zcaron" unicode="&#x17d;" horiz-adv-x="587" 
d="M356 573l-286 -22c-22 20 -24 127 -10 152l490 -4l12 -84l-324 -467l288 13c24 -28 28 -129 4 -159l-477 -2l-28 88zM323 855l134 51c18 -2 42 -40 40 -62l-121 -90c-22 -14 -85 -14 -109 0l-116 89c-5 17 17 63 40 64z" />
    <glyph glyph-name="Zdotaccent" unicode="&#x17b;" horiz-adv-x="587" 
d="M329 743c-39 14 -72 46 -89 84c14 33 55 72 92 81c38 -15 73 -47 90 -85c-17 -37 -57 -71 -93 -80zM356 573l-286 -22c-22 20 -24 127 -10 152l490 -4l12 -84l-324 -467l288 13c24 -28 28 -129 4 -159l-477 -2l-28 88z" />
    <glyph glyph-name="a" unicode="a" horiz-adv-x="604" 
d="M530 500c-9 -168 -12 -276 -12 -328c0 -61 19 -69 57 -63c15 -14 11 -80 -9 -99c-16 -10 -37 -20 -79 -20c-56 0 -95 36 -104 81c-35 -52 -70 -87 -150 -87c-99 0 -200 71 -200 247c0 180 100 282 218 282c67 0 115 -29 139 -64l19 56c14 8 110 6 121 -5zM381 368
c-21 18 -54 32 -88 32c-61 0 -102 -64 -102 -161c0 -91 33 -140 92 -140c34 0 64 21 88 46z" />
    <glyph glyph-name="aacute" unicode="&#xe1;" horiz-adv-x="604" 
d="M530 500c-9 -168 -12 -276 -12 -328c0 -61 19 -69 57 -63c15 -14 11 -80 -9 -99c-16 -10 -37 -20 -79 -20c-56 0 -95 36 -104 81c-35 -52 -70 -87 -150 -87c-99 0 -200 71 -200 247c0 180 100 282 218 282c67 0 115 -29 139 -64l19 56c14 8 110 6 121 -5zM381 368
c-21 18 -54 32 -88 32c-61 0 -102 -64 -102 -161c0 -91 33 -140 92 -140c34 0 64 21 88 46zM298 729c22 17 128 9 152 -22l-116 -141c-24 -8 -76 9 -79 21z" />
    <glyph glyph-name="abreve" unicode="&#x103;" horiz-adv-x="585" 
d="M511 500c-9 -168 -12 -276 -12 -328c0 -61 19 -69 57 -63c15 -14 11 -80 -9 -99c-16 -10 -37 -20 -79 -20c-56 0 -95 36 -104 81c-35 -52 -70 -87 -150 -87c-99 0 -200 71 -200 247c0 180 100 282 218 282c67 0 115 -29 139 -64l19 56c14 8 110 6 121 -5zM362 368
c-21 18 -54 32 -88 32c-61 0 -102 -64 -102 -161c0 -91 33 -140 92 -140c34 0 64 21 88 46zM201 719c12 -41 43 -65 99 -65c54 0 83 22 98 65c17 12 75 3 84 -13c-13 -113 -92 -156 -184 -156c-91 0 -171 39 -181 156c10 22 72 26 84 13z" />
    <glyph glyph-name="acircumflex" unicode="&#xe2;" horiz-adv-x="604" 
d="M530 500c-9 -168 -12 -276 -12 -328c0 -61 19 -69 57 -63c15 -14 11 -80 -9 -99c-16 -10 -37 -20 -79 -20c-56 0 -95 36 -104 81c-35 -52 -70 -87 -150 -87c-99 0 -200 71 -200 247c0 180 100 282 218 282c67 0 115 -29 139 -64l19 56c14 8 110 6 121 -5zM381 368
c-21 18 -54 32 -88 32c-61 0 -102 -64 -102 -161c0 -91 33 -140 92 -140c34 0 64 21 88 46zM312 623l-88 -74c-23 -8 -64 16 -64 29l117 155c18 15 62 12 80 0l120 -153c-6 -17 -39 -38 -75 -30z" />
    <glyph glyph-name="acute" unicode="&#xb4;" horiz-adv-x="262" 
d="M121 729c22 17 128 9 152 -22l-116 -141c-24 -8 -76 9 -79 21z" />
    <glyph glyph-name="adieresis" unicode="&#xe4;" horiz-adv-x="604" 
d="M530 500c-9 -168 -12 -276 -12 -328c0 -61 19 -69 57 -63c15 -14 11 -80 -9 -99c-16 -10 -37 -20 -79 -20c-56 0 -95 36 -104 81c-35 -52 -70 -87 -150 -87c-99 0 -200 71 -200 247c0 180 100 282 218 282c67 0 115 -29 139 -64l19 56c14 8 110 6 121 -5zM381 368
c-21 18 -54 32 -88 32c-61 0 -102 -64 -102 -161c0 -91 33 -140 92 -140c34 0 64 21 88 46zM425 569c-37 13 -73 51 -87 86c14 37 58 69 92 78c36 -14 75 -49 89 -85c-14 -34 -60 -70 -94 -79zM191 570c-36 14 -70 50 -87 86c14 34 57 70 92 79c35 -12 75 -53 88 -86
c-14 -34 -58 -69 -93 -79z" />
    <glyph glyph-name="ae" unicode="&#xe6;" horiz-adv-x="876" 
d="M518 222c0 -69 29 -115 126 -115c66 0 113 22 155 53c26 -19 40 -57 25 -102c-56 -47 -142 -73 -238 -68c-84 4 -149 37 -188 95c-35 -63 -99 -101 -161 -101c-100 0 -204 70 -204 235c0 191 101 294 231 294c83 0 139 -26 176 -62c48 41 114 61 188 61
c166 0 221 -78 221 -152c0 -163 -190 -175 -331 -138zM355 245c0 53 10 98 29 136c-27 14 -60 19 -82 19c-61 0 -111 -68 -111 -167c0 -84 32 -134 82 -134c39 0 68 21 91 63c-6 25 -9 53 -9 83zM515 288c49 -8 177 -14 177 62c0 44 -24 65 -65 65c-92 0 -107 -70 -112 -127
z" />
    <glyph glyph-name="afii10017" unicode="&#x410;" horiz-adv-x="669" 
d="M432 695l228 -649c-30 -35 -119 -56 -177 -54l-48 194l-222 -9l-59 -187c-52 -8 -140 8 -164 40l267 667c45 20 134 14 175 -2zM241 295l172 6l-73 273z" />
    <glyph glyph-name="afii10018" unicode="&#x411;" horiz-adv-x="634" 
d="M71 708l500 -11c16 -33 8 -118 -8 -143l-333 25l-10 -156c42 7 84 10 121 10c193 0 263 -100 263 -205c0 -161 -101 -251 -311 -251c-64 0 -155 11 -240 34zM212 317l-8 -215c30 -12 64 -17 96 -17c79 0 140 42 140 130c0 69 -45 114 -138 114c-28 0 -59 -4 -90 -12z" />
    <glyph glyph-name="afii10019" unicode="&#x412;" horiz-adv-x="652" 
d="M53 37l34 646c73 21 164 31 228 31c157 0 268 -60 268 -171c0 -83 -60 -136 -148 -169c114 -17 187 -77 187 -170c0 -150 -154 -218 -324 -218c-73 0 -177 16 -245 51zM237 596l-6 -170c20 -3 37 -4 50 -4c74 0 130 29 130 101c0 51 -35 85 -99 85c-23 0 -46 -4 -75 -12z
M229 317l-16 -190c32 -17 63 -24 96 -24c75 0 138 39 138 110c0 81 -74 106 -163 106c-19 0 -40 0 -55 -2z" />
    <glyph glyph-name="afii10020" unicode="&#x413;" horiz-adv-x="492" 
d="M233 7c-47 -27 -129 -27 -180 -15l16 712l425 10c13 -30 8 -122 -12 -155l-256 8z" />
    <glyph glyph-name="afii10021" unicode="&#x414;" horiz-adv-x="756" 
d="M-5 -180l2 300c18 4 48 7 68 9c84 100 125 268 135 575c124 15 347 7 461 -11l-30 -566c27 -2 62 -5 90 -9l-23 -303c-24 -10 -105 -12 -138 2l2 177c-160 19 -277 23 -421 2v-167c-31 -15 -110 -21 -146 -9zM338 571c-13 -177 -43 -334 -105 -433c70 5 164 3 232 -2
l29 437c-47 8 -113 7 -156 -2z" />
    <glyph glyph-name="afii10022" unicode="&#x415;" horiz-adv-x="571" 
d="M86 701l430 5c16 -27 15 -97 -7 -125l-266 2l-12 -150l245 15c20 -30 19 -106 1 -135l-247 -3l4 -186l288 28c26 -30 24 -112 2 -147l-471 -10z" />
    <glyph glyph-name="afii10023" unicode="&#x401;" horiz-adv-x="571" 
d="M428 746c-34 16 -59 43 -77 77c16 31 46 61 79 74c34 -17 60 -44 78 -77c-17 -35 -49 -62 -80 -74zM201 748c-34 16 -59 43 -77 77c16 31 46 61 79 74c34 -17 60 -44 78 -77c-17 -35 -49 -62 -80 -74zM86 701l430 5c16 -27 15 -97 -7 -125l-266 2l-12 -150l245 15
c20 -30 19 -106 1 -135l-247 -3l4 -186l288 28c26 -30 24 -112 2 -147l-471 -10z" />
    <glyph glyph-name="afii10024" unicode="&#x416;" horiz-adv-x="950" 
d="M598 680l-57 -263l69 3l154 271c47 7 134 -2 175 -28l-218 -272l223 -359c-37 -28 -115 -46 -179 -41l-150 318l-60 -8l8 -310c-47 -12 -122 -18 -167 -4l10 321h-66l-165 -325c-49 -2 -141 13 -183 51l237 340l-170 305c49 18 134 30 185 20l96 -275l67 -13l15 279
c44 8 136 3 176 -10z" />
    <glyph glyph-name="afii10025" unicode="&#x417;" horiz-adv-x="561" 
d="M62 538c-24 28 -34 83 -26 121c52 34 137 56 225 56c149 0 259 -58 259 -187c0 -70 -53 -140 -136 -153l1 -5c91 -25 135 -102 135 -186c0 -129 -113 -206 -268 -206c-79 0 -159 18 -238 58c-5 33 2 99 26 126c67 -42 133 -62 192 -62c68 0 121 32 121 95
c0 101 -111 109 -206 104c-11 30 -12 82 8 113l32 1c88 3 169 13 169 97c0 54 -39 79 -103 79c-51 0 -120 -18 -191 -51z" />
    <glyph glyph-name="afii10026" unicode="&#x418;" horiz-adv-x="745" 
d="M251 681l-36 -466l307 473c41 15 123 15 163 -1l-2 -675c-47 -17 -132 -21 -179 -10l48 474l-332 -485c-45 -8 -140 0 -167 33l17 662c46 9 137 8 181 -5z" />
    <glyph glyph-name="afii10027" unicode="&#x419;" horiz-adv-x="745" 
d="M154 888c14 13 128 11 139 -3c-11 -46 16 -81 91 -81c90 0 109 36 98 82c18 16 124 18 142 4c33 -140 -106 -183 -245 -183c-131 0 -254 39 -225 181zM251 681l-36 -466l307 473c41 15 123 15 163 -1l-2 -675c-47 -17 -132 -21 -179 -10l48 474l-332 -485
c-45 -8 -140 0 -167 33l17 662c46 9 137 8 181 -5z" />
    <glyph glyph-name="afii10028" unicode="&#x41a;" horiz-adv-x="651" 
d="M66 705c22 11 157 9 180 -3l-27 -307l62 18l162 295c52 12 165 -1 188 -50l-240 -284l257 -347c-19 -35 -149 -63 -191 -48l-172 320l-71 -5l3 -306c-23 -14 -139 -15 -164 -1z" />
    <glyph glyph-name="afii10029" unicode="&#x41b;" horiz-adv-x="701" 
d="M645 700l-34 -701c-48 -20 -130 -20 -179 -6l38 588c-40 10 -96 15 -137 4c-28 -266 -24 -539 -183 -592c-43 -14 -112 -14 -154 20c-10 44 18 140 42 167c11 -8 25 -11 41 -11c62 0 94 143 120 542c121 15 332 7 446 -11z" />
    <glyph glyph-name="afii10030" unicode="&#x41c;" horiz-adv-x="899" 
d="M346 695l105 -356l159 361c38 12 141 15 175 1l69 -682c-43 -25 -119 -35 -168 -29l-45 530l-141 -338c-31 -29 -113 -45 -144 -30l-109 374l-60 -522c-46 -17 -133 -14 -170 10l131 677c42 16 157 16 198 4z" />
    <glyph glyph-name="afii10031" unicode="&#x41d;" horiz-adv-x="742" 
d="M278 706l-30 -256l266 3l-9 244c41 16 139 16 181 3l-38 -702c-38 -14 -138 -9 -177 2l39 305l-278 4l-7 -298c-37 -18 -130 -18 -172 -10l43 702c39 14 137 16 182 3z" />
    <glyph glyph-name="afii10032" unicode="&#x41e;" horiz-adv-x="730" 
d="M369 719c193 1 321 -125 321 -352c0 -228 -139 -387 -336 -387c-191 0 -318 91 -318 366c0 201 128 372 333 373zM207 345c0 -129 20 -233 149 -233c116 0 164 102 164 261c0 131 -26 217 -155 217c-102 0 -158 -91 -158 -245z" />
    <glyph glyph-name="afii10033" unicode="&#x41f;" horiz-adv-x="725" 
d="M669 701l-7 -710c-44 -14 -138 -19 -182 -2l16 576l-252 4l-16 -578c-42 -12 -128 -16 -175 -1l25 721z" />
    <glyph glyph-name="afii10034" unicode="&#x420;" 
d="M53 -3l26 692c71 19 157 27 225 27c188 0 307 -82 307 -240c0 -159 -140 -250 -278 -250c-38 0 -77 7 -110 20l2 -244c-40 -29 -129 -27 -172 -5zM227 581l1 -218c25 -7 52 -12 78 -12c81 0 143 45 143 127c0 68 -50 114 -136 114c-28 0 -55 -3 -86 -11z" />
    <glyph glyph-name="afii10035" unicode="&#x421;" horiz-adv-x="630" 
d="M399 705c97 0 172 -30 219 -85c-3 -42 -36 -101 -76 -105c-42 35 -83 47 -130 47c-109 0 -199 -89 -199 -221c0 -148 80 -225 196 -225c40 0 84 8 131 29c26 -22 43 -87 27 -122c-64 -31 -142 -43 -210 -43c-215 0 -321 149 -321 346c0 264 193 379 363 379z" />
    <glyph glyph-name="afii10036" unicode="&#x422;" horiz-adv-x="575" 
d="M16 705l569 -5c12 -44 8 -110 -7 -153l-201 7l5 -548c-49 -13 -133 -19 -181 0l18 554l-203 -11c-20 41 -15 115 0 156z" />
    <glyph glyph-name="afii10037" unicode="&#x423;" horiz-adv-x="656" 
d="M223 711l141 -425l117 426c45 19 148 3 186 -27l-205 -491c-50 -129 -116 -210 -216 -210c-58 0 -124 22 -159 58c-2 50 27 119 65 142c18 -26 47 -46 77 -46c17 0 32 8 44 27l-263 509c37 33 143 50 213 37z" />
    <glyph glyph-name="afii10038" unicode="&#x424;" horiz-adv-x="933" 
d="M555 715l-8 -86c28 5 58 8 91 8c170 0 258 -106 258 -270c0 -167 -91 -294 -281 -294c-27 0 -50 2 -79 6l-1 -98c-36 -22 -137 -26 -174 -7l4 110c-25 -4 -51 -6 -73 -6c-194 0 -262 113 -262 284c0 138 82 286 350 271l4 98c40 11 128 5 171 -16zM548 508l-12 -306
c17 -2 35 -4 49 -4c104 0 140 76 140 180c0 84 -28 139 -107 139c-18 0 -42 -2 -70 -9zM375 197l7 320c-20 3 -33 4 -44 4c-86 0 -132 -59 -132 -163c0 -131 62 -172 169 -161z" />
    <glyph glyph-name="afii10039" unicode="&#x425;" horiz-adv-x="622" 
d="M208 332l-173 292c19 36 120 81 173 86l117 -259l140 262c49 1 116 -43 138 -74l-196 -287l203 -313c-33 -35 -120 -64 -181 -64l-136 256l-145 -259c-40 3 -128 34 -140 60z" />
    <glyph glyph-name="afii10040" unicode="&#x426;" horiz-adv-x="741" 
d="M58 -11l5 712c35 12 140 10 180 0l-19 -564l230 -8l21 563c38 16 148 19 188 7l-33 -562l78 -5l2 -325c-36 -12 -134 -7 -167 15l7 176z" />
    <glyph glyph-name="afii10041" unicode="&#x427;" horiz-adv-x="623" 
d="M24 457c1 57 9 126 28 239c36 15 145 6 171 -17c-13 -39 -36 -119 -38 -189c-1 -42 6 -73 21 -94c21 -26 51 -34 83 -34c36 0 72 8 109 21c0 0 4 266 5 308c38 11 123 17 163 10l-21 -720c-27 -14 -147 -11 -172 7l19 283c-42 -23 -97 -36 -166 -36
c-61 0 -117 14 -156 51c-35 33 -48 93 -46 171z" />
    <glyph glyph-name="afii10042" unicode="&#x428;" horiz-adv-x="1002" 
d="M53 -7l13 707c43 12 138 12 179 1l-23 -558l173 -15s15 503 17 561c47 12 132 12 180 0l-31 -556l194 18c0 1 21 494 22 538c42 11 126 18 169 9l-40 -696s-790 -8 -853 -9z" />
    <glyph glyph-name="afii10043" unicode="&#x429;" horiz-adv-x="1024" 
d="M819 -180l9 181l-775 -8l13 704c38 17 143 14 179 1l-24 -555l175 -16s15 504 17 562c41 15 137 15 179 0l-32 -555l195 15c0 1 19 496 21 540c38 14 133 20 173 9l-38 -589h76l2 -303c-37 -13 -138 -4 -170 14z" />
    <glyph glyph-name="afii10044" unicode="&#x42a;" horiz-adv-x="732" 
d="M350 707l-15 -255c43 17 87 25 129 25c139 0 244 -82 244 -222c0 -196 -133 -277 -303 -277c-79 0 -178 14 -254 51l33 536l-169 -19c-20 33 -18 126 4 157zM334 339l-14 -211c26 -11 52 -16 80 -16c75 0 138 46 138 128c0 61 -34 113 -115 113c-29 0 -58 -4 -89 -14z
" />
    <glyph glyph-name="afii10045" unicode="&#x42b;" horiz-adv-x="913" 
d="M856 685l-50 -689c-37 -19 -122 -17 -159 0l29 698c50 13 130 9 180 -9zM252 701l-18 -250c42 13 74 19 107 19c142 0 241 -76 241 -216c0 -187 -112 -276 -283 -276c-77 0 -174 15 -246 47l15 676c54 10 130 14 184 0zM231 340l-12 -209c25 -11 50 -15 75 -15
c74 0 127 50 127 128c0 60 -37 107 -115 107c-24 0 -48 -3 -75 -11z" />
    <glyph glyph-name="afii10046" unicode="&#x42c;" horiz-adv-x="628" 
d="M249 701l-18 -247c47 17 91 23 130 23c136 0 242 -78 242 -218c0 -193 -126 -281 -296 -281c-78 0 -181 17 -254 50l9 673c49 13 141 16 187 0zM229 337l-11 -205c28 -13 55 -17 83 -17c76 0 136 49 136 124c0 63 -36 114 -117 114c-26 0 -55 -4 -91 -16z" />
    <glyph glyph-name="afii10047" unicode="&#x42d;" horiz-adv-x="653" 
d="M148 430l296 -12c-4 101 -68 164 -163 164c-57 0 -119 -14 -205 -57c-29 32 -41 93 -31 131c84 39 163 56 245 56c213 0 322 -117 322 -348s-146 -375 -374 -375c-76 0 -143 10 -216 33c-10 39 -3 101 22 130c61 -19 111 -28 171 -28c140 0 220 71 233 177l-304 -6
c-18 30 -17 103 4 135z" />
    <glyph glyph-name="afii10048" unicode="&#x42e;" horiz-adv-x="975" 
d="M226 7c-37 -24 -130 -20 -173 -4l27 701c43 4 134 9 175 -13l-25 -280l104 10c39 181 142 292 308 292c187 0 292 -116 292 -350c0 -250 -131 -374 -320 -374c-183 0 -280 111 -297 309l-94 -2s3 -273 3 -289zM480 342c0 -134 26 -231 132 -231c115 0 165 104 165 258
c0 139 -32 217 -138 217c-103 0 -159 -98 -159 -244z" />
    <glyph glyph-name="afii10049" unicode="&#x42f;" horiz-adv-x="665" 
d="M609 688l-29 -688c-34 -12 -121 -16 -157 -7l15 281l-76 -3c-59 -113 -126 -214 -201 -288c-57 -5 -144 17 -165 60c88 80 165 162 227 251c-81 21 -155 77 -155 195c0 161 161 219 331 219c72 0 154 -8 210 -20zM444 381l9 215c-23 5 -48 6 -68 6
c-96 0 -154 -43 -154 -113c0 -72 58 -115 147 -115c20 0 44 2 66 7z" />
    <glyph glyph-name="afii10050" unicode="&#x490;" horiz-adv-x="493" 
d="M232 7c-39 -28 -137 -27 -179 -13l14 710l295 7l10 83c16 18 100 23 119 9c18 -55 13 -195 -10 -243l-257 7z" />
    <glyph glyph-name="afii10051" unicode="&#x402;" horiz-adv-x="712" 
d="M13 705l546 -5c16 -38 10 -116 -7 -153l-217 7l2 -176c43 32 100 54 161 54c141 0 183 -93 183 -189c0 -155 -80 -249 -175 -300c-34 -5 -83 49 -85 81c59 46 104 111 104 197c0 66 -28 90 -91 90c-32 0 -63 -9 -95 -28l4 -277c-43 -14 -139 -19 -181 0l15 554l-163 -11
c-22 34 -19 122 -1 156z" />
    <glyph glyph-name="afii10052" unicode="&#x403;" horiz-adv-x="484" 
d="M233 7c-47 -27 -129 -27 -180 -15l16 712l425 10c13 -30 8 -122 -12 -155l-256 8zM340 936c42 -7 78 -89 63 -140l-195 -53c-22 4 -42 56 -40 82z" />
    <glyph glyph-name="afii10053" unicode="&#x404;" horiz-adv-x="632" 
d="M393 705c93 0 169 -27 218 -72c-2 -42 -26 -99 -69 -114c-44 33 -91 46 -140 46c-85 0 -163 -52 -188 -145l254 2c25 -22 16 -126 -8 -149l-248 8c22 -109 94 -160 187 -160c43 0 89 9 137 30c30 -33 40 -92 23 -130c-67 -27 -139 -41 -196 -41c-220 0 -327 143 -327 363
c0 247 187 362 357 362z" />
    <glyph glyph-name="afii10054" unicode="&#x405;" horiz-adv-x="559" 
d="M276 724c93 0 171 -15 229 -47c9 -43 -16 -130 -54 -144c-44 38 -99 70 -156 70c-50 0 -82 -22 -82 -66c0 -43 40 -67 106 -104c116 -66 194 -120 194 -237c0 -113 -88 -210 -252 -210c-99 0 -173 20 -220 50c-14 43 15 144 54 166c45 -56 99 -92 158 -92
c62 0 91 36 91 76c0 72 -89 107 -149 141c-91 53 -150 109 -150 209c0 115 78 188 231 188z" />
    <glyph glyph-name="afii10055" unicode="&#x406;" horiz-adv-x="410" 
d="M135 580l-75 4c-17 16 -16 101 3 116h307c20 -29 16 -99 -5 -128l-79 4l-10 -458l71 -4c19 -20 22 -95 -1 -114h-308c-17 20 -11 105 7 125l64 -1z" />
    <glyph glyph-name="afii10056" unicode="&#x407;" horiz-adv-x="422" 
d="M325 737c-35 14 -68 46 -83 85c16 32 60 66 93 76c36 -17 69 -52 84 -85c-15 -35 -61 -67 -94 -76zM107 739c-35 14 -68 49 -84 85c16 30 60 66 94 76c36 -17 69 -52 84 -85c-15 -34 -60 -67 -94 -76zM136 580l-75 4c-17 16 -16 101 3 116h307c20 -29 16 -99 -5 -128
l-79 4l-10 -458l71 -4c19 -20 22 -95 -1 -114h-308c-17 20 -11 105 7 125l64 -1z" />
    <glyph glyph-name="afii10057" unicode="&#x408;" horiz-adv-x="344" 
d="M100 211l5 473c26 24 150 30 182 3l-32 -517c-12 -190 -85 -315 -242 -336c-30 13 -42 79 -32 111c99 43 118 108 119 266z" />
    <glyph glyph-name="afii10058" unicode="&#x409;" horiz-adv-x="986" 
d="M423 -7l43 588c-46 9 -92 16 -135 5c-28 -281 -29 -547 -193 -592c-50 -14 -121 -2 -144 24c-1 49 18 136 41 163c11 -9 23 -12 41 -12c62 0 94 144 121 542c122 16 329 7 443 -11l-14 -242c39 11 73 16 106 16c118 0 229 -68 229 -221c0 -193 -126 -275 -291 -275
c-93 0 -170 3 -247 15zM688 355c-25 0 -44 -3 -69 -11l-13 -225c21 -7 41 -9 64 -9c71 0 128 44 128 136c0 70 -34 109 -110 109z" />
    <glyph glyph-name="afii10059" unicode="&#x40a;" horiz-adv-x="1001" 
d="M439 0h-1l39 315l-245 -6l-8 -297c-47 -20 -127 -21 -171 -8l43 698c43 16 137 17 181 3l-28 -255l231 7l-8 240c46 17 133 16 181 3l-13 -240c39 8 75 12 118 12c120 0 218 -84 218 -221c0 -187 -124 -273 -294 -273c-85 0 -175 7 -243 22zM706 354c-23 0 -48 -2 -72 -5
l-13 -230c22 -7 42 -9 66 -9c72 0 127 51 127 130c0 68 -33 114 -108 114z" />
    <glyph glyph-name="afii10060" unicode="&#x40b;" horiz-adv-x="727" 
d="M9 705l521 -5c21 -30 8 -134 -6 -151l-192 7l-3 -167c43 25 107 39 171 39c137 0 196 -67 196 -209c0 -57 -7 -120 -23 -229c-39 -16 -147 -9 -177 17c14 41 34 114 34 184c0 68 -20 113 -94 113c-34 0 -75 -10 -113 -23v-275c-38 -15 -129 -22 -167 -10l15 565l-161 -11
c-20 24 -17 131 -1 155z" />
    <glyph glyph-name="afii10061" unicode="&#x40c;" horiz-adv-x="594" 
d="M66 705c22 11 157 9 180 -3l-27 -307l62 18l162 295c52 12 165 -1 188 -50l-240 -284l257 -347c-19 -35 -149 -63 -191 -48l-172 320l-71 -5l3 -306c-23 -14 -139 -15 -164 -1zM408 935c42 -7 78 -89 63 -140l-195 -53c-22 4 -42 56 -40 82z" />
    <glyph glyph-name="afii10062" unicode="&#x40e;" horiz-adv-x="631" 
d="M139 895c14 13 128 11 139 -3c-10 -46 16 -81 91 -81c91 0 109 36 99 82c18 16 123 18 141 4c33 -140 -105 -179 -245 -179c-131 0 -254 35 -225 177zM223 711l141 -425l117 426c45 19 148 3 186 -27l-205 -491c-50 -129 -116 -210 -216 -210c-58 0 -124 22 -159 58
c-2 50 27 119 65 142c18 -26 47 -46 77 -46c17 0 32 8 44 27l-263 509c37 33 143 50 213 37z" />
    <glyph glyph-name="afii10065" unicode="&#x430;" horiz-adv-x="604" 
d="M530 500c-9 -168 -12 -276 -12 -328c0 -61 19 -69 57 -63c15 -14 11 -80 -9 -99c-16 -10 -37 -20 -79 -20c-56 0 -95 36 -104 81c-35 -52 -70 -87 -150 -87c-99 0 -200 71 -200 247c0 180 100 282 218 282c67 0 115 -29 139 -64l19 56c14 8 110 6 121 -5zM381 368
c-21 18 -54 32 -88 32c-61 0 -102 -64 -102 -161c0 -91 33 -140 92 -140c34 0 64 21 88 46z" />
    <glyph glyph-name="afii10066" unicode="&#x431;" horiz-adv-x="606" 
d="M465 720c20 -6 47 -28 52 -54c-33 -230 -299 -14 -330 -295c41 62 105 98 177 98c136 0 209 -86 209 -219c0 -173 -114 -266 -264 -266c-180 0 -268 87 -268 295c0 503 358 360 424 441zM326 355c-56 0 -93 -30 -133 -63c-2 -150 34 -201 112 -201c64 0 107 63 107 151
c0 80 -41 113 -86 113z" />
    <glyph glyph-name="afii10067" unicode="&#x432;" horiz-adv-x="553" 
d="M36 219c0 175 90 299 272 299c115 0 187 -37 187 -117c0 -58 -43 -106 -93 -129c74 -3 115 -53 115 -112c0 -109 -107 -170 -244 -170c-120 0 -237 51 -237 229zM289 428c-61 0 -95 -55 -101 -135c103 19 156 34 156 89c0 27 -16 46 -55 46zM190 206
c0 -70 24 -118 93 -118c33 0 85 17 85 67c0 41 -30 66 -59 78c-33 -6 -80 -20 -119 -27z" />
    <glyph glyph-name="afii10068" unicode="&#x433;" horiz-adv-x="472" 
d="M84 345c-26 15 -60 75 -53 101c46 39 136 68 212 68c104 0 159 -47 159 -124c0 -127 -179 -183 -179 -250c0 -25 15 -37 44 -37c37 0 75 28 111 79c24 -4 67 -55 68 -97c-62 -74 -138 -102 -220 -102c-100 0 -176 42 -176 128c0 135 189 184 189 260c0 19 -13 28 -39 28
c-34 0 -77 -19 -116 -54z" />
    <glyph glyph-name="afii10069" unicode="&#x434;" horiz-adv-x="594" 
d="M274 467c49 0 96 -14 133 -42c-8 114 -50 171 -121 171c-51 0 -101 -37 -131 -77c-49 12 -89 71 -87 107c39 50 133 92 233 92c174 0 262 -118 262 -314c0 -247 -107 -422 -282 -422c-164 0 -248 123 -248 238c0 143 96 247 241 247zM282 91c79 0 118 92 125 247
c-33 17 -70 26 -101 26c-58 0 -116 -35 -116 -136c0 -97 41 -137 92 -137z" />
    <glyph glyph-name="afii10070" unicode="&#x435;" horiz-adv-x="574" 
d="M195 222c-1 -71 47 -115 139 -115c55 0 112 19 157 53c25 -15 39 -60 24 -102c-56 -47 -145 -73 -237 -68c-140 8 -245 89 -245 257c0 161 115 265 285 265c169 0 223 -77 223 -154c0 -152 -191 -176 -346 -136zM192 288c55 -8 191 -10 191 65c0 38 -23 62 -66 62
c-89 0 -120 -66 -125 -127z" />
    <glyph glyph-name="afii10071" unicode="&#x451;" horiz-adv-x="567" 
d="M426 569c-38 13 -72 50 -87 86c12 32 53 68 91 78c39 -14 76 -50 89 -86c-14 -34 -58 -68 -93 -78zM192 570c-37 14 -71 50 -87 86c15 35 55 68 91 79c36 -13 74 -51 89 -86c-15 -35 -59 -70 -93 -79zM195 222c-1 -71 47 -115 139 -115c55 0 112 19 157 53
c25 -15 39 -60 24 -102c-56 -47 -145 -73 -237 -68c-140 8 -245 89 -245 257c0 161 115 265 285 265c169 0 223 -77 223 -154c0 -152 -191 -176 -346 -136zM192 288c55 -8 191 -10 191 65c0 38 -23 62 -66 62c-89 0 -120 -66 -125 -127z" />
    <glyph glyph-name="afii10072" unicode="&#x436;" horiz-adv-x="846" 
d="M528 499l-30 -194l50 -2l115 197c36 14 125 7 155 -13l-157 -217c56 -113 87 -166 128 -166c6 0 13 1 18 2c13 -12 24 -50 20 -79c-16 -24 -47 -40 -85 -40c-85 0 -134 54 -199 238l-51 -2l14 -228c-46 -15 -126 -16 -166 -7l10 226l-64 4l-113 -218
c-48 -14 -130 -11 -157 28l144 231c-42 122 -70 138 -101 128c-14 20 -23 58 -22 77c20 26 59 43 97 43c70 0 116 -46 159 -213l50 2l-6 205c52 11 141 8 191 -2z" />
    <glyph glyph-name="afii10073" unicode="&#x437;" horiz-adv-x="519" 
d="M45 463c54 28 142 43 210 43c132 0 213 -38 215 -125c2 -62 -34 -111 -104 -126c92 -22 121 -79 119 -135c-4 -110 -104 -147 -244 -146c-92 1 -186 27 -214 60c-6 56 13 92 35 103c50 -33 110 -49 151 -50c55 -2 91 6 107 42c10 25 -5 57 -51 64c-36 5 -71 -5 -112 -6
c-13 28 -21 77 0 106c42 0 66 1 95 0c38 -1 61 23 61 48c2 38 -43 54 -80 55c-54 1 -129 -24 -167 -43c-25 30 -33 79 -21 110z" />
    <glyph glyph-name="afii10073.alt01" horiz-adv-x="529" 
d="M112 369c-29 37 -28 111 -5 137h364c29 -6 50 -49 44 -90l-187 -216c132 -78 214 -164 214 -278c0 -19 -3 -39 -8 -58c149 -55 294 -120 401 -120c83 0 125 49 121 105c45 30 147 7 140 -73c-7 -78 -94 -138 -214 -138c-150 0 -318 75 -484 153
c-53 -74 -147 -125 -256 -125s-232 38 -232 147c0 147 199 170 378 102v1c0 100 -105 171 -181 220c-17 13 -27 59 -19 80l162 182c-79 -41 -170 -66 -238 -29zM244 -227c54 0 97 27 121 65c-112 51 -202 35 -202 -17c0 -26 29 -48 81 -48z" />
    <glyph glyph-name="afii10074" unicode="&#x438;" 
d="M230 505l-18 -255c-6 -87 6 -141 77 -141c35 0 73 22 100 57c-1 111 7 223 19 337c43 17 112 10 147 0c-13 -115 -21 -224 -16 -328c2 -52 7 -79 55 -67c14 -17 9 -69 -5 -90c-17 -15 -45 -28 -83 -28c-50 0 -95 16 -104 92c-40 -50 -92 -91 -176 -91
c-121 0 -176 72 -169 209l12 294c48 16 115 22 161 11z" />
    <glyph glyph-name="afii10075" unicode="&#x439;" 
d="M165 701c15 17 109 15 122 -3c-10 -45 13 -62 49 -62c52 0 89 23 122 54c37 -6 62 -40 70 -57c-34 -42 -100 -91 -206 -91c-120 0 -198 59 -157 159zM230 505l-18 -255c-6 -87 6 -141 77 -141c35 0 73 22 100 57c-1 111 7 223 19 337c43 17 112 10 147 0
c-13 -115 -21 -224 -16 -328c2 -52 7 -79 55 -67c14 -17 9 -69 -5 -90c-17 -15 -45 -28 -83 -28c-50 0 -95 16 -104 92c-40 -50 -92 -91 -176 -91c-121 0 -176 72 -169 209l12 294c48 16 115 22 161 11z" />
    <glyph glyph-name="afii10076" unicode="&#x43a;" horiz-adv-x="588" 
d="M215 9c-15 -20 -141 -25 -161 -5l25 481c14 22 138 36 157 21l-18 -211l53 12l114 195c38 11 150 1 164 -20l-161 -218c48 -116 92 -161 129 -161c14 0 26 3 39 11c20 -10 27 -57 17 -90c-29 -30 -66 -39 -103 -39c-97 0 -153 73 -216 231l-40 -2z" />
    <glyph glyph-name="afii10077" unicode="&#x43b;" horiz-adv-x="646" 
d="M22 12c-14 15 -1 101 20 121c70 -20 113 48 131 254l-64 -12c-18 18 -26 101 3 125h278c155 0 180 -56 176 -156l-6 -184c-2 -51 8 -59 56 -48c9 -14 13 -50 3 -76c-20 -26 -50 -47 -116 -47c-70 0 -100 46 -96 114l8 213c2 42 -12 67 -41 69l-78 5
c-16 -299 -79 -400 -185 -400c-41 0 -62 9 -89 22z" />
    <glyph glyph-name="afii10078" unicode="&#x43c;" horiz-adv-x="863" 
d="M46 121c82 -24 122 72 135 243l-54 -4c-27 21 -41 93 -29 124c22 15 68 23 121 23c104 0 208 -57 246 -208h9c40 146 140 243 313 199c-22 -199 -30 -289 -19 -343c7 -34 24 -53 53 -46c16 -13 23 -58 16 -83c-17 -21 -50 -37 -91 -37c-46 0 -97 20 -117 88
c-20 70 -11 157 9 291c-52 -16 -106 -155 -115 -247c-22 -25 -95 -51 -133 -40c-25 160 -65 234 -108 261c-12 -260 -68 -353 -174 -353c-33 0 -67 12 -87 40c-7 25 3 74 25 92z" />
    <glyph glyph-name="afii10079" unicode="&#x43d;" horiz-adv-x="642" 
d="M61 499c33 14 126 14 163 2l-15 -191h191c0 65 -2 125 5 187c26 21 139 19 161 3c-13 -104 -17 -229 -17 -307c0 -80 15 -93 60 -80c13 -11 15 -61 3 -85c-16 -23 -55 -39 -91 -39c-105 0 -134 60 -122 221l-189 -6l7 -202c-19 -16 -144 -19 -163 0z" />
    <glyph glyph-name="afii10080" unicode="&#x43e;" horiz-adv-x="600" 
d="M305 512c190 0 262 -112 262 -247c0 -166 -95 -281 -271 -280c-201 0 -263 133 -263 250c0 189 135 277 272 277zM195 233c0 -81 23 -145 99 -145c88 0 113 74 113 176c0 80 -20 141 -99 141c-66 0 -113 -56 -113 -172z" />
    <glyph glyph-name="afii10081" unicode="&#x43f;" horiz-adv-x="627" 
d="M547 315l-5 -167c-1 -33 3 -49 55 -36c12 -16 14 -62 1 -82c-23 -24 -64 -40 -110 -40c-70 0 -104 34 -101 125l7 172c3 75 -25 96 -76 96c-37 0 -74 -24 -102 -61l-3 -322c-26 -11 -133 -16 -159 0c7 202 24 321 9 496c18 21 127 24 151 12l7 -90c47 67 116 94 176 94
c130 0 154 -89 150 -197z" />
    <glyph glyph-name="afii10082" unicode="&#x440;" horiz-adv-x="612" 
d="M222 507l7 -75c42 46 89 80 167 80c95 0 183 -57 183 -227c0 -241 -149 -335 -365 -270l-12 -238c-37 -16 -122 -16 -156 -6c14 241 40 482 26 725c37 19 112 20 150 11zM224 327l-7 -204c134 -61 197 19 197 146c0 81 -26 118 -86 118c-38 0 -71 -18 -104 -60z" />
    <glyph glyph-name="afii10083" unicode="&#x441;" horiz-adv-x="535" 
d="M514 384c-3 -51 -74 -81 -134 -70c-10 49 -32 84 -80 84c-60 0 -102 -53 -102 -147c0 -122 112 -182 277 -104c19 -27 27 -67 12 -102c-50 -39 -129 -54 -189 -54c-187 0 -265 123 -265 254c0 185 131 262 259 265c147 4 201 -58 222 -126z" />
    <glyph glyph-name="afii10084" unicode="&#x442;" horiz-adv-x="931" 
d="M697 110l7 176c2 67 -17 98 -67 98c-37 0 -79 -29 -100 -61v-18l-10 -303c-38 -20 -130 -19 -152 -4l7 290c2 70 -21 95 -66 95c-33 0 -72 -17 -101 -65l-4 -318c-26 -11 -131 -16 -157 0c7 202 24 321 9 496c18 21 125 24 149 12l8 -86c41 56 93 90 171 90
c63 0 121 -29 130 -100c46 62 101 100 180 100c127 0 165 -93 158 -210l-8 -154c-1 -33 12 -49 50 -38c11 -14 12 -68 2 -88c-19 -23 -54 -35 -96 -35c-81 0 -113 36 -110 123z" />
    <glyph glyph-name="afii10085" unicode="&#x443;" horiz-adv-x="599" 
d="M243 504c-49 -264 -34 -406 53 -406c44 0 76 32 82 134c3 68 6 168 8 275c26 12 144 2 166 -19c-20 -147 -28 -293 -28 -442c0 -285 -137 -320 -265 -320c-117 0 -220 45 -220 141c0 62 42 117 118 151c-55 34 -84 99 -91 180c-7 82 -5 159 11 289c25 24 133 30 166 17z
M263 -8c-7 0 -13 0 -19 1c-32 -29 -46 -62 -46 -94c0 -35 21 -67 79 -67c81 0 108 56 108 234c-37 -57 -86 -74 -122 -74z" />
    <glyph glyph-name="afii10086" unicode="&#x444;" horiz-adv-x="813" 
d="M340 472l5 227c42 19 122 14 167 2l-18 -258c43 37 82 62 135 62c105 0 151 -97 151 -222c0 -171 -71 -292 -200 -292c-42 0 -78 11 -103 38l-2 -269c-29 -17 -143 -14 -162 1l9 287c-27 -31 -60 -52 -115 -52c-114 0 -174 116 -174 249c0 194 100 275 188 275
c48 0 87 -18 119 -48zM190 248c0 -86 21 -138 73 -138c19 0 40 7 62 27l11 249c-18 12 -44 21 -71 21c-58 0 -75 -89 -75 -159zM482 351l-6 -235c17 -13 34 -20 60 -20c54 0 89 78 89 156c0 72 -18 130 -67 130c-24 0 -52 -13 -76 -31z" />
    <glyph glyph-name="afii10087" unicode="&#x445;" horiz-adv-x="564" 
d="M17 36c23 81 100 158 181 219l-104 143c-11 16 -26 24 -41 27c-10 45 28 96 89 92c40 -2 73 -14 101 -76l59 -110c48 57 65 110 108 177c45 12 119 1 135 -33c-13 -62 -92 -150 -172 -214l103 -143c17 -25 39 -36 60 -34c17 -38 2 -102 -72 -105c-43 -2 -95 13 -134 90
l-66 116c-51 -54 -80 -133 -113 -197c-41 -6 -117 15 -134 48z" />
    <glyph glyph-name="afii10088" unicode="&#x446;" horiz-adv-x="646" 
d="M229 505l-18 -260c-6 -83 7 -134 76 -134c37 0 78 23 104 57c-1 111 7 221 19 335c40 13 109 10 149 0c-13 -115 -19 -216 -16 -324c2 -48 13 -82 70 -67c12 -1 13 -24 10 -37c-24 -62 -42 -148 -43 -245c-25 -15 -111 -13 -133 20c-5 47 10 115 46 157
c-44 -16 -87 -2 -87 75c-42 -49 -92 -91 -176 -91c-133 0 -178 84 -173 199l13 304c47 14 109 20 159 11z" />
    <glyph glyph-name="afii10089" unicode="&#x447;" horiz-adv-x="559" 
d="M192 505l-8 -126c-4 -60 12 -101 59 -101c38 0 66 19 84 50c2 29 9 113 11 175c39 16 114 11 151 0c-13 -115 -20 -221 -16 -327c2 -48 4 -81 57 -67c14 -14 10 -72 -6 -92c-19 -15 -46 -27 -84 -27c-71 0 -140 34 -116 246c-28 -37 -75 -68 -152 -68
c-89 0 -151 57 -145 179l7 147c27 18 107 21 158 11z" />
    <glyph glyph-name="afii10090" unicode="&#x448;" horiz-adv-x="895" 
d="M529 505l-18 -260c-6 -81 3 -130 57 -130c35 0 68 22 87 57c-1 111 7 216 19 330c29 13 109 13 150 0c-13 -115 -16 -244 -16 -302c0 -77 4 -104 55 -91c14 -14 12 -69 -2 -89c-17 -19 -48 -30 -84 -30c-57 0 -100 23 -107 88c-45 -54 -87 -87 -167 -87
c-65 0 -107 33 -126 82c-49 -47 -97 -82 -178 -82c-117 0 -148 83 -142 214l13 289c35 14 107 21 157 11l-18 -260c-6 -84 4 -130 59 -130c34 0 70 22 89 57c0 6 0 12 1 18l13 304c28 14 110 22 158 11z" />
    <glyph glyph-name="afii10091" unicode="&#x449;" horiz-adv-x="909" 
d="M528 505l-18 -260c-6 -84 6 -130 58 -130c37 0 67 22 87 57c-1 111 7 217 19 331c28 11 105 12 149 0c-13 -115 -15 -231 -15 -298c0 -81 11 -109 63 -96c10 -2 18 -25 12 -40c-25 -60 -40 -163 -40 -240c-39 -20 -116 -7 -135 16c-9 50 13 116 44 164
c-43 -22 -82 1 -82 69c-44 -52 -85 -87 -166 -87c-67 0 -109 33 -128 82c-49 -48 -95 -82 -178 -82c-115 0 -147 84 -141 206l12 297c40 14 122 20 158 11l-18 -260c-6 -84 5 -130 58 -130c36 0 71 24 89 57c0 6 0 12 1 18l13 304c29 14 108 21 158 11z" />
    <glyph glyph-name="afii10092" unicode="&#x44a;" horiz-adv-x="572" 
d="M168 399c-52 -19 -88 -30 -136 -31c-25 22 -28 115 -10 133c139 -17 237 -13 308 13c17 -8 36 -65 30 -86c-32 -22 -66 -64 -77 -101c153 47 252 -22 252 -144c0 -114 -88 -190 -227 -190c-136 0 -209 75 -209 181c0 79 24 152 69 225zM261 243c-23 -110 17 -147 60 -147
c34 0 65 21 65 74c0 56 -46 88 -125 73z" />
    <glyph glyph-name="afii10093" unicode="&#x44b;" horiz-adv-x="796" 
d="M233 497l-14 -150c118 43 285 10 285 -147c0 -131 -80 -212 -229 -212c-126 0 -231 46 -217 246l18 270c13 12 115 16 157 -7zM214 254c-17 -89 -3 -163 64 -163c44 0 69 32 69 85c0 71 -64 97 -133 78zM725 502l-19 -305c-5 -70 12 -90 50 -79c13 -17 21 -58 15 -84
c-21 -26 -64 -41 -108 -41c-80 0 -119 46 -114 159l13 351c27 9 121 10 163 -1z" />
    <glyph glyph-name="afii10094" unicode="&#x44c;" horiz-adv-x="561" 
d="M231 502l-7 -158c150 56 301 8 301 -148c0 -144 -120 -207 -246 -207c-139 0 -231 58 -222 253l12 258c48 13 125 10 162 2zM218 247c-15 -114 14 -156 71 -156c40 0 73 23 73 86c0 74 -72 97 -144 70z" />
    <glyph glyph-name="afii10095" unicode="&#x44d;" horiz-adv-x="549" 
d="M111 344c-33 10 -70 67 -56 103c48 35 129 60 208 60c167 0 253 -99 253 -256c0 -186 -131 -268 -274 -268c-104 0 -186 29 -215 72c0 29 41 80 70 90c34 -31 79 -46 139 -46c72 0 124 34 126 90c-89 14 -147 14 -185 0c-22 18 -37 80 -24 104c46 30 136 23 205 0
c-1 59 -46 97 -111 97c-49 0 -93 -17 -136 -46z" />
    <glyph glyph-name="afii10096" unicode="&#x44e;" horiz-adv-x="778" 
d="M233 492l-16 -198l65 11c17 98 81 204 234 204c159 0 230 -102 229 -238c-1 -182 -87 -292 -247 -289c-132 3 -210 78 -218 216l-68 -10l1 -192c-44 -9 -117 -16 -159 0l19 493c42 19 119 16 160 3zM419 253c-6 -89 16 -162 98 -156c54 4 68 79 71 160
c3 60 0 135 -71 140c-66 4 -92 -57 -98 -144z" />
    <glyph glyph-name="afii10097" unicode="&#x44f;" horiz-adv-x="577" 
d="M513 328l-6 -172c-2 -53 20 -51 39 -49c7 -15 15 -63 6 -83c-23 -19 -51 -31 -89 -31c-90 0 -122 75 -103 219l-63 -17c-41 -145 -98 -205 -183 -205c-37 0 -69 14 -82 32c-8 20 -1 69 16 87c56 -14 94 27 125 107c-70 14 -117 62 -117 137c0 104 100 160 241 160
c160 0 220 -83 216 -185zM365 298c9 79 -16 121 -82 121c-41 0 -72 -23 -72 -67c0 -63 57 -94 154 -54z" />
    <glyph glyph-name="afii10098" unicode="&#x491;" horiz-adv-x="432" 
d="M53 5l11 323c8 171 110 191 236 175l33 70c22 16 89 3 98 -12c3 -49 -14 -152 -31 -189c-135 28 -191 17 -191 -122l2 -240c-24 -27 -143 -25 -158 -5z" />
    <glyph glyph-name="afii10099" unicode="&#x452;" horiz-adv-x="630" 
d="M25 495l91 1l8 193c16 26 120 30 156 18l-11 -210l289 3c14 -29 18 -95 -3 -115l-292 8l-5 -109c44 37 98 58 168 58c135 0 173 -94 169 -214l-2 -74c-7 -180 -90 -286 -288 -281c-32 20 -29 111 -15 137c99 -9 151 24 157 145l2 57c2 79 -23 107 -85 107
c-37 0 -81 -16 -110 -38v-180c-22 -13 -130 -18 -156 0l14 382l-90 -17c-24 22 -14 109 3 129z" />
    <glyph glyph-name="afii10100" unicode="&#x453;" horiz-adv-x="456" 
d="M84 345c39 35 82 54 116 54c26 0 39 -9 39 -28c0 -76 -189 -125 -189 -260c0 -86 76 -128 176 -128c82 0 158 28 220 102c-1 42 -44 93 -68 97c-36 -51 -74 -79 -111 -79c-29 0 -44 12 -44 37c0 67 179 123 179 250c0 77 -55 124 -159 124c-76 0 -166 -29 -212 -68
c-7 -26 27 -86 53 -101zM227 729c22 17 128 9 152 -22l-116 -141c-24 -8 -76 9 -79 21z" />
    <glyph glyph-name="afii10101" unicode="&#x454;" horiz-adv-x="526" 
d="M506 394c-8 -45 -89 -67 -129 -65c-12 42 -33 69 -72 69c-61 1 -95 -32 -105 -97l173 1c13 -18 8 -87 -7 -102l-161 5c27 -96 130 -125 264 -58c19 -20 28 -73 11 -102c-55 -43 -114 -54 -200 -54c-171 0 -247 121 -247 255c0 166 126 261 253 264
c153 4 199 -52 220 -116z" />
    <glyph glyph-name="afii10102" unicode="&#x455;" horiz-adv-x="532" 
d="M492 477c9 -37 -15 -106 -44 -118c-29 23 -111 46 -148 46c-41 0 -74 -10 -74 -36c0 -70 270 -66 270 -231c0 -75 -61 -152 -229 -152c-69 0 -185 22 -230 52c-10 29 10 107 45 127c44 -38 131 -71 183 -71c45 0 73 10 73 38c0 64 -276 67 -276 239c0 96 94 141 216 141
c81 0 172 -12 214 -35z" />
    <glyph glyph-name="afii10103" unicode="&#x456;" horiz-adv-x="322" 
d="M235 494l-15 -314c-3 -66 9 -81 60 -66c15 -15 15 -65 0 -93c-23 -22 -74 -35 -110 -34c-59 1 -109 26 -106 126l11 385c43 11 118 12 160 -4zM159 575c-59 0 -91 42 -91 77c0 53 44 88 101 88c61 0 92 -35 92 -72c0 -69 -55 -93 -102 -93z" />
    <glyph glyph-name="afii10104" unicode="&#x457;" horiz-adv-x="350" 
d="M69 574c-37 19 -64 50 -82 88c20 34 54 65 91 78c37 -20 64 -51 82 -89c-20 -37 -57 -65 -91 -77zM263 574c-36 19 -63 50 -81 88c19 34 54 65 91 78c37 -20 64 -51 82 -89c-20 -37 -57 -65 -92 -77zM243 494l-15 -304c-3 -67 2 -93 59 -76c15 -15 15 -66 0 -94
c-23 -18 -67 -34 -109 -33c-63 1 -110 31 -107 125l12 386c42 11 119 12 160 -4z" />
    <glyph glyph-name="afii10105" unicode="&#x458;" horiz-adv-x="396" 
d="M307 -47c-7 -137 -74 -192 -185 -192c-97 0 -180 34 -180 132c0 101 99 180 225 220c3 138 2 248 -9 384c27 16 149 15 168 2c-6 -187 -10 -373 -19 -546zM241 575c-60 0 -93 41 -93 77c0 52 42 88 103 88c60 0 94 -34 94 -74c0 -68 -54 -91 -104 -91zM123 -125
c29 0 37 30 41 136c0 11 0 22 1 33c-48 -36 -71 -87 -71 -120s11 -49 29 -49z" />
    <glyph glyph-name="afii10106" unicode="&#x459;" horiz-adv-x="892" 
d="M23 12c-15 17 -2 101 19 121c71 -18 112 44 131 254l-64 -12c-20 18 -24 106 3 125h287c139 0 165 -65 161 -151l-1 -14c31 11 72 21 114 21c114 0 182 -63 182 -161c0 -131 -93 -203 -230 -203c-158 0 -224 68 -219 246l3 78c1 42 -12 66 -41 69l-72 5
c-16 -305 -84 -400 -184 -400c-42 0 -63 8 -89 22zM620 246c-20 0 -38 -4 -66 -12c-4 -104 20 -143 70 -143c45 0 72 33 72 85c0 42 -21 70 -76 70z" />
    <glyph glyph-name="afii10107" unicode="&#x45a;" horiz-adv-x="877" 
d="M61 499c30 11 125 10 163 2l-15 -191h178c0 65 -1 129 5 187c22 18 137 19 159 3c-3 -68 -6 -112 -9 -160c27 12 66 24 110 24c134 0 189 -79 189 -165c0 -118 -92 -209 -240 -209c-104 0 -216 28 -215 221l-176 -6l7 -205c-19 -16 -145 -17 -163 0zM596 254
c-26 0 -45 -6 -61 -14c-5 -119 22 -149 75 -149c43 0 71 29 71 86c0 50 -31 77 -85 77z" />
    <glyph glyph-name="afii10108" unicode="&#x45b;" horiz-adv-x="640" 
d="M94 690c18 21 114 30 153 20l-3 -69l132 3c20 -6 15 -77 1 -90l-138 -9l-5 -118c47 57 103 85 172 85c120 0 154 -83 150 -196l-7 -175c-2 -42 34 -35 60 -28c11 -14 14 -63 0 -87c-23 -21 -61 -37 -116 -37c-61 0 -103 32 -101 109c0 33 5 93 10 179
c4 81 -20 106 -72 106c-37 0 -67 -18 -100 -52l-7 -331c-25 -11 -128 -16 -155 0l20 535l-71 -4c-22 14 -25 94 -8 105l83 2z" />
    <glyph glyph-name="afii10109" unicode="&#x45c;" horiz-adv-x="588" 
d="M215 9c-15 -20 -141 -25 -161 -5l25 481c14 22 138 36 157 21l-18 -211l53 12l114 195c38 11 150 1 164 -20l-161 -218c48 -116 92 -161 129 -161c14 0 26 3 39 11c20 -10 27 -57 17 -90c-29 -30 -66 -39 -103 -39c-97 0 -153 73 -216 231l-40 -2zM279 729
c22 17 128 9 152 -22l-116 -141c-24 -8 -76 9 -79 21z" />
    <glyph glyph-name="afii10110" unicode="&#x45e;" horiz-adv-x="599" 
d="M243 504c-49 -264 -34 -406 53 -406c44 0 76 32 82 134c3 68 6 168 8 275c26 12 144 2 166 -19c-20 -147 -28 -293 -28 -442c0 -285 -137 -320 -265 -320c-117 0 -220 45 -220 141c0 62 42 117 118 151c-55 34 -84 99 -91 180c-7 82 -5 159 11 289c25 24 133 30 166 17z
M167 701c15 17 109 15 122 -3c-10 -45 13 -62 49 -62c52 0 89 23 122 54c37 -6 62 -40 70 -57c-34 -42 -100 -91 -205 -91c-121 0 -199 59 -158 159zM263 -8c-7 0 -13 0 -19 1c-32 -29 -46 -62 -46 -94c0 -35 21 -67 79 -67c81 0 108 56 108 234c-37 -57 -86 -74 -122 -74z
" />
    <glyph glyph-name="afii10145" unicode="&#x40f;" horiz-adv-x="735" 
d="M682 705l-37 -706l-213 -2l13 -159c-15 -32 -162 -32 -174 -5l16 163l-234 -2l25 712c44 19 137 15 177 -1l-25 -568l253 4l20 566c41 21 141 14 179 -2z" />
    <glyph glyph-name="afii10193" unicode="&#x45f;" horiz-adv-x="604" 
d="M228 -2l-175 2l7 494c40 21 127 21 162 8l-21 -381l183 -4l13 375c34 20 118 20 159 -1l-32 -497l-178 3l7 -125c-8 -20 -131 -20 -139 7z" />
    <glyph glyph-name="afii61352" unicode="&#x2116;" horiz-adv-x="1237" 
d="M74 673l-21 -666c31 -14 121 -19 152 -2l-5 348l-15 138l7 7l49 -117l239 -402c38 -10 120 -2 148 25l44 693c-29 18 -135 14 -162 -1l2 -366l12 -134l-8 -4l-47 120l-231 386c-45 12 -147 2 -164 -25zM974 722c127 -1 209 -79 207 -198c-2 -137 -87 -216 -214 -215
c-159 1 -227 99 -220 222c7 127 100 192 227 191zM869 526c-7 -70 28 -122 97 -120c70 2 95 55 95 117c0 61 -24 98 -89 103c-59 6 -97 -28 -103 -100zM756 249l409 15c18 -13 5 -113 -16 -128l-420 -2c-11 16 7 108 27 115z" />
    <glyph glyph-name="agrave" unicode="&#xe0;" horiz-adv-x="604" 
d="M530 500c-9 -168 -12 -276 -12 -328c0 -61 19 -69 57 -63c15 -14 11 -80 -9 -99c-16 -10 -37 -20 -79 -20c-56 0 -95 36 -104 81c-35 -52 -70 -87 -150 -87c-99 0 -200 71 -200 247c0 180 100 282 218 282c67 0 115 -29 139 -64l19 56c14 8 110 6 121 -5zM381 368
c-21 18 -54 32 -88 32c-61 0 -102 -64 -102 -161c0 -91 33 -140 92 -140c34 0 64 21 88 46zM334 729l37 -142c-7 -18 -45 -30 -76 -22l-110 144c21 27 131 44 149 20z" />
    <glyph glyph-name="amacron" unicode="&#x101;" horiz-adv-x="604" 
d="M530 500c-9 -168 -12 -276 -12 -328c0 -61 19 -69 57 -63c15 -14 11 -80 -9 -99c-16 -10 -37 -20 -79 -20c-56 0 -95 36 -104 81c-35 -52 -70 -87 -150 -87c-99 0 -200 71 -200 247c0 180 100 282 218 282c67 0 115 -29 139 -64l19 56c14 8 110 6 121 -5zM381 368
c-21 18 -54 32 -88 32c-61 0 -102 -64 -102 -161c0 -91 33 -140 92 -140c34 0 64 21 88 46zM177 689l275 8c21 -10 16 -92 0 -111h-267c-22 12 -27 91 -8 103z" />
    <glyph glyph-name="ampersand" unicode="&#x26;" horiz-adv-x="786" 
d="M36 159c0 86 54 152 123 202c-41 52 -71 106 -71 168c0 123 104 183 213 183c130 0 203 -56 203 -154c0 -85 -74 -156 -169 -206c36 -41 75 -76 115 -106c13 28 27 70 36 115l237 28c16 -16 0 -125 -29 -144l-124 21c-8 -31 -23 -62 -35 -82c71 -55 136 -100 221 -154
c-12 -33 -107 -69 -158 -55c-37 17 -89 51 -145 95c-57 -60 -119 -85 -209 -85c-129 0 -208 58 -208 174zM372 135c-54 45 -109 99 -157 157c-30 -41 -45 -89 -45 -121c0 -70 51 -97 91 -97c42 0 79 23 111 61zM222 533c0 -40 22 -80 61 -129c38 29 95 85 95 148
c0 49 -35 72 -76 72c-46 0 -80 -33 -80 -91z" />
    <glyph glyph-name="aogonek" unicode="&#x105;" horiz-adv-x="604" 
d="M530 500c-9 -168 -12 -276 -12 -328c0 -61 19 -69 57 -63c15 -14 11 -80 -9 -99c-13 -8 -28 -16 -55 -19c-45 -24 -79 -60 -79 -89c0 -16 10 -29 30 -29c21 0 41 10 59 28c19 3 46 -30 41 -54c-22 -39 -63 -75 -131 -75c-58 0 -118 29 -118 96c0 63 44 108 106 144
c-19 15 -32 36 -36 59c-35 -52 -70 -87 -150 -87c-99 0 -200 71 -200 247c0 180 100 282 218 282c67 0 115 -29 139 -64l19 56c14 8 110 6 121 -5zM381 368c-21 18 -54 32 -88 32c-61 0 -102 -64 -102 -161c0 -91 33 -140 92 -140c34 0 64 21 88 46z" />
    <glyph glyph-name="aring" unicode="&#xe5;" horiz-adv-x="604" 
d="M530 500c-9 -168 -12 -276 -12 -328c0 -61 19 -69 57 -63c15 -14 11 -80 -9 -99c-16 -10 -37 -20 -79 -20c-56 0 -95 36 -104 81c-35 -52 -70 -87 -150 -87c-99 0 -200 71 -200 247c0 180 100 282 218 282c67 0 115 -29 139 -64l19 56c14 8 110 6 121 -5zM381 368
c-21 18 -54 32 -88 32c-61 0 -102 -64 -102 -161c0 -91 33 -140 92 -140c34 0 64 21 88 46zM186 649c0 59 59 99 131 99s131 -40 131 -99c0 -60 -58 -99 -131 -99c-72 0 -131 39 -131 99zM280 649c0 -23 17 -39 37 -39s36 15 36 39c0 23 -16 39 -36 39s-37 -16 -37 -39z" />
    <glyph glyph-name="asciicircum" unicode="^" horiz-adv-x="572" 
d="M231 734c25 21 114 17 124 1c0 0 162 -258 162 -259c-9 -27 -110 -49 -136 -32l-91 176l-93 -175c-30 -22 -125 1 -140 28z" />
    <glyph glyph-name="asciitilde" unicode="~" horiz-adv-x="513" 
d="M84 236c-20 8 -44 51 -43 76c13 58 71 94 125 94c66 0 137 -37 185 -37c31 0 52 13 69 36c20 -2 51 -32 53 -57c-6 -66 -42 -120 -109 -120c-72 0 -137 41 -199 41c-35 0 -61 -11 -81 -33z" />
    <glyph glyph-name="asterisk" unicode="*" horiz-adv-x="465" 
d="M130 507l79 -66l-82 -119c-42 -4 -95 79 -90 120zM201 399l83 70l97 -102c0 -35 -83 -81 -131 -64zM193 614l-36 -99l-133 42c-13 26 43 118 86 127zM322 449l-35 94l131 66c35 -17 37 -111 18 -140zM313 573l-100 5l-7 138c23 20 119 2 141 -27z" />
    <glyph glyph-name="at" unicode="@" horiz-adv-x="965" 
d="M701 473c-9 -103 -17 -193 -22 -294c-1 -23 18 -38 35 -38c54 0 99 70 99 192c0 184 -113 284 -299 284c-158 0 -359 -101 -359 -370c0 -255 200 -304 318 -304c50 0 124 12 161 30c21 -12 32 -46 32 -73c0 -7 -2 -26 -8 -34c-37 -15 -103 -29 -179 -29
c-181 0 -439 73 -439 411c0 285 221 465 493 465c231 0 392 -128 392 -372c0 -195 -110 -302 -226 -302c-63 0 -130 23 -137 122c-33 -81 -80 -124 -155 -124c-92 0 -162 63 -162 200c0 136 83 276 255 276c76 0 169 -18 201 -40zM560 410c-16 9 -30 11 -43 11
c-76 0 -119 -87 -119 -186c0 -66 32 -94 62 -94c29 0 66 43 84 105z" />
    <glyph glyph-name="atilde" unicode="&#xe3;" horiz-adv-x="604" 
d="M530 500c-9 -168 -12 -276 -12 -328c0 -61 19 -69 57 -63c15 -14 11 -80 -9 -99c-16 -10 -37 -20 -79 -20c-56 0 -95 36 -104 81c-35 -52 -70 -87 -150 -87c-99 0 -200 71 -200 247c0 180 100 282 218 282c67 0 115 -29 139 -64l19 56c14 8 110 6 121 -5zM381 368
c-21 18 -54 32 -88 32c-61 0 -102 -64 -102 -161c0 -91 33 -140 92 -140c34 0 64 21 88 46zM185 574c-29 2 -49 56 -44 78c12 33 52 63 98 63c53 0 87 -31 125 -31c24 0 35 8 49 27c17 4 58 -16 62 -44c-3 -62 -44 -99 -94 -99c-57 0 -83 32 -135 32c-25 0 -44 -12 -61 -26z
" />
    <glyph glyph-name="b" unicode="b" horiz-adv-x="616" 
d="M55 221l16 459c21 19 132 16 158 1l-15 -254c42 40 100 69 169 69c119 0 200 -79 200 -227c0 -180 -105 -291 -285 -291c-107 0 -249 50 -243 243zM215 336l-2 -101c-3 -107 45 -138 99 -138c70 0 106 60 106 173c0 70 -28 116 -90 116c-39 0 -76 -19 -113 -50z" />
    <glyph glyph-name="backslash" unicode="\" horiz-adv-x="462" 
d="M145 757l291 -729c-7 -24 -108 -52 -135 -42l-292 723c19 33 114 61 136 48z" />
    <glyph glyph-name="bar" unicode="|" horiz-adv-x="312" 
d="M88 711c10 21 125 17 146 -7l2 -920c-20 -25 -151 -20 -159 9z" />
    <glyph glyph-name="braceleft" unicode="{" horiz-adv-x="387" 
d="M340 726c19 -12 23 -75 6 -98c-24 -7 -66 -15 -78 -48c-21 -56 23 -170 -5 -248c-13 -37 -50 -52 -105 -64v-10c47 -9 90 -31 100 -64c24 -86 -34 -243 -16 -292c7 -19 34 -28 57 -35c11 -28 -5 -80 -18 -90c-41 -8 -165 -4 -185 48c-26 64 28 183 15 292
c-7 61 -35 86 -74 99c-15 16 -15 70 0 88c38 10 70 39 81 96c19 98 -20 217 9 273c28 52 145 57 213 53z" />
    <glyph glyph-name="braceright" unicode="}" horiz-adv-x="372" 
d="M67 726c67 3 180 -3 201 -53c25 -57 -22 -174 -11 -272c7 -57 44 -86 82 -96c11 -18 10 -72 -4 -89c-41 -13 -78 -38 -89 -99c-19 -109 25 -228 -5 -292c-25 -51 -150 -56 -196 -48c-10 8 -21 62 -10 90c24 7 62 15 72 34c24 47 -26 207 4 293c12 33 48 55 95 64v10
c-53 12 -81 27 -92 64c-22 78 31 193 14 245c-13 38 -47 43 -73 51c-13 21 -4 90 12 98z" />
    <glyph glyph-name="bracketleft" unicode="[" horiz-adv-x="392" 
d="M351 709c17 -23 1 -106 -14 -125c-23 5 -66 7 -94 7l-36 -674c28 -1 87 2 117 9c9 -16 6 -105 -9 -129c-64 -14 -214 -10 -259 -1l35 911c47 11 200 13 260 2z" />
    <glyph glyph-name="bracketright" unicode="]" horiz-adv-x="382" 
d="M42 -198c-16 23 -6 107 9 126c24 -7 71 -9 100 -9l25 664c-35 0 -84 -3 -113 -11c-10 16 -10 112 4 136c68 13 211 8 259 1l-17 -905c-48 -10 -200 -14 -267 -2z" />
    <glyph glyph-name="breve" unicode="&#x2d8;" horiz-adv-x="494" 
d="M146 719c12 -41 43 -65 99 -65c54 0 83 22 98 65c17 12 75 3 84 -13c-13 -113 -92 -156 -184 -156c-91 0 -171 39 -181 156c10 22 72 26 84 13z" />
    <glyph glyph-name="brokenbar" unicode="&#xa6;" horiz-adv-x="279" 
d="M57 705c23 30 148 33 177 7l-18 -349c-18 -29 -133 -30 -156 -1zM222 -166c-18 -33 -140 -39 -173 -8l18 351c18 25 133 24 152 1z" />
    <glyph glyph-name="bullet" unicode="&#x2022;" horiz-adv-x="607" 
d="M152 371c0 81 72 149 162 149c89 0 161 -68 161 -149c0 -82 -72 -148 -161 -148c-90 0 -162 66 -162 148zM248 467c-31 -18 -41 -44 -29 -58c16 -16 58 -9 83 7c28 18 37 39 27 54c-10 16 -45 18 -81 -3zM438 366c1 9 -15 7 -17 0c-10 -40 -27 -60 -61 -78
c-26 -14 -55 -16 -84 -12c-4 1 -9 -16 -2 -18c25 -6 63 -13 99 6c25 13 60 45 65 102z" />
    <glyph glyph-name="c" unicode="c" horiz-adv-x="535" 
d="M514 384c-3 -51 -74 -81 -134 -70c-10 49 -32 84 -80 84c-60 0 -102 -53 -102 -147c0 -122 112 -182 277 -104c19 -27 27 -67 12 -102c-50 -39 -129 -54 -189 -54c-187 0 -265 123 -265 254c0 185 131 262 259 265c147 4 201 -58 222 -126z" />
    <glyph glyph-name="cacute" unicode="&#x107;" horiz-adv-x="535" 
d="M514 384c-3 -51 -74 -81 -134 -70c-10 49 -32 84 -80 84c-60 0 -102 -53 -102 -147c0 -122 112 -182 277 -104c19 -27 27 -67 12 -102c-50 -39 -129 -54 -189 -54c-187 0 -265 123 -265 254c0 185 131 262 259 265c147 4 201 -58 222 -126zM280 729c22 17 128 9 152 -22
l-116 -141c-24 -8 -76 9 -79 21z" />
    <glyph glyph-name="caron" unicode="&#x2c7;" horiz-adv-x="425" 
d="M226 646l88 78c23 9 64 -11 67 -27l-100 -140c-24 -21 -90 -18 -116 0l-102 139c5 21 47 36 81 27z" />
    <glyph glyph-name="cat01" horiz-adv-x="804" 
d="M78 614c34 -14 56 -33 70 -58c20 4 61 5 88 1c16 29 46 50 69 57c29 -49 25 -149 16 -192c57 -18 190 -8 259 -3c35 68 55 194 13 270c11 15 43 32 71 32c33 0 70 -24 70 -91c0 -60 -21 -134 -65 -241c24 -76 43 -147 43 -236c0 -83 -22 -167 -76 -167
c-22 0 -37 17 -38 33c15 21 14 81 -4 93c-13 -56 -37 -107 -73 -107c-24 0 -41 12 -43 35c21 24 23 88 0 108c-45 -16 -120 -18 -164 -7c-3 -54 -1 -153 -71 -153c-27 0 -41 17 -38 39c25 27 19 126 -20 132c-10 -94 -32 -145 -78 -145c-21 0 -40 12 -38 37
c15 17 24 49 24 113c0 115 -39 206 -39 307c0 32 7 94 24 143zM95 583c-19 -40 -25 -93 -25 -123c0 -96 40 -177 40 -286c0 -60 -10 -101 -23 -121c1 -15 17 -20 29 -20c33 1 46 49 55 128c-14 4 -23 14 -26 24c12 -7 32 -9 44 -8c39 -30 56 -89 31 -149
c1 -11 10 -20 26 -20c43 0 57 82 39 159c50 -18 147 -27 208 -3c27 -26 25 -92 6 -118c3 -19 15 -22 26 -22c35 0 45 53 60 95c-10 15 -17 27 -17 47c12 -23 30 -42 46 -48c16 -43 8 -78 2 -91c2 -10 9 -18 26 -18c41 0 54 85 54 145c0 94 -28 167 -67 232
c46 79 73 145 80 227c4 46 -12 77 -43 77c-15 0 -34 -11 -42 -24c20 -77 6 -179 -37 -261c-84 -16 -217 -18 -282 -6c9 40 15 137 -12 184c-19 -5 -39 -21 -48 -39c-25 3 -86 0 -105 -3c-13 23 -23 35 -45 42zM119 489c21 5 59 4 53 -52c-23 -11 -57 13 -53 52zM231 439
c-18 26 5 60 40 65c12 -23 2 -61 -40 -65zM188 409c4 5 21 10 30 7l-12 -20c2 -8 11 -13 18 -13c10 0 21 4 27 8l1 -4c-7 -7 -17 -13 -27 -13c-12 0 -19 6 -22 14c-2 -8 -7 -15 -18 -15c-10 0 -23 6 -28 10v4c7 -3 20 -7 27 -7s13 6 15 14zM160 467l-19 -15l21 -12zM148 479
l-21 6l7 -27zM237 470l-3 -26l20 14zM249 484l16 -18l2 27z" />
    <glyph glyph-name="cat02" horiz-adv-x="769" 
d="M450 13c-21 -21 -57 -27 -78 -7h-111c-14 -12 -53 -19 -79 6c-98 27 -186 179 -87 242c8 124 85 154 85 203c0 33 -14 66 -14 113c0 41 11 117 23 156c28 -9 56 -38 75 -60c14 4 84 7 101 0c12 30 49 53 69 60c17 -58 29 -107 29 -155c0 -39 -9 -82 -9 -113
c0 -50 49 -82 55 -204c63 -31 66 -100 33 -159c115 8 179 -38 179 -118c0 -110 -123 -191 -250 -191c-71 0 -157 18 -191 63c-8 68 33 118 97 118c48 0 89 -23 126 -23c26 0 52 13 52 43c0 26 -19 44 -83 37c-7 -4 -14 -8 -22 -11zM204 688c-15 -44 -18 -94 -18 -123
c0 -36 11 -71 11 -106c0 -68 -85 -95 -78 -247c-88 8 -14 -150 44 -177c-24 45 -26 184 -13 205c13 -95 1 -241 94 -219c18 22 10 49 -14 51c0 3 6 6 11 9c-3 19 -7 48 -3 82l67 -11l-42 -20l13 -110h90l5 103l-38 21l69 18c-2 -21 -8 -57 -13 -82c2 0 7 -3 8 -6
c-19 -9 -20 -47 -2 -58c61 1 70 53 59 223c26 -22 24 -170 6 -207c60 15 104 175 41 178l-17 -13c25 124 -48 190 -48 261c0 28 8 60 8 106c0 35 -11 88 -20 127c-17 -8 -41 -26 -51 -47c-26 10 -96 10 -117 0c-11 18 -28 33 -52 42zM494 40c44 8 90 -5 90 -53
c0 -47 -41 -65 -81 -65c-49 0 -83 20 -120 20s-76 -29 -73 -90c24 -26 89 -47 160 -47c122 0 216 72 216 169c0 89 -92 111 -157 101c-10 -13 -22 -25 -35 -35zM239 604c21 4 59 0 49 -55c-24 -10 -56 17 -49 55zM347 547c-16 27 9 59 44 62c11 -24 -2 -61 -44 -62zM302 520
c4 5 22 8 30 5l-13 -19c2 -9 10 -14 17 -15c10 0 21 3 28 7v-5c-7 -6 -17 -11 -27 -11c-12 1 -19 8 -21 16c-3 -8 -8 -15 -19 -14c-10 1 -23 8 -28 12l1 4c6 -3 19 -8 26 -9c7 0 13 5 16 13zM267 592l-21 8l6 -28zM278 580l-20 -14l20 -13v27zM368 590l15 -19l4 27zM355 577
l-5 -25l21 12z" />
    <glyph glyph-name="cat03" horiz-adv-x="1201" 
d="M347 -33c-16 0 -32 6 -42 17c-4 -2 -25 -14 -41 -4c-10 6 -13 17 -14 25c-16 -14 -32 -23 -51 -23c-24 0 -47 9 -57 22c-7 43 -28 65 -39 101c-18 12 -46 28 -70 44c7 21 36 45 64 51c-16 12 -38 19 -56 30c3 40 65 51 151 84c161 62 233 196 414 196
c224 0 274 -320 542 -263c41 -55 35 -160 -81 -160c-94 0 -182 60 -237 129c19 -111 8 -242 -84 -242c-37 0 -55 20 -57 44c18 17 28 36 21 71c-14 -59 -41 -92 -77 -92c-28 0 -47 18 -40 48c19 11 24 36 24 47c1 24 -6 50 -21 64c-22 -16 -95 -51 -116 -57
c3 -18 5 -33 5 -49c0 -24 -44 -83 -138 -83zM387 68c-18 -20 -35 -37 -68 -54c2 -21 21 -29 46 -29c62 0 98 46 101 68c4 28 1 66 -43 132c20 -1 46 -45 55 -75c31 17 101 68 111 85c20 -20 42 -61 43 -99c1 -25 -8 -43 -26 -53c-2 -16 9 -29 29 -29c29 0 47 37 64 92
c-4 15 -16 28 -50 61c122 -37 82 -123 63 -146c0 -16 12 -29 32 -29c91 0 67 171 44 290c85 -93 195 -168 279 -168c57 0 78 50 60 96c-264 -47 -319 277 -543 277c-134 0 -223 -119 -367 -180c-92 -39 -141 -43 -147 -66c33 -15 59 -34 83 -71c-13 -1 -27 17 -44 21
c-26 -12 -44 -22 -50 -38c22 -15 42 -31 59 -42c9 -32 26 -45 37 -82c4 0 16 4 16 4l8 -27c7 -1 14 -2 23 -2c22 0 53 21 110 108c35 -11 73 -29 75 -44zM294 11c35 23 44 37 59 52c-6 15 -17 20 -29 23c-25 -26 -44 -51 -63 -70c0 -10 3 -19 11 -24s19 -1 26 3
c-3 5 -4 10 -4 16zM183 62c-29 13 -27 54 1 76c22 -14 33 -51 -1 -76zM172 92l11 -24l10 22zM175 110l23 -8l-12 25zM264 35c0 -1 -1 -1 -1 -2c1 1 1 2 1 2z" />
    <glyph glyph-name="cat04" horiz-adv-x="1039" 
d="M170 320c33 25 63 32 125 43c73 66 186 153 329 136c250 -28 390 -296 371 -492c-11 -132 -61 -182 -136 -174c-31 3 -61 29 -61 65c28 41 51 83 57 134c6 55 -6 91 -22 124c-13 -43 -33 -100 -88 -126c-42 -11 -112 -20 -152 -15c-32 4 -40 31 -39 55
c-28 -6 -59 -8 -79 -6c-4 -21 -14 -47 -25 -58c-10 -10 -52 -24 -83 -29c-6 -41 -34 -56 -70 -43c-12 -18 -27 -66 -27 -101c0 -26 6 -46 17 -64c-9 -22 -34 -28 -51 -28c-36 0 -59 25 -59 60c0 63 13 85 31 202c-31 -19 -69 -10 -94 2c-6 16 -4 41 -10 55
c-7 6 -42 49 -43 85c-24 17 -56 63 -58 74c9 14 37 22 69 23c-9 25 -18 59 -16 88c26 8 79 6 114 -10zM172 276c-32 25 -82 32 -99 29c-2 -4 4 -36 25 -63c-10 -6 -24 -24 -24 -24c-16 1 -36 1 -47 -9c11 -21 27 -42 52 -52c-4 -44 18 -77 40 -98c4 -17 2 -24 9 -36
c35 -18 94 -6 134 49l7 -8c-16 -19 -39 -47 -47 -50c0 -40 -5 -76 -12 -107c-9 -42 -15 -68 -15 -102c0 -38 35 -59 66 -37c-7 13 -11 44 -11 60c0 44 10 83 31 126c-7 11 -14 21 -8 44c5 19 40 47 47 55c4 24 -15 39 -31 49c27 0 53 -26 51 -42c-1 -22 -45 -41 -51 -69
c-3 -25 14 -41 33 -41c16 0 29 14 33 45c30 5 59 14 74 24c21 20 30 53 26 136c10 -13 16 -45 19 -63c35 -15 116 13 132 3c-44 -16 -27 -58 -13 -62c42 -3 100 4 146 20c32 18 77 70 84 197c29 -68 62 -141 50 -225c-8 -54 -29 -87 -47 -115c-1 -24 20 -42 43 -45
c62 -3 82 57 91 141c21 189 -117 445 -347 471c-90 12 -184 -26 -280 -111c-5 -3 93 14 96 -2c-185 -8 -244 -63 -257 -88zM147 93c-27 19 -17 58 14 75c19 -18 23 -57 -14 -75zM147 142l21 -13l-7 27zM141 124l6 -25l14 19z" />
    <glyph glyph-name="cat05" horiz-adv-x="663" 
d="M184 -89c-85 0 -128 170 -128 313c0 79 32 171 83 207c-25 95 -42 169 -42 293c0 118 47 200 120 200c53 0 73 -38 73 -112c0 -64 -31 -310 -9 -365c12 0 25 7 29 21c-4 35 -4 79 20 106c26 -4 49 -45 58 -66c30 2 63 1 85 -8c15 13 48 40 71 42c6 -29 9 -60 8 -94l79 5
l-80 -19v-3l91 -26l-92 18c0 -2 -1 -5 -1 -7l77 -36l-78 28c-2 -20 -6 -41 -11 -62c7 -66 -20 -96 -20 -182c0 -33 4 -59 13 -80c-8 -18 -46 -30 -67 -19c-17 8 -26 29 -31 57l-16 -6c-24 -93 -59 -204 -113 -204c-31 0 -45 27 -45 55c0 24 6 72 11 99l-62 5
c-22 4 -11 -74 18 -128c-4 -19 -17 -32 -41 -32zM203 -49c-22 43 -43 107 -15 142c28 -10 78 -7 117 8c-20 -51 -25 -104 -25 -130c0 -24 9 -37 22 -37c70 0 115 220 117 320c14 -35 4 -94 -1 -118c10 2 22 14 33 27c-3 -38 2 -64 14 -76c8 -9 30 -8 45 2
c-9 28 -14 65 -12 97c4 53 18 92 11 163c28 66 24 142 13 166c-9 -4 -22 -10 -31 -22c3 -10 18 -21 15 -27c-31 23 -85 32 -134 29c-4 21 -20 41 -33 45c-16 -15 -17 -54 -12 -81c-5 -9 -19 -30 -38 -39c3 -22 18 -57 5 -57c-43 57 -44 307 -35 389c8 63 -3 127 -56 127
c-61 0 -81 -95 -81 -152c0 -144 21 -259 59 -345c-9 -3 -28 38 -35 32c-50 -45 -63 -123 -63 -214c0 -76 23 -265 97 -271c17 0 25 8 23 22zM215 305c0 9 4 15 12 15c7 0 13 -6 13 -15s-6 -14 -13 -14c-8 0 -12 5 -12 14z" />
    <glyph glyph-name="cat06" horiz-adv-x="632" 
d="M116 761l43 -59c11 5 84 11 113 -3c25 25 58 52 94 62c17 -49 13 -124 9 -174c3 -64 101 -171 158 -294c45 -99 57 -208 57 -284c0 -98 -64 -157 -153 -157c-57 0 -109 20 -200 -13c-31 8 -53 35 -53 69c0 49 27 74 64 87c-1 43 -8 86 -24 118c-9 -98 -41 -153 -98 -153
c-34 0 -59 16 -65 56c32 23 40 104 40 154c0 52 -15 110 -20 195c-3 58 17 108 12 127c-36 129 -16 221 23 269zM331 13c6 14 12 44 8 87c19 -16 22 -52 16 -86c-1 -7 41 -9 38 -16c-104 10 -184 -25 -184 -83c0 -20 10 -39 29 -46c60 35 132 13 190 13c81 0 138 36 138 138
c0 62 -6 166 -50 262c-56 121 -161 244 -161 296c5 45 9 128 -6 156c-21 -8 -60 -37 -72 -52c-41 10 -105 11 -129 4l-31 48c-30 -54 -39 -141 -8 -245c4 -13 -14 -58 -9 -123c6 -79 25 -171 25 -192c0 -56 -7 -126 -38 -163c3 -17 20 -27 41 -27c40 0 78 54 79 146
c17 -5 34 -3 34 -3c14 -43 23 -89 22 -127c22 6 46 9 68 13zM142 635c21 4 59 0 49 -55c-24 -10 -56 17 -49 55zM250 578c-16 27 9 59 44 62c11 -24 -2 -61 -44 -62zM205 551c4 5 22 8 30 5l-13 -19c2 -9 10 -14 17 -15c10 0 21 3 28 7v-5c-7 -6 -17 -11 -27 -11
c-12 1 -19 8 -21 16c-3 -8 -8 -15 -19 -14c-10 1 -23 8 -28 12l1 4c6 -3 19 -8 26 -9c7 0 13 5 16 13zM181 611l-20 -14l20 -13v27zM170 623l-21 8l6 -28zM271 621l15 -19l4 27zM258 608l-5 -25l21 12z" />
    <glyph glyph-name="cat07" horiz-adv-x="1113" 
d="M303 347c18 100 102 195 219 195c125 0 202 -78 260 -127c6 16 14 50 31 68c19 -7 49 -32 65 -60c16 6 78 -7 92 -13c16 21 41 51 71 61c24 -49 29 -127 29 -176c0 -60 -87 -142 -154 -168c-7 -32 9 -54 33 -61c9 -44 -25 -63 -47 -64c-2 -34 -23 -55 -53 -55
c-61 0 -125 46 -159 120c-28 -1 -60 3 -80 14c-4 -7 -3 -19 3 -25c-3 -17 -19 -29 -39 -29c-46 0 -84 48 -66 114c-22 -9 -36 -28 -36 -45c0 -20 12 -31 32 -33c9 -38 -10 -67 -48 -67c-99 0 -163 107 -173 229c-68 -41 -99 -70 -99 -129c0 -70 56 -101 109 -91
c24 -91 -35 -126 -95 -126c-95 0 -189 66 -189 199s122 229 294 269zM318 341c-216 -64 -277 -168 -277 -256c0 -126 94 -171 157 -171c53 0 76 21 68 63c-51 0 -105 42 -105 118c0 89 98 145 153 172c-11 -115 48 -253 139 -253c29 0 39 26 33 41c-18 7 -31 20 -31 45
c0 29 23 45 53 66c34 -49 138 -77 176 -71l2 42c29 -109 101 -170 156 -170c32 0 38 29 34 49c-51 11 -75 70 -67 143c8 -21 11 -29 30 -29c72 0 215 80 215 177c0 29 -9 104 -27 135c-15 -2 -35 -30 -47 -50c-39 11 -79 16 -111 12c-7 21 -40 45 -50 46
c-14 -17 -27 -64 -24 -125c-16 11 -13 62 -18 67c-87 74 -166 126 -249 126c-94 0 -180 -67 -210 -177zM828 110c2 -53 33 -85 72 -85c20 0 33 17 35 35c-27 6 -39 39 -31 64c-25 -18 -63 -18 -76 -14zM520 129c-5 -51 20 -88 50 -88c15 0 26 5 29 14c-7 4 -10 18 -4 30
c-28 7 -60 23 -75 44zM844 353c21 4 59 0 49 -55c-24 -10 -56 17 -49 55zM966 291c-16 27 9 59 44 62c11 -24 -2 -61 -44 -62zM911 274c4 5 22 8 30 5l-13 -19c2 -9 10 -14 17 -15c10 0 21 3 28 7v-5c-7 -6 -17 -11 -27 -11c-12 1 -19 8 -21 16c-3 -8 -8 -15 -19 -14
c-10 1 -23 8 -28 12l1 4c6 -3 19 -8 26 -9c7 0 13 5 16 13zM872 341l-21 8l6 -28zM883 329l-20 -14l20 -13v27zM987 334l15 -19l4 27zM974 321l-5 -25l21 12z" />
    <glyph glyph-name="cat08" horiz-adv-x="951" 
d="M192 110l-19 123c-89 61 -135 136 -155 242c24 6 80 17 108 6c11 13 52 24 82 27c7 29 46 65 63 74c9 -5 34 -25 38 -44c58 75 128 96 190 96c83 0 167 -45 201 -90c66 84 36 207 20 324c124 56 187 -9 187 -88c0 -148 -92 -268 -92 -366c0 -79 22 -121 22 -213
c0 -79 -31 -217 -102 -217c-16 0 -36 11 -41 29c-9 -13 -24 -29 -48 -29c-44 0 -53 36 -45 62c31 9 39 75 31 118c-10 57 -64 93 -122 93c-39 0 -105 -25 -126 -80c16 -127 5 -209 -69 -209c-28 0 -53 20 -50 45c9 8 20 43 19 64c-20 -57 -48 -82 -76 -82
c-24 0 -41 17 -41 43zM698 519c-41 48 -109 97 -203 97c-80 0 -142 -51 -192 -121c-6 28 -16 61 -34 67c-18 -11 -42 -40 -48 -66c-30 -1 -75 -17 -85 -32c-28 5 -73 -1 -85 -8c3 -98 81 -173 143 -219c0 -23 19 -94 19 -123c0 -26 -16 -64 -29 -66c-6 -17 6 -34 25 -34
c46 0 72 68 72 115c22 -6 16 -91 2 -112c-2 -15 11 -31 34 -31c66 0 52 121 52 196c17 55 79 109 143 109c81 0 128 -61 136 -102c9 -46 7 -117 -30 -147c-5 -14 6 -42 24 -42c51 0 63 64 76 207c17 -22 2 -151 -12 -169c-1 -17 13 -34 28 -34c52 0 86 110 86 195
c0 91 -30 125 -30 205c0 109 80 243 80 364c0 87 -61 114 -128 80c14 -82 48 -250 -44 -329zM138 389c19 11 55 22 67 -33c-19 -18 -59 -6 -67 33zM260 376c-25 19 -14 58 18 74c18 -18 21 -57 -18 -74zM229 334c2 6 16 16 26 16l-5 -23c85 20 -60 -56 -6 -4zM184 380
l-13 -20l23 -5zM169 388l-22 -1l15 -23zM263 424l21 -12l-6 26zM256 407l5 -25l15 19z" />
    <glyph glyph-name="cat09" horiz-adv-x="808" 
d="M89 614c34 -14 56 -33 70 -58c20 4 61 5 88 1c16 29 46 50 69 57c29 -49 25 -149 16 -192c57 -18 190 -8 259 -3c35 68 55 194 13 270c11 15 43 32 71 32c33 0 70 -24 70 -91c0 -60 -21 -134 -65 -241c24 -76 43 -147 43 -236c0 -83 -22 -167 -76 -167
c-22 0 -37 17 -38 33c15 21 14 81 -4 93c-13 5 -31 22 -43 43c-3 -22 27 -52 37 -58c-13 -45 -31 -92 -67 -92c-24 0 -41 12 -43 35c21 24 23 88 0 108c-45 -16 -120 -18 -164 -7c-3 -54 -1 -153 -71 -153c-27 0 -41 17 -38 39c25 27 19 126 -20 132c-14 3 -32 11 -42 17
c-1 -5 9 -21 42 -29c-10 -82 -32 -133 -78 -133c-21 0 -40 12 -38 37c15 17 24 49 24 113c0 115 -39 206 -39 307c0 32 7 94 24 143zM198 409l11 -15c-2 -8 -8 -14 -15 -14s-20 4 -27 7v-4c5 -4 18 -10 28 -10c11 0 16 7 18 15c3 -8 10 -14 22 -14c10 0 20 6 27 13l-1 4
c-6 -4 -17 -8 -27 -8c-7 0 -16 5 -18 13l12 20c-9 3 -26 -2 -30 -7zM168 484c-10 9 -26 8 -36 6c-2 -14 2 -25 9 -34c7 14 17 22 27 28zM278 463c5 11 5 25 0 35c-13 -2 -24 -7 -31 -15c13 -4 24 -10 31 -20zM241 473c-4 -10 -4 -22 3 -32c13 1 24 7 30 14
c-12 0 -23 5 -33 18zM149 448c9 -7 21 -10 30 -5c1 14 -1 24 -4 31c-6 -12 -14 -20 -26 -26z" />
    <glyph glyph-name="cat10" horiz-adv-x="769" 
d="M372 6h-111c18 24 6 54 -12 73l-1 83l-10 1c-4 -34 0 -63 3 -82c-5 -3 -11 -6 -11 -9c33 -3 43 -53 13 -73c-93 -22 -80 146 -93 241c-13 -21 -17 -168 32 -228c-98 27 -186 179 -87 242c8 124 85 154 85 203c0 33 -14 66 -14 113c0 41 11 117 23 156
c28 -9 56 -38 75 -60c14 4 84 7 101 0c12 30 49 53 69 60c17 -58 29 -107 29 -155c0 -39 -9 -82 -9 -113c0 -50 49 -82 55 -204c63 -31 66 -100 33 -159c115 8 179 -38 179 -118c0 -110 -123 -191 -250 -191c-71 0 -157 18 -191 63c-8 68 33 118 97 118c48 0 89 -23 126 -23
c26 0 52 13 52 43c0 26 -19 44 -83 37c-7 -4 -14 -8 -22 -11c35 47 30 206 4 228c11 -170 3 -239 -58 -240c-30 8 -30 63 1 75c-1 3 -6 6 -8 6c5 25 11 61 13 82l-10 -4l-12 -85c-17 -17 -25 -47 -8 -69zM302 520l10 -16c-3 -8 -9 -13 -16 -13c-7 1 -20 6 -26 9l-1 -4
c5 -4 18 -11 28 -12c11 -1 16 6 19 14c2 -8 9 -15 21 -16c10 0 20 5 27 11v5c-7 -4 -18 -7 -28 -7c-7 1 -15 6 -17 15l13 19c-8 3 -26 0 -30 -5zM265 596c-12 6 -27 2 -36 -2c1 -14 7 -24 15 -31c4 15 13 25 21 33zM385 566c8 8 13 21 12 33c-12 2 -24 2 -34 -3
c11 -9 19 -18 22 -30zM354 589c-8 -8 -12 -19 -9 -31c20 -4 25 -2 33 2c-11 4 -20 13 -24 29zM254 557c10 -5 17 -5 30 1c-2 14 -6 23 -10 29c-3 -13 -10 -22 -20 -30z" />
    <glyph glyph-name="cat11" horiz-adv-x="1201" 
d="M347 -33c-16 0 -32 6 -42 17c-4 -2 -25 -14 -41 -4c-10 6 -13 17 -14 25c-16 -14 -32 -23 -51 -23c-24 0 -47 9 -57 22c-7 43 -28 65 -39 101c-18 12 -46 28 -70 44c6 17 27 39 54 48c15 -4 30 -17 36 -16c-22 23 -42 29 -82 49c3 40 65 51 151 84
c161 62 233 196 414 196c224 0 274 -320 542 -263c41 -55 35 -160 -81 -160c-94 0 -182 60 -237 129c19 -111 8 -242 -84 -242c-37 0 -55 20 -57 44c18 17 28 36 21 71c-14 -59 -41 -92 -77 -92c-28 0 -47 18 -40 48c19 11 24 36 24 47c1 24 -6 50 -21 64
c-17 -12 -74 -41 -105 -53c-3 21 -19 85 -34 87c19 -42 28 -124 28 -140c0 -24 -44 -83 -138 -83zM259 28l6 -8c18 18 36 42 59 66c12 -3 31 -10 37 -25c-15 -15 -32 -27 -67 -50c0 -3 1 -5 1 -7c36 10 66 35 92 64c-2 15 -33 24 -68 35c-24 -36 -44 -58 -60 -75zM709 95
c5 34 -28 67 -60 72c22 -15 51 -43 60 -72zM264 35c0 -1 -1 -1 -1 -2c1 1 1 2 1 2zM207 102c5 11 2 26 -5 34c-12 -3 -21 -9 -27 -18c13 -2 25 -7 32 -16zM169 108c-2 -10 -1 -22 7 -32c13 4 22 10 28 17c-12 0 -23 3 -35 15z" />
    <glyph glyph-name="cat12" horiz-adv-x="1039" 
d="M170 320c33 25 63 32 125 43c73 66 186 153 329 136c250 -28 390 -296 371 -492c-11 -132 -61 -182 -136 -174c-31 3 -61 29 -61 65c28 41 51 83 57 134c6 55 -6 91 -22 124c-13 -43 -33 -100 -88 -126c-42 -11 -112 -20 -152 -15c-32 4 -53 62 30 73c-3 9 -16 10 -30 7
c-15 -4 -31 -14 -36 -30c-21 -3 -67 -2 -82 -1c-4 -21 -14 -47 -25 -58c-10 -10 -52 -24 -83 -29c-6 -41 -34 -56 -70 -43c-12 -18 -27 -66 -27 -101c0 -26 6 -46 17 -64c-9 -22 -34 -28 -51 -28c-36 0 -59 25 -59 60c0 56 12 100 27 186c30 9 71 43 66 63
c-68 -78 -131 -57 -156 -45c-6 16 -4 41 -10 55c-7 6 -42 49 -43 85c-24 17 -56 63 -58 74c9 14 37 22 69 23c-9 25 -18 59 -16 88c26 8 79 6 114 -10zM280 -44c-1 14 -1 23 0 32c5 28 59 50 60 72c2 16 -24 42 -51 42c16 -10 35 -25 31 -49c-7 -8 -42 -36 -47 -55
c-6 -22 0 -32 7 -42zM185 107c3 11 0 26 -7 34c-12 -5 -22 -11 -27 -20c13 -1 25 -5 34 -14zM146 109c-1 -10 1 -22 9 -30c11 4 22 11 27 19c-12 -2 -23 1 -36 11z" />
    <glyph glyph-name="cat13" horiz-adv-x="663" 
d="M184 -89c-85 0 -128 170 -128 313c0 79 32 171 83 207c-25 95 -42 169 -42 293c0 118 47 200 120 200c53 0 73 -38 73 -112c0 -64 -31 -310 -9 -365c12 0 25 7 29 21c-4 35 -4 79 20 106c26 -4 49 -45 58 -66c30 2 63 1 85 -8c15 13 48 40 71 42c6 -29 9 -60 8 -94l79 5
l-80 -19v-3l91 -26l-92 18c0 -2 -1 -5 -1 -7l77 -36l-78 28c-2 -20 -6 -41 -11 -62c7 -66 -20 -96 -20 -182c0 -33 4 -59 13 -80c-8 -18 -46 -30 -67 -19c-17 8 -26 29 -31 57c0 0 -4 -2 -8 -3l-8 -3c-24 -93 -59 -204 -113 -204c-31 0 -45 27 -45 55c0 24 6 72 11 99l-62 5
c-22 4 -11 -74 18 -128c-4 -19 -17 -32 -41 -32zM215 309c0 -7 3 -11 9 -11c5 0 10 4 10 11c0 6 -5 11 -10 11c-6 0 -9 -5 -9 -11z" />
    <glyph glyph-name="cat14" horiz-adv-x="632" 
d="M116 761l43 -59c11 5 84 11 113 -3c25 25 58 52 94 62c17 -49 13 -124 9 -174c3 -64 101 -171 158 -294c45 -99 57 -208 57 -284c0 -98 -64 -157 -153 -157c-57 0 -109 20 -200 -13c-31 8 -53 35 -53 69c0 49 27 74 64 87c-1 43 -8 86 -24 118c-9 -98 -41 -153 -98 -153
c-34 0 -59 16 -65 56c32 23 40 104 40 154c0 52 -15 110 -20 195c-3 58 17 108 12 127c-36 129 -16 221 23 269zM265 -6c52 22 193 -34 234 12c-67 -16 -127 -3 -151 4c6 34 10 74 -9 90c4 -43 -2 -73 -8 -87c-19 -3 -57 3 -66 -19zM205 551l10 -16c-3 -8 -9 -13 -16 -13
c-7 1 -20 6 -26 9l-1 -4c5 -4 18 -11 28 -12c11 -1 16 6 19 14c2 -8 9 -15 21 -16c10 0 20 5 27 11v5c-7 -4 -18 -7 -28 -7c-7 1 -15 6 -17 15l13 19c-8 3 -26 0 -30 -5zM164 594c10 -5 17 -5 30 1c-2 14 -6 23 -10 29c-3 -13 -10 -22 -20 -30zM175 633c-12 6 -27 2 -36 -2
c1 -14 7 -24 15 -31c4 15 13 25 21 33zM289 599c8 8 13 21 12 33c-12 2 -24 2 -34 -3c11 -9 19 -18 22 -30zM258 622c-8 -8 -12 -19 -9 -31c20 -4 25 -2 33 2c-11 4 -20 13 -24 29z" />
    <glyph glyph-name="cat15" horiz-adv-x="1113" 
d="M813 107c2 -53 41 -108 80 -108c7 -35 -14 -52 -44 -52c-61 0 -125 46 -159 120c-71 -4 -149 34 -182 74c-22 -9 -36 -28 -36 -45c0 -20 12 -31 32 -33c9 -38 -10 -67 -48 -67c-99 0 -163 107 -173 229c-68 -41 -99 -70 -99 -129c0 -70 56 -101 109 -91
c24 -91 -35 -126 -95 -126c-95 0 -189 66 -189 199s122 229 294 269c18 100 102 195 219 195c125 0 202 -78 260 -127c6 16 14 50 31 68c19 -7 49 -32 65 -60c16 6 78 -7 92 -13c16 21 41 51 71 61c24 -49 30 -127 29 -153c-1 -107 -117 -194 -257 -211zM916 127
c-7 -32 9 -54 33 -61c9 -44 -24 -55 -46 -54c-36 2 -59 36 -74 84c40 4 68 16 87 31zM609 71c-1 -14 0 -15 6 -21c-3 -17 -16 -28 -36 -28c-46 0 -83 33 -65 99c15 -21 62 -43 95 -50zM911 274l10 -16c-3 -8 -9 -13 -16 -13c-7 1 -20 6 -26 9l-1 -4c5 -4 18 -11 28 -12
c11 -1 16 6 19 14c2 -8 9 -15 21 -16c10 0 20 5 27 11v5c-7 -4 -18 -7 -28 -7c-7 1 -15 6 -17 15l13 19c-8 3 -26 0 -30 -5zM877 355c-12 6 -27 2 -36 -2c1 -14 7 -24 15 -31c4 15 13 25 21 33zM998 318c8 8 13 21 12 33c-12 2 -24 2 -34 -3c11 -9 19 -18 22 -30zM967 341
c-8 -8 -12 -19 -9 -31c20 -4 25 -2 33 2c-11 4 -20 13 -24 29zM866 316c10 -5 17 -5 30 1c-2 14 -6 23 -10 29c-3 -13 -10 -22 -20 -30z" />
    <glyph glyph-name="cat16" horiz-adv-x="951" 
d="M692 19c-7 -14 -22 -35 -46 -35c-44 0 -53 36 -45 62c31 9 39 75 31 118c-10 57 -64 93 -122 93c-39 0 -105 -25 -126 -80c16 -127 5 -209 -69 -209c-28 0 -53 20 -50 45c9 8 20 43 19 64c-20 -57 -48 -82 -76 -82c-24 0 -41 17 -41 43l25 72l-19 123
c-89 61 -135 136 -155 242c24 6 80 17 108 6c11 13 52 24 82 27c7 29 46 65 63 74c9 -5 34 -25 38 -44c58 75 128 96 190 96c83 0 167 -45 201 -90c66 84 36 207 20 324c124 56 187 -9 187 -88c0 -148 -92 -268 -92 -366c0 -79 22 -121 22 -213c0 -79 -31 -217 -102 -217
c-16 0 -28 15 -33 33c20 39 43 141 19 187c0 -67 -13 -153 -29 -185zM222 332l22 -9c-25 -24 -5 -24 13 -15c20 10 38 30 -7 19l5 22c-11 3 -24 -4 -33 -17zM161 396c-13 1 -26 -8 -33 -15c6 -13 15 -20 25 -23c-1 15 4 28 8 38zM284 410c6 17 5 25 0 36
c-12 -3 -24 -7 -31 -15c13 -5 24 -10 31 -21zM247 421c-5 -10 -5 -22 2 -32c21 3 25 7 31 13c-12 0 -24 5 -33 19zM165 355c11 -1 17 2 27 12c-6 12 -13 19 -19 24c2 -14 -2 -24 -8 -36z" />
    <glyph glyph-name="ccaron" unicode="&#x10d;" horiz-adv-x="535" 
d="M514 384c-3 -51 -74 -81 -134 -70c-10 49 -32 84 -80 84c-60 0 -102 -53 -102 -147c0 -122 112 -182 277 -104c19 -27 27 -67 12 -102c-50 -39 -129 -54 -189 -54c-187 0 -265 123 -265 254c0 185 131 262 259 265c147 4 201 -58 222 -126zM302 646l88 78
c23 9 64 -11 67 -27l-100 -140c-24 -21 -90 -18 -116 0l-102 139c5 21 47 36 81 27z" />
    <glyph glyph-name="ccedilla" unicode="&#xe7;" horiz-adv-x="535" 
d="M514 384c-3 -51 -74 -81 -134 -70c-10 49 -32 84 -80 84c-60 0 -102 -53 -102 -147c0 -122 112 -182 277 -104c19 -27 27 -67 12 -102c-43 -33 -106 -49 -161 -53l-14 -32c55 -9 87 -40 87 -91c0 -91 -102 -129 -228 -69c-12 21 9 67 28 67c63 -23 96 -23 96 8
c0 26 -36 42 -87 47l28 74c-143 24 -203 133 -203 249c0 185 131 262 259 265c147 4 201 -58 222 -126z" />
    <glyph glyph-name="ccircumflex" unicode="&#x109;" horiz-adv-x="535" 
d="M514 384c-3 -51 -74 -81 -134 -70c-10 49 -32 84 -80 84c-60 0 -102 -53 -102 -147c0 -122 112 -182 277 -104c19 -27 27 -67 12 -102c-50 -39 -129 -54 -189 -54c-187 0 -265 123 -265 254c0 185 131 262 259 265c147 4 201 -58 222 -126zM297 623l-88 -74
c-23 -8 -64 16 -64 29l117 155c18 15 62 12 80 0l120 -153c-6 -17 -39 -38 -75 -30z" />
    <glyph glyph-name="cdotaccent" unicode="&#x10b;" horiz-adv-x="535" 
d="M514 384c-3 -51 -74 -81 -134 -70c-10 49 -32 84 -80 84c-60 0 -102 -53 -102 -147c0 -122 112 -182 277 -104c19 -27 27 -67 12 -102c-50 -39 -129 -54 -189 -54c-187 0 -265 123 -265 254c0 185 131 262 259 265c147 4 201 -58 222 -126zM302 570c-40 13 -81 48 -97 87
c17 36 60 72 100 83c40 -15 80 -49 98 -86c-15 -37 -62 -74 -101 -84z" />
    <glyph glyph-name="cedilla" unicode="&#xb8;" horiz-adv-x="319" 
d="M102 -78l49 129l86 -20l-31 -71c55 -9 87 -40 87 -91c0 -91 -102 -129 -228 -69c-12 21 9 67 28 67c63 -23 96 -23 96 8c0 26 -36 42 -87 47z" />
    <glyph glyph-name="cent" unicode="&#xa2;" horiz-adv-x="535" 
d="M507 384c-6 -58 -82 -78 -133 -70c-11 50 -29 84 -71 84c-74 1 -105 -57 -105 -138c0 -138 115 -191 271 -113c18 -18 28 -71 11 -102c-42 -33 -84 -46 -140 -51l10 -90c-25 -25 -121 -20 -147 2l14 92c-125 27 -184 132 -184 254c0 142 89 227 195 251l-10 95
c27 22 127 18 155 -4l-15 -88c93 -14 132 -64 149 -122z" />
    <glyph glyph-name="circumflex" unicode="&#x2c6;" horiz-adv-x="464" 
d="M211 623l-88 -74c-23 -8 -64 16 -64 29l117 155c18 15 62 12 80 0l120 -153c-6 -17 -39 -38 -75 -30z" />
    <glyph glyph-name="colon" unicode=":" horiz-adv-x="336" 
d="M46 75c0 54 47 95 115 95c69 0 114 -41 114 -95s-45 -94 -114 -94c-68 0 -115 40 -115 94zM59 412c0 54 47 95 115 95c69 0 115 -41 115 -95s-46 -94 -115 -94c-68 0 -115 40 -115 94z" />
    <glyph glyph-name="comma" unicode="," horiz-adv-x="341" 
d="M129 -187c-34 -2 -65 34 -66 58c45 31 75 68 88 119c-78 -8 -105 59 -105 102c0 57 51 104 121 104c67 0 127 -49 127 -142c0 -95 -65 -193 -165 -241z" />
    <glyph glyph-name="copyright" unicode="&#xa9;" horiz-adv-x="646" 
d="M337 748c187 -5 283 -128 271 -288c-13 -182 -113 -274 -286 -273c-218 1 -294 151 -282 311c11 154 123 256 297 250zM147 481c-2 -131 74 -199 175 -199c106 0 173 58 176 182c3 126 -69 187 -171 189c-88 2 -178 -52 -180 -172zM441 546c-1 -28 -37 -47 -62 -47
c-7 27 -19 48 -46 48c-40 0 -61 -28 -60 -77c0 -76 67 -105 148 -53c10 -19 14 -41 7 -61c-27 -25 -52 -40 -101 -40c-98 0 -141 75 -141 151c0 95 63 144 132 147c84 3 110 -35 123 -68z" />
    <glyph glyph-name="d" unicode="d" horiz-adv-x="636" 
d="M507 -10c-59 0 -96 22 -117 78c-38 -50 -94 -77 -153 -77c-123 0 -204 80 -204 241c0 156 76 258 221 258c57 0 105 -19 143 -48l12 269c26 22 128 24 156 6c-11 -196 -29 -397 -28 -527c0 -77 29 -86 65 -81c16 -14 17 -62 0 -93c-20 -15 -56 -26 -95 -26zM387 157
l11 197c-27 20 -66 34 -101 34c-67 0 -103 -58 -103 -151c0 -87 34 -138 93 -138c37 0 73 26 100 58z" />
    <glyph glyph-name="dagger" unicode="&#x2020;" horiz-adv-x="499" 
d="M164 626c28 23 121 23 166 0l-14 -171l125 10c18 -26 23 -109 2 -142l-126 15l2 -580c-19 -17 -105 -20 -134 0l-8 580l-121 -16c-20 30 -20 121 1 145l121 -13z" />
    <glyph glyph-name="daggerdbl" unicode="&#x2021;" horiz-adv-x="500" 
d="M74 134l107 -10l-3 214l-120 -16c-22 25 -25 120 1 145l120 -13l-14 172c30 25 120 25 165 0l-14 -171l126 10c18 -26 22 -105 2 -142l-127 15v-216l121 9c23 -28 30 -124 -2 -151l-118 20l1 -242c-20 -17 -104 -22 -133 0l-4 241l-115 -13c-29 17 -24 133 7 148z" />
    <glyph glyph-name="dcaron" unicode="&#x10f;" horiz-adv-x="736" 
d="M627 710c16 26 115 30 129 10c0 -77 -25 -177 -59 -215c-22 -11 -84 3 -84 25c20 59 28 119 14 180zM507 -10c-59 0 -96 22 -117 78c-38 -50 -94 -77 -153 -77c-123 0 -204 80 -204 241c0 156 76 258 221 258c57 0 105 -19 143 -48l12 269c26 22 128 24 156 6
c-11 -196 -29 -397 -28 -527c0 -77 29 -86 65 -81c16 -14 17 -62 0 -93c-20 -15 -56 -26 -95 -26zM387 157l11 197c-27 20 -66 34 -101 34c-67 0 -103 -58 -103 -151c0 -87 34 -138 93 -138c37 0 73 26 100 58z" />
    <glyph glyph-name="dcroat" unicode="&#x111;" horiz-adv-x="661" 
d="M507 -10c-59 0 -96 22 -117 78c-38 -50 -94 -77 -153 -77c-123 0 -204 80 -204 241c0 156 76 258 221 258c57 0 105 -19 143 -48l4 92l-113 6c-14 34 -13 76 -5 112l123 -3l3 62c26 22 128 24 156 6c-2 -24 -3 -48 -4 -71l94 -2c13 -33 10 -91 -5 -123l-97 5
c-9 -129 -17 -249 -16 -336c0 -77 29 -86 65 -81c16 -14 17 -62 0 -93c-20 -15 -56 -26 -95 -26zM387 157l11 197c-27 20 -66 34 -101 34c-67 0 -103 -58 -103 -151c0 -87 34 -138 93 -138c37 0 73 26 100 58z" />
    <glyph glyph-name="degree" unicode="&#xb0;" horiz-adv-x="279" 
d="M-3 571c0 84 62 147 143 147c82 0 143 -63 143 -147c0 -83 -61 -147 -143 -147c-81 0 -143 64 -143 147zM97 571c0 -27 16 -49 43 -49s43 22 43 49s-16 49 -43 49s-43 -22 -43 -49z" />
    <glyph glyph-name="dieresis" unicode="&#xa8;" horiz-adv-x="560" 
d="M401 569c-37 13 -73 51 -87 86c14 37 58 69 92 78c36 -14 75 -49 89 -85c-14 -34 -60 -70 -94 -79zM167 570c-36 14 -70 50 -87 86c14 34 57 70 92 79c35 -12 75 -53 88 -86c-14 -34 -58 -69 -93 -79z" />
    <glyph glyph-name="divide" unicode="&#xf7;" horiz-adv-x="529" 
d="M69 413l390 8c16 -29 12 -91 -5 -118l-380 -10c-17 28 -18 86 -5 120zM167 169c0 47 42 87 101 87c58 0 98 -40 98 -87c0 -46 -40 -85 -98 -85c-59 0 -101 39 -101 85zM169 546c0 45 42 85 101 85c58 0 98 -40 98 -85c0 -49 -40 -86 -98 -86c-59 0 -101 37 -101 86z" />
    <glyph glyph-name="dollar" unicode="$" horiz-adv-x="520" 
d="M190 2c-56 7 -110 21 -144 41c-10 32 9 122 47 152c44 -44 91 -81 154 -81c48 0 69 29 69 63c0 54 -51 80 -105 110l-39 22c-65 37 -121 81 -121 177c0 82 53 146 154 160l-12 101c23 15 125 13 147 -2l-10 -100c56 -6 101 -20 139 -38c11 -39 -12 -119 -45 -133
c-37 30 -89 55 -144 55c-44 0 -73 -15 -73 -48c0 -38 38 -62 95 -92c99 -54 175 -102 175 -211c0 -81 -60 -156 -161 -175l12 -97c-26 -23 -123 -20 -152 0z" />
    <glyph glyph-name="dotaccent" unicode="&#x2d9;" horiz-adv-x="280" 
d="M138 570c-40 13 -81 48 -97 87c17 36 60 72 100 83c40 -15 80 -49 98 -86c-15 -37 -62 -74 -101 -84z" />
    <glyph glyph-name="dotlessi" unicode="&#x131;" horiz-adv-x="297" 
d="M235 494l-15 -314c-3 -66 9 -81 60 -66c15 -15 15 -65 0 -93c-23 -22 -74 -35 -110 -34c-59 1 -109 26 -106 126l11 385c43 11 118 12 160 -4z" />
    <glyph glyph-name="e" unicode="e" horiz-adv-x="567" 
d="M195 222c-1 -71 47 -115 139 -115c55 0 112 19 157 53c25 -15 39 -60 24 -102c-56 -47 -145 -73 -237 -68c-140 8 -245 89 -245 257c0 161 115 265 285 265c169 0 223 -77 223 -154c0 -152 -191 -176 -346 -136zM192 288c55 -8 191 -10 191 65c0 38 -23 62 -66 62
c-89 0 -120 -66 -125 -127z" />
    <glyph glyph-name="e.alt01" horiz-adv-x="643" 
d="M195 222c0 -77 40 -137 171 -137c183 0 277 133 278 288c1 104 -38 197 -118 271c18 46 118 58 170 20c45 -53 93 -140 93 -261c0 -243 -174 -413 -433 -413c-218 0 -323 95 -323 257c0 161 115 265 285 265c169 0 223 -77 223 -154c0 -152 -191 -176 -346 -136zM192 288
c55 -8 191 -10 191 65c0 38 -23 62 -66 62c-89 0 -120 -66 -125 -127z" />
    <glyph glyph-name="eacute" unicode="&#xe9;" horiz-adv-x="569" 
d="M195 222c-1 -71 47 -115 139 -115c55 0 112 19 157 53c25 -15 39 -60 24 -102c-56 -47 -145 -73 -237 -68c-140 8 -245 89 -245 257c0 161 115 265 285 265c169 0 223 -77 223 -154c0 -152 -191 -176 -346 -136zM291 729c22 17 128 9 152 -22l-116 -141
c-24 -8 -76 9 -79 21zM192 288c55 -8 191 -10 191 65c0 38 -23 62 -66 62c-89 0 -120 -66 -125 -127z" />
    <glyph glyph-name="ecaron" unicode="&#x11b;" horiz-adv-x="567" 
d="M195 222c-1 -71 47 -115 139 -115c55 0 112 19 157 53c25 -15 39 -60 24 -102c-56 -47 -145 -73 -237 -68c-140 8 -245 89 -245 257c0 161 115 265 285 265c169 0 223 -77 223 -154c0 -152 -191 -176 -346 -136zM314 646l88 78c23 9 64 -11 67 -27l-100 -140
c-24 -21 -90 -18 -116 0l-102 139c5 21 47 36 81 27zM192 288c55 -8 191 -10 191 65c0 38 -23 62 -66 62c-89 0 -120 -66 -125 -127z" />
    <glyph glyph-name="ecircumflex" unicode="&#xea;" horiz-adv-x="569" 
d="M195 222c-1 -71 47 -115 139 -115c55 0 112 19 157 53c25 -15 39 -60 24 -102c-56 -47 -145 -73 -237 -68c-140 8 -245 89 -245 257c0 161 115 265 285 265c169 0 223 -77 223 -154c0 -152 -191 -176 -346 -136zM303 623l-88 -74c-23 -8 -64 16 -64 29l117 155
c18 15 62 12 80 0l120 -153c-6 -17 -39 -38 -75 -30zM192 288c55 -8 191 -10 191 65c0 38 -23 62 -66 62c-89 0 -120 -66 -125 -127z" />
    <glyph glyph-name="edieresis" unicode="&#xeb;" horiz-adv-x="569" 
d="M421 569c-37 13 -73 51 -87 86c14 37 58 69 92 78c36 -14 75 -49 89 -85c-14 -34 -60 -70 -94 -79zM187 570c-36 14 -70 50 -87 86c14 34 57 70 92 79c35 -12 75 -53 88 -86c-14 -34 -58 -69 -93 -79zM195 222c-1 -71 47 -115 139 -115c55 0 112 19 157 53
c25 -15 39 -60 24 -102c-56 -47 -145 -73 -237 -68c-140 8 -245 89 -245 257c0 161 115 265 285 265c169 0 223 -77 223 -154c0 -152 -191 -176 -346 -136zM192 288c55 -8 191 -10 191 65c0 38 -23 62 -66 62c-89 0 -120 -66 -125 -127z" />
    <glyph glyph-name="edotaccent" unicode="&#x117;" horiz-adv-x="567" 
d="M195 222c-1 -71 47 -115 139 -115c55 0 112 19 157 53c25 -15 39 -60 24 -102c-56 -47 -145 -73 -237 -68c-140 8 -245 89 -245 257c0 161 115 265 285 265c169 0 223 -77 223 -154c0 -152 -191 -176 -346 -136zM192 288c55 -8 191 -10 191 65c0 38 -23 62 -66 62
c-89 0 -120 -66 -125 -127zM314 570c-40 13 -81 48 -97 87c17 36 60 72 100 83c40 -15 80 -49 98 -86c-15 -37 -62 -74 -101 -84z" />
    <glyph glyph-name="egrave" unicode="&#xe8;" horiz-adv-x="569" 
d="M195 222c-1 -71 47 -115 139 -115c55 0 112 19 157 53c25 -15 39 -60 24 -102c-56 -47 -145 -73 -237 -68c-140 8 -245 89 -245 257c0 161 115 265 285 265c169 0 223 -77 223 -154c0 -152 -191 -176 -346 -136zM320 729l37 -142c-7 -18 -45 -30 -76 -22l-110 144
c21 27 131 44 149 20zM192 288c55 -8 191 -10 191 65c0 38 -23 62 -66 62c-89 0 -120 -66 -125 -127z" />
    <glyph glyph-name="eight" unicode="8" horiz-adv-x="606" 
d="M566 165c0 -102 -98 -184 -259 -184c-139 0 -267 52 -267 186c0 85 63 144 163 188c-76 55 -117 106 -117 186c0 101 100 180 243 180c160 0 230 -86 230 -176c0 -87 -54 -141 -153 -172c92 -56 160 -114 160 -208zM286 296l-22 13c-41 -36 -67 -78 -67 -127
c0 -56 44 -94 109 -94c58 0 92 38 92 80c0 47 -45 86 -112 128zM241 534c0 -51 51 -90 101 -122c35 22 60 62 60 109c0 49 -20 96 -80 96c-56 0 -81 -44 -81 -83z" />
    <glyph glyph-name="ellipsis" unicode="&#x2026;" horiz-adv-x="1075" 
d="M53 87c0 62 55 107 124 107c68 0 123 -45 123 -107s-55 -106 -123 -106c-69 0 -124 44 -124 106zM410 87c0 62 56 107 124 107s124 -45 124 -107s-56 -106 -124 -106s-124 44 -124 106zM773 87c0 62 56 107 124 107c69 0 124 -45 124 -107s-55 -106 -124 -106
c-68 0 -124 44 -124 106z" />
    <glyph glyph-name="emacron" unicode="&#x113;" horiz-adv-x="567" 
d="M195 222c-1 -71 47 -115 139 -115c55 0 112 19 157 53c25 -15 39 -60 24 -102c-56 -47 -145 -73 -237 -68c-140 8 -245 89 -245 257c0 161 115 265 285 265c169 0 223 -77 223 -154c0 -152 -191 -176 -346 -136zM156 689l275 8c21 -10 16 -92 0 -111h-267
c-22 12 -27 91 -8 103zM192 288c55 -8 191 -10 191 65c0 38 -23 62 -66 62c-89 0 -120 -66 -125 -127z" />
    <glyph glyph-name="emdash" unicode="&#x2014;" horiz-adv-x="742" 
d="M28 352l684 8c16 -34 14 -101 -5 -130l-674 -10c-19 32 -17 98 -5 132z" />
    <glyph glyph-name="endash" unicode="&#x2013;" horiz-adv-x="557" 
d="M46 421l464 8c12 -31 14 -99 -5 -130l-454 -10c-16 32 -18 98 -5 132z" />
    <glyph glyph-name="eogonek" unicode="&#x119;" horiz-adv-x="567" 
d="M195 222c-1 -71 47 -115 139 -115c55 0 112 19 157 53c25 -15 39 -60 24 -102c-37 -31 -89 -53 -146 -63c-47 -24 -83 -61 -83 -91c0 -16 10 -29 30 -29c21 0 41 10 59 28c19 3 46 -30 41 -54c-22 -39 -63 -75 -131 -75c-58 0 -118 29 -118 96c0 52 30 91 75 124
c-122 19 -209 99 -209 253c0 161 115 265 285 265c169 0 223 -77 223 -154c0 -152 -191 -176 -346 -136zM192 288c55 -8 191 -10 191 65c0 38 -23 62 -66 62c-89 0 -120 -66 -125 -127z" />
    <glyph glyph-name="equal" unicode="=" horiz-adv-x="609" 
d="M110 269l384 8c13 -30 10 -87 -6 -118l-374 -10c-15 28 -14 90 -4 120zM111 454l384 8c11 -33 11 -86 -6 -117l-374 -10c-17 29 -14 89 -4 119z" />
    <glyph glyph-name="eth" unicode="&#xf0;" horiz-adv-x="612" 
d="M401 725c32 -2 101 -74 90 -99l-61 -15c82 -81 144 -196 146 -341c-1 -172 -94 -285 -268 -284c-205 1 -280 132 -272 279c7 157 126 239 234 239c46 0 91 -8 123 -32c-20 36 -44 68 -72 97l-63 -37c-36 -4 -84 52 -80 79l57 29c-27 19 -56 36 -86 53c7 21 85 37 129 25
c17 -8 35 -18 53 -29zM196 270c-10 -116 31 -185 113 -182c81 2 107 79 107 177c0 80 -25 135 -101 140c-70 5 -112 -42 -119 -135z" />
    <glyph glyph-name="exclam" unicode="!" horiz-adv-x="357" 
d="M299 699l-56 -460c-29 -13 -108 -18 -146 -7l-33 466c46 25 189 23 235 1zM58 75c0 54 42 93 108 93s109 -39 109 -93c0 -52 -41 -91 -109 -91c-66 0 -108 39 -108 91z" />
    <glyph glyph-name="exclamdown" unicode="&#xa1;" horiz-adv-x="357" 
d="M58 -206l56 460c29 13 109 18 146 7l33 -466c-46 -25 -189 -23 -235 -1zM299 418c0 -54 -41 -94 -107 -94c-67 0 -109 40 -109 94c0 52 41 91 109 91c66 0 107 -39 107 -91z" />
    <glyph glyph-name="f" unicode="f" horiz-adv-x="427" 
d="M103 -4c6 167 7 247 14 388l-72 -7c-10 12 -13 108 2 127l77 -5c9 170 84 225 203 225c58 0 114 -17 149 -36c3 -32 -24 -98 -52 -108c-26 21 -47 27 -76 27c-45 0 -70 -29 -74 -112l136 9c13 -25 5 -102 -12 -124l-130 10c-9 -161 -13 -303 -18 -427
c-6 -143 -59 -211 -164 -211c-40 0 -103 11 -136 28c-10 27 13 116 38 125c24 -13 46 -19 65 -19c40 0 47 36 50 110z" />
    <glyph glyph-name="fi" unicode="&#xfb01;" horiz-adv-x="662" 
d="M575 494l-15 -300c-3 -66 0 -98 59 -80c16 -17 15 -66 0 -94c-23 -18 -67 -34 -109 -33c-64 1 -110 30 -107 127l8 276h-148c-9 -161 -13 -303 -18 -427c-5 -130 -47 -211 -159 -211c-43 0 -108 10 -141 27c-10 29 14 118 37 126c25 -12 48 -20 67 -20c41 0 47 41 49 119
c5 156 8 239 15 380l-72 -7c-11 11 -14 108 2 127l76 -5c9 166 82 225 236 225c85 0 239 -20 239 -111c0 -44 -33 -71 -77 -71c-93 0 -105 72 -173 72c-48 0 -70 -41 -75 -119l178 8c16 1 32 2 44 2c19 0 55 -3 84 -11z" />
    <glyph glyph-name="five" unicode="5" horiz-adv-x="547" 
d="M95 705h396c24 -43 5 -146 -33 -166l-245 21l-3 -119c147 -3 288 -65 288 -228c0 -161 -136 -233 -246 -233c-106 0 -181 27 -234 59c-2 34 24 100 50 118c42 -28 88 -55 148 -55c69 0 115 39 115 108c0 103 -83 130 -248 131z" />
    <glyph glyph-name="fl" unicode="&#xfb02;" horiz-adv-x="708" 
d="M98 -6c5 149 8 249 15 390l-69 -7c-12 12 -15 109 1 127l74 -5c9 166 100 225 218 225c87 0 198 -23 251 -46l-21 -492c-2 -60 31 -94 108 -55c20 -13 31 -67 17 -94c-19 -32 -74 -53 -136 -53c-76 0 -151 33 -145 168l19 443c-26 10 -55 17 -81 17
c-48 0 -75 -34 -80 -117l85 4c15 -24 11 -101 -4 -118l-86 9c-9 -161 -14 -303 -19 -423c-5 -124 -37 -215 -164 -215c-38 0 -103 11 -136 28c-10 31 15 117 38 125c26 -13 46 -19 65 -19c37 0 47 33 50 108z" />
    <glyph glyph-name="four" unicode="4" horiz-adv-x="606" 
d="M60 215l-42 109l320 402l153 -5l-8 -389l92 8c17 -26 10 -101 -5 -126l-103 1v-218c-26 -12 -136 -17 -165 -1l15 220zM330 323l11 253l-181 -256z" />
    <glyph glyph-name="fraction" unicode="&#x2044;" horiz-adv-x="448" 
d="M5 28l310 729c28 14 115 -18 134 -51l-308 -722c-30 -10 -128 15 -136 44z" />
    <glyph glyph-name="g" unicode="g" horiz-adv-x="600" 
d="M26 -120c0 67 50 115 109 140c-63 37 -100 108 -100 214c0 154 93 256 223 256c55 0 98 -20 136 -49l10 57c22 17 120 24 148 6c-11 -196 -12 -341 -13 -447c-1 -234 -86 -331 -285 -331c-113 0 -228 41 -228 154zM392 149l3 210c-29 19 -59 31 -91 31
c-62 0 -107 -54 -107 -152c0 -93 30 -143 96 -143c34 0 73 21 99 54zM272 -162c93 0 117 74 122 226c-40 -52 -86 -73 -137 -73c-14 0 -27 1 -40 3c-22 -22 -35 -51 -35 -85c0 -46 34 -71 90 -71z" />
    <glyph glyph-name="g.alt01" horiz-adv-x="600" 
d="M-119 -240c0 159 168 250 497 151c10 48 14 100 16 153c-40 -52 -86 -73 -137 -73c-135 0 -222 80 -222 243c0 154 93 256 223 256c55 0 98 -20 136 -49l10 57c22 17 120 24 148 6c-11 -196 -12 -341 -13 -447c0 -73 -11 -137 -29 -193c144 -55 301 -120 400 -120
c92 1 122 60 122 106c36 24 148 13 139 -75c-8 -83 -97 -137 -219 -137c-142 0 -306 72 -473 150c-74 -139 -207 -204 -338 -204c-187 0 -260 89 -260 176zM392 149l3 210c-29 19 -59 31 -91 31c-62 0 -107 -54 -107 -152c0 -93 30 -143 96 -143c34 0 73 21 99 54zM143 -310
c117 0 180 59 214 144c-182 62 -322 23 -322 -60c0 -44 49 -84 108 -84z" />
    <glyph glyph-name="gbreve" unicode="&#x11f;" horiz-adv-x="600" 
d="M26 -120c0 67 50 115 109 140c-63 37 -100 108 -100 214c0 154 93 256 223 256c55 0 98 -20 136 -49l10 57c22 17 120 24 148 6c-11 -196 -12 -341 -13 -447c-1 -234 -86 -331 -285 -331c-113 0 -228 41 -228 154zM392 149l3 210c-29 19 -59 31 -91 31
c-62 0 -107 -54 -107 -152c0 -93 30 -143 96 -143c34 0 73 21 99 54zM232 719c12 -41 43 -65 99 -65c54 0 83 22 98 65c17 12 75 3 84 -13c-13 -113 -92 -156 -184 -156c-91 0 -171 39 -181 156c10 22 72 26 84 13zM272 -162c93 0 117 74 122 226c-40 -52 -86 -73 -137 -73
c-14 0 -27 1 -40 3c-22 -22 -35 -51 -35 -85c0 -46 34 -71 90 -71z" />
    <glyph glyph-name="gcircumflex" unicode="&#x11d;" horiz-adv-x="600" 
d="M26 -120c0 67 50 115 109 140c-63 37 -100 108 -100 214c0 154 93 256 223 256c55 0 98 -20 136 -49l10 57c22 17 120 24 148 6c-11 -196 -12 -341 -13 -447c-1 -234 -86 -331 -285 -331c-113 0 -228 41 -228 154zM392 149l3 210c-29 19 -59 31 -91 31
c-62 0 -107 -54 -107 -152c0 -93 30 -143 96 -143c34 0 73 21 99 54zM313 623l-88 -74c-23 -8 -64 16 -64 29l117 155c18 15 62 12 80 0l120 -153c-6 -17 -39 -38 -75 -30zM272 -162c93 0 117 74 122 226c-40 -52 -86 -73 -137 -73c-14 0 -27 1 -40 3
c-22 -22 -35 -51 -35 -85c0 -46 34 -71 90 -71z" />
    <glyph glyph-name="gcommaaccent" unicode="&#x123;" horiz-adv-x="600" 
d="M26 -120c0 67 50 115 109 140c-63 37 -100 108 -100 214c0 154 93 256 223 256c55 0 98 -20 136 -49l10 57c22 17 120 24 148 6c-11 -196 -12 -341 -13 -447c-1 -234 -86 -331 -285 -331c-113 0 -228 41 -228 154zM392 149l3 210c-29 19 -59 31 -91 31
c-62 0 -107 -54 -107 -152c0 -93 30 -143 96 -143c34 0 73 21 99 54zM272 -162c93 0 117 74 122 226c-40 -52 -86 -73 -137 -73c-14 0 -27 1 -40 3c-22 -22 -35 -51 -35 -85c0 -46 34 -71 90 -71zM321 743c23 2 51 -29 50 -43c-18 -14 -31 -27 -39 -48c36 -8 52 -35 52 -65
c0 -37 -37 -64 -80 -64s-88 30 -88 87c0 56 39 107 105 133z" />
    <glyph glyph-name="gdotaccent" unicode="&#x121;" horiz-adv-x="600" 
d="M26 -120c0 67 50 115 109 140c-63 37 -100 108 -100 214c0 154 93 256 223 256c55 0 98 -20 136 -49l10 57c22 17 120 24 148 6c-11 -196 -12 -341 -13 -447c-1 -234 -86 -331 -285 -331c-113 0 -228 41 -228 154zM392 149l3 210c-29 19 -59 31 -91 31
c-62 0 -107 -54 -107 -152c0 -93 30 -143 96 -143c34 0 73 21 99 54zM272 -162c93 0 117 74 122 226c-40 -52 -86 -73 -137 -73c-14 0 -27 1 -40 3c-22 -22 -35 -51 -35 -85c0 -46 34 -71 90 -71zM338 570c-40 13 -81 48 -97 87c17 36 60 72 100 83c40 -15 80 -49 98 -86
c-15 -37 -62 -74 -101 -84z" />
    <glyph glyph-name="germandbls" unicode="&#xdf;" 
d="M56 0l23 472c9 194 135 254 255 254c143 0 223 -63 223 -149c0 -94 -84 -125 -84 -179c0 -67 110 -79 110 -217c0 -136 -111 -230 -299 -174c-22 14 -23 92 11 115c93 -29 131 20 131 70c0 85 -79 117 -79 188s52 96 52 166c0 38 -26 65 -76 65c-57 0 -99 -45 -100 -165
l-4 -446c-24 -17 -131 -24 -163 0z" />
    <glyph glyph-name="grave" unicode="`" horiz-adv-x="324" 
d="M217 729l37 -142c-7 -18 -45 -30 -76 -22l-110 144c21 27 131 44 149 20z" />
    <glyph glyph-name="greater" unicode="&#x3e;" horiz-adv-x="560" 
d="M93 631l460 -303l-471 -301c-41 8 -71 93 -63 132l321 162l-321 187c-8 39 26 117 74 123z" />
    <glyph glyph-name="greaterequal" unicode="&#x2265;" horiz-adv-x="563" 
d="M80 644l460 -303l-468 -299c-37 7 -68 83 -64 118l321 176l-321 192c-4 44 30 115 72 116zM497 256l-399 -256c-7 -38 42 -99 76 -99l390 253c7 40 -36 94 -67 102z" />
    <glyph glyph-name="guillemotleft" unicode="&#xab;" horiz-adv-x="587" 
d="M190 30l-174 233l192 238c33 -2 107 -54 104 -96l-157 -142l150 -141c-2 -38 -63 -91 -115 -92zM445 30l-191 233l208 238c50 -5 102 -66 97 -103l-167 -135l156 -129c4 -37 -51 -102 -103 -104z" />
    <glyph glyph-name="guillemotright" unicode="&#xbb;" horiz-adv-x="586" 
d="M396 501l174 -233l-199 -239c-35 4 -103 59 -100 93l162 145l-148 136c-2 38 67 97 111 98zM141 501l191 -234l-209 -238c-49 5 -99 66 -96 103l167 135l-157 130c-1 47 59 100 104 104z" />
    <glyph glyph-name="guilsinglleft" unicode="&#x2039;" horiz-adv-x="349" 
d="M204 30l-188 233l206 238c45 -3 105 -66 100 -103l-167 -135l156 -129c3 -45 -63 -104 -107 -104z" />
    <glyph glyph-name="guilsinglright" unicode="&#x203a;" horiz-adv-x="349" 
d="M145 500l187 -233l-206 -238c-43 4 -103 63 -99 103l168 135l-158 129c-2 45 62 103 108 104z" />
    <glyph glyph-name="h" unicode="h" horiz-adv-x="625" 
d="M80 690c18 21 114 30 153 20l-13 -283c47 57 103 85 172 85c120 0 154 -83 150 -196l-7 -175c-2 -42 34 -35 60 -28c11 -14 14 -63 0 -87c-23 -21 -61 -37 -116 -37c-61 0 -103 32 -101 109c0 33 5 93 10 179c4 81 -20 106 -72 106c-37 0 -67 -18 -100 -52l-7 -331
c-25 -11 -128 -16 -155 0z" />
    <glyph glyph-name="hbar" unicode="&#x127;" horiz-adv-x="634" 
d="M90 690c18 21 114 30 153 20l-3 -66l110 3c20 -6 15 -84 1 -97l-116 -5l-5 -118c47 57 103 85 172 85c120 0 154 -83 150 -196l-7 -175c-2 -42 34 -35 60 -28c11 -14 14 -63 0 -87c-23 -21 -61 -37 -116 -37c-61 0 -103 32 -101 109c0 33 5 93 10 179
c4 81 -20 106 -72 106c-37 0 -67 -18 -100 -52l-7 -331c-25 -11 -128 -16 -155 0l20 538l-68 -3c-21 9 -25 93 -8 104l80 2z" />
    <glyph glyph-name="hcircumflex" unicode="&#x125;" horiz-adv-x="610" 
d="M65 690c18 21 114 30 153 20l-13 -283c47 57 103 85 172 85c120 0 154 -83 150 -196l-7 -175c-2 -42 34 -35 60 -28c11 -14 14 -63 0 -87c-23 -21 -61 -37 -116 -37c-61 0 -103 32 -101 109c0 33 5 93 10 179c4 81 -20 106 -72 106c-37 0 -67 -18 -100 -52l-7 -331
c-25 -11 -128 -16 -155 0zM196 782l-125 -43c-22 3 -42 37 -41 55l128 109c13 12 67 12 84 0l132 -109c1 -18 -29 -53 -50 -54z" />
    <glyph glyph-name="hungarumlaut" unicode="&#x2dd;" horiz-adv-x="489" 
d="M323 729c17 17 119 9 146 -20l-139 -143c-28 -8 -76 4 -81 21zM117 729c23 18 127 8 149 -19l-107 -144c-25 -7 -74 9 -79 21z" />
    <glyph glyph-name="hyphen" unicode="-" horiz-adv-x="371" 
d="M78 334l215 8c15 -34 11 -100 -5 -131l-205 -10c-18 30 -19 99 -5 133z" />
    <glyph glyph-name="i" unicode="i" horiz-adv-x="322" 
d="M235 494l-15 -314c-3 -66 9 -81 60 -66c15 -15 15 -65 0 -93c-23 -22 -74 -35 -110 -34c-59 1 -109 26 -106 126l11 385c43 11 118 12 160 -4zM159 575c-59 0 -91 42 -91 77c0 53 44 88 101 88c61 0 92 -35 92 -72c0 -69 -55 -93 -102 -93z" />
    <glyph glyph-name="iacute" unicode="&#xed;" horiz-adv-x="322" 
d="M235 494l-15 -316c-3 -67 13 -78 60 -64c14 -15 16 -63 0 -93c-23 -20 -69 -35 -113 -34c-61 1 -106 33 -103 125l11 386c48 11 113 12 160 -4zM149 729c22 17 128 9 152 -22l-116 -141c-24 -8 -76 9 -79 21z" />
    <glyph glyph-name="icircumflex" unicode="&#xee;" horiz-adv-x="325" 
d="M236 494l-15 -316c-3 -65 11 -79 60 -64c15 -15 15 -65 0 -93c-25 -22 -70 -35 -113 -34c-66 1 -106 39 -103 126l11 385c47 10 112 12 160 -4zM155 623l-88 -74c-23 -8 -64 16 -64 29l117 155c18 15 62 12 80 0l120 -153c-6 -17 -39 -38 -75 -30z" />
    <glyph glyph-name="idieresis" unicode="&#xef;" horiz-adv-x="331" 
d="M268 569c-38 13 -72 50 -88 86c14 33 54 68 92 78c35 -15 73 -45 89 -85c-15 -35 -58 -69 -93 -79zM54 570c-39 15 -71 50 -88 85c15 36 55 69 92 80c34 -14 73 -49 88 -86c-15 -35 -57 -68 -92 -79zM238 494l-15 -312c-3 -67 8 -83 59 -68c15 -15 16 -65 1 -93
c-27 -24 -78 -35 -111 -34c-59 1 -108 28 -105 125l11 386c47 11 112 11 160 -4z" />
    <glyph glyph-name="igrave" unicode="&#xec;" horiz-adv-x="322" 
d="M235 494l-15 -314c-3 -69 12 -80 60 -67c16 -15 15 -65 0 -93c-22 -18 -67 -34 -111 -33c-62 1 -108 30 -105 126l11 385c48 11 112 12 160 -4zM168 729l37 -142c-7 -18 -45 -30 -76 -22l-110 144c21 27 131 44 149 20z" />
    <glyph glyph-name="imacron" unicode="&#x12b;" horiz-adv-x="329" 
d="M255 494l-15 -314c-3 -66 9 -81 60 -66c15 -15 15 -65 0 -93c-23 -22 -74 -35 -110 -34c-59 1 -109 26 -106 126l11 385c43 11 118 12 160 -4zM29 689l275 8c21 -10 16 -92 0 -111h-267c-22 12 -27 91 -8 103z" />
    <glyph glyph-name="infinity" unicode="&#x221e;" horiz-adv-x="856" 
d="M631 550c108 0 196 -88 196 -229c0 -135 -69 -247 -198 -247c-88 0 -138 52 -193 136c-49 -84 -97 -136 -189 -136c-144 0 -214 110 -214 227c0 164 103 248 193 248c102 0 151 -62 190 -150c58 87 122 151 215 151zM493 292l-16 -24c42 -48 81 -73 128 -73
c56 0 89 54 89 118c0 57 -34 91 -79 91c-46 -1 -83 -52 -122 -112zM254 202c56 0 88 66 126 138c-39 47 -77 69 -125 69c-50 0 -92 -32 -92 -100c0 -70 51 -107 91 -107z" />
    <glyph glyph-name="integral" unicode="&#x222b;" horiz-adv-x="507" 
d="M446 784c17 -51 -14 -129 -48 -138c-37 23 -94 45 -123 43l75 -681c21 -185 -29 -295 -139 -295c-39 0 -86 7 -141 18c-21 26 -18 118 12 141c44 -12 98 -27 142 -27l-86 715c-21 163 45 274 133 274c53 0 127 -20 175 -50z" />
    <glyph glyph-name="iogonek" unicode="&#x12f;" horiz-adv-x="353" 
d="M250 494l-15 -314c-3 -66 9 -81 60 -66c15 -15 15 -65 0 -93c-14 -14 -39 -23 -64 -29c-46 -24 -80 -61 -80 -90c0 -16 10 -29 30 -29c21 0 41 10 59 28c19 3 46 -30 41 -54c-22 -39 -63 -75 -131 -75c-58 0 -118 29 -118 96c0 57 36 100 90 134c-28 17 -45 50 -43 111
l11 385c43 11 118 12 160 -4zM174 575c-59 0 -91 42 -91 77c0 53 44 88 101 88c61 0 92 -35 92 -72c0 -69 -55 -93 -102 -93z" />
    <glyph glyph-name="j" unicode="j" horiz-adv-x="396" 
d="M307 -47c-7 -137 -74 -192 -185 -192c-97 0 -180 34 -180 132c0 101 99 180 225 220c3 138 2 248 -9 384c27 16 149 15 168 2c-6 -187 -10 -373 -19 -546zM241 575c-60 0 -93 41 -93 77c0 52 42 88 103 88c60 0 94 -34 94 -74c0 -68 -54 -91 -104 -91zM123 -125
c29 0 37 30 41 136c0 11 0 22 1 33c-48 -36 -71 -87 -71 -120s11 -49 29 -49z" />
    <glyph glyph-name="j.alt01" horiz-adv-x="418" 
d="M163 66l3 423c21 22 139 33 161 11c-20 -147 -25 -305 -25 -454c0 -69 -10 -127 -26 -175c156 -56 309 -127 421 -127c83 0 125 49 121 105c45 30 146 7 140 -73c-7 -78 -94 -138 -215 -138c-154 0 -329 81 -501 161c-62 -98 -160 -132 -249 -132
c-128 0 -223 48 -223 148c0 84 73 138 179 138c50 0 119 -10 200 -38c9 42 13 91 14 151zM241 575c-60 0 -93 41 -93 77c0 52 42 88 103 88c60 0 94 -34 94 -74c0 -68 -54 -91 -104 -91zM14 -227c48 0 84 22 108 67c-127 55 -198 26 -198 -17c0 -34 42 -50 90 -50z" />
    <glyph glyph-name="jcircumflex" unicode="&#x135;" horiz-adv-x="363" 
d="M307 -47c-7 -137 -74 -192 -185 -192c-97 0 -180 34 -180 132c0 101 99 180 225 220c3 138 2 248 -9 384c27 16 149 15 168 2c-6 -187 -10 -373 -19 -546zM231 623l-88 -74c-23 -8 -64 16 -64 29l117 155c18 15 62 12 80 0l120 -153c-6 -17 -39 -38 -75 -30zM123 -125
c29 0 37 30 41 136c0 11 0 22 1 33c-48 -36 -71 -87 -71 -120s11 -49 29 -49z" />
    <glyph glyph-name="k" unicode="k" horiz-adv-x="583" 
d="M213 9c-15 -20 -139 -25 -159 -5l26 674c15 22 142 36 161 21l-15 -242c49 37 115 63 172 63c86 0 130 -47 130 -118c0 -82 -62 -138 -133 -169c30 -60 55 -104 95 -119c22 -9 43 -7 58 3c21 -7 26 -63 14 -88c-18 -24 -52 -45 -93 -45c-98 0 -152 63 -211 204
c-2 5 -28 0 -45 -4v-175zM325 409c-32 0 -69 -22 -105 -53l-6 -104c70 12 161 51 161 112c0 31 -18 45 -50 45z" />
    <glyph glyph-name="kcommaaccent" unicode="&#x137;" horiz-adv-x="583" 
d="M213 9c-15 -20 -139 -25 -159 -5l26 674c15 22 142 36 161 21l-15 -242c49 37 115 63 172 63c86 0 130 -47 130 -118c0 -82 -62 -138 -133 -169c30 -60 55 -104 95 -119c22 -9 43 -7 58 3c21 -7 26 -63 14 -88c-18 -24 -52 -45 -93 -45c-98 0 -152 63 -211 204
c-2 5 -28 0 -45 -4v-175zM254 -265c-23 -2 -51 29 -50 43c18 14 31 27 39 48c-36 8 -52 35 -52 65c0 37 37 64 80 64s88 -30 88 -87c0 -56 -39 -107 -105 -133zM325 409c-32 0 -69 -22 -105 -53l-6 -104c70 12 161 51 161 112c0 31 -18 45 -50 45z" />
    <glyph glyph-name="l" unicode="l" horiz-adv-x="358" 
d="M56 162l23 517c24 34 130 40 154 25l-20 -512c-2 -57 11 -80 47 -80c20 0 42 7 60 20c18 -11 31 -61 20 -93c-24 -35 -72 -55 -138 -55c-94 0 -152 47 -146 178z" />
    <glyph glyph-name="lacute" unicode="&#x13a;" horiz-adv-x="371" 
d="M56 162l23 517c24 34 130 40 154 25l-20 -512c-2 -57 11 -80 47 -80c20 0 42 7 60 20c18 -11 31 -61 20 -93c-24 -35 -72 -55 -138 -55c-94 0 -152 47 -146 178zM305 927c42 -7 78 -89 63 -140l-195 -53c-22 4 -42 56 -40 82z" />
    <glyph glyph-name="lcaron" unicode="&#x13e;" horiz-adv-x="444" 
d="M327 700c16 26 119 28 128 11c0 -77 -30 -175 -58 -213c-18 -14 -84 2 -84 24c20 59 28 117 14 178zM56 162l23 517c24 34 130 40 154 25l-20 -512c-2 -57 11 -80 47 -80c20 0 42 7 60 20c18 -11 31 -61 20 -93c-24 -35 -72 -55 -138 -55c-94 0 -152 47 -146 178z" />
    <glyph glyph-name="lcommaaccent" unicode="&#x13c;" horiz-adv-x="358" 
d="M56 162l23 517c24 34 130 40 154 25l-20 -512c-2 -57 11 -80 47 -80c20 0 42 7 60 20c18 -11 31 -61 20 -93c-24 -35 -72 -55 -138 -55c-94 0 -152 47 -146 178zM181 -269c-23 -2 -51 29 -50 43c18 14 31 27 39 48c-36 8 -52 35 -52 65c0 37 37 64 80 64s88 -30 88 -87
c0 -56 -39 -107 -105 -133z" />
    <glyph glyph-name="ldot" unicode="&#x140;" horiz-adv-x="447" 
d="M357 305c-40 15 -74 50 -91 87c16 37 57 72 94 83c40 -16 75 -49 92 -86c-17 -38 -58 -72 -95 -84zM55 162l23 517c24 34 130 40 154 25l-20 -512c-2 -57 11 -80 47 -80c20 0 42 7 60 20c18 -11 31 -61 20 -93c-24 -35 -72 -55 -138 -55c-94 0 -152 47 -146 178z" />
    <glyph glyph-name="less" unicode="&#x3c;" horiz-adv-x="571" 
d="M464 11l-447 312l443 294c40 -4 85 -88 80 -130l-313 -161l309 -186c8 -41 -29 -124 -72 -129z" />
    <glyph glyph-name="lessequal" unicode="&#x2264;" horiz-adv-x="571" 
d="M475 31l-440 309l443 294c33 -6 71 -74 66 -123l-297 -168l297 -195c2 -43 -29 -108 -69 -117zM70 252l375 -269c5 -30 -53 -105 -84 -113l-354 281c-11 24 36 97 63 101z" />
    <glyph glyph-name="logicalnot" unicode="&#xac;" horiz-adv-x="530" 
d="M59 417l408 8l-6 -237c-36 -20 -137 -15 -143 10l10 104l-264 -14c-14 34 -13 93 -5 129z" />
    <glyph glyph-name="lozenge" unicode="&#x25ca;" horiz-adv-x="612" 
d="M313 649c0 0 249 -390 249 -391s-250 -383 -250 -383l-262 386s262 384 263 388zM297 430l-101 -184l127 -167l103 172z" />
    <glyph glyph-name="lslash" unicode="&#x142;" horiz-adv-x="393" 
d="M85 162l3 71l-44 -20c-23 5 -48 65 -40 101l89 40l15 325c24 34 130 40 154 25l-11 -278l60 27c21 -8 49 -70 34 -104l-99 -45l-4 -112c-2 -57 11 -80 47 -80c20 0 42 7 60 20c18 -11 31 -61 20 -93c-24 -35 -72 -55 -138 -55c-94 0 -152 47 -146 178z" />
    <glyph glyph-name="m" unicode="m" horiz-adv-x="930" 
d="M697 110l7 176c2 67 -17 98 -67 98c-37 0 -79 -29 -100 -61v-18l-10 -303c-38 -20 -130 -19 -152 -4l7 290c2 70 -21 95 -66 95c-33 0 -72 -17 -101 -65l-4 -318c-26 -11 -131 -16 -157 0c7 202 24 321 9 496c18 21 125 24 149 12l8 -86c41 56 93 90 171 90
c63 0 121 -29 130 -100c46 62 101 100 180 100c127 0 165 -93 158 -210l-8 -154c-1 -33 12 -49 50 -38c11 -14 12 -68 2 -88c-19 -23 -54 -35 -96 -35c-81 0 -113 36 -110 123z" />
    <glyph glyph-name="macron" unicode="&#xaf;" horiz-adv-x="353" 
d="M35 689l275 8c21 -10 16 -92 0 -111h-267c-22 12 -27 91 -8 103z" />
    <glyph glyph-name="minus" unicode="&#x2212;" horiz-adv-x="534" 
d="M69 416l394 8c14 -33 15 -96 -5 -127l-384 -10c-17 31 -17 94 -5 129z" />
    <glyph glyph-name="mu" unicode="&#xb5;" horiz-adv-x="629" 
d="M57 190l14 304c29 16 120 24 159 11l-18 -255c-6 -89 10 -143 78 -141c35 2 77 28 99 51c-1 111 7 228 19 342c42 17 113 13 147 0c-19 -167 -22 -333 -6 -500c-25 -21 -106 -28 -136 -6l-15 75c-34 -43 -72 -76 -140 -79c-45 -2 -84 11 -103 51l22 -200
c-23 -22 -126 -31 -141 -4z" />
    <glyph glyph-name="mu" unicode="&#x3bc;" horiz-adv-x="629" 
d="M57 190l14 304c29 16 120 24 159 11l-18 -255c-6 -89 10 -143 78 -141c35 2 77 28 99 51c-1 111 7 228 19 342c42 17 113 13 147 0c-19 -167 -22 -333 -6 -500c-25 -21 -106 -28 -136 -6l-15 75c-34 -43 -72 -76 -140 -79c-45 -2 -84 11 -103 51l22 -200
c-23 -22 -126 -31 -141 -4z" />
    <glyph glyph-name="multiply" unicode="&#xd7;" horiz-adv-x="557" 
d="M196 352l-119 96c-8 25 71 100 105 106l97 -120l99 114c25 6 100 -48 101 -79l-114 -111l115 -97c5 -29 -71 -105 -99 -100l-99 112l-85 -97c-20 -7 -112 53 -107 77z" />
    <glyph glyph-name="n" unicode="n" horiz-adv-x="627" 
d="M547 315l-5 -167c-1 -33 3 -49 55 -36c12 -16 14 -62 1 -82c-23 -24 -64 -40 -110 -40c-70 0 -104 34 -101 125l7 172c3 75 -25 96 -76 96c-37 0 -74 -24 -102 -61l-3 -322c-26 -11 -133 -16 -159 0c7 202 24 321 9 496c18 21 127 24 151 12l7 -90c47 67 116 94 176 94
c130 0 154 -89 150 -197z" />
    <glyph glyph-name="nacute" unicode="&#x144;" horiz-adv-x="627" 
d="M547 315l-5 -167c-1 -33 3 -49 55 -36c12 -16 14 -62 1 -82c-23 -24 -64 -40 -110 -40c-70 0 -104 34 -101 125l7 172c3 75 -25 96 -76 96c-37 0 -74 -24 -102 -61l-3 -322c-26 -11 -133 -16 -159 0c7 202 24 321 9 496c18 21 127 24 151 12l7 -90c47 67 116 94 176 94
c130 0 154 -89 150 -197zM309 729c22 17 128 9 152 -22l-116 -141c-24 -8 -76 9 -79 21z" />
    <glyph glyph-name="ncaron" unicode="&#x148;" horiz-adv-x="627" 
d="M547 315l-5 -167c-1 -33 3 -49 55 -36c12 -16 14 -62 1 -82c-23 -24 -64 -40 -110 -40c-70 0 -104 34 -101 125l7 172c3 75 -25 96 -76 96c-37 0 -74 -24 -102 -61l-3 -322c-26 -11 -133 -16 -159 0c7 202 24 321 9 496c18 21 127 24 151 12l7 -90c47 67 116 94 176 94
c130 0 154 -89 150 -197zM342 646l88 78c23 9 64 -11 67 -27l-100 -140c-24 -21 -90 -18 -116 0l-102 139c5 21 47 36 81 27z" />
    <glyph glyph-name="ncommaaccent" unicode="&#x146;" horiz-adv-x="627" 
d="M547 315l-5 -167c-1 -33 3 -49 55 -36c12 -16 14 -62 1 -82c-23 -24 -64 -40 -110 -40c-70 0 -104 34 -101 125l7 172c3 75 -25 96 -76 96c-37 0 -74 -24 -102 -61l-3 -322c-26 -11 -133 -16 -159 0c7 202 24 321 9 496c18 21 127 24 151 12l7 -90c47 67 116 94 176 94
c130 0 154 -89 150 -197zM281 -252c-23 -2 -51 29 -50 43c18 14 31 27 39 48c-36 8 -52 35 -52 65c0 37 37 64 80 64s88 -30 88 -87c0 -56 -39 -107 -105 -133z" />
    <glyph glyph-name="nine" unicode="9" horiz-adv-x="612" 
d="M568 404c0 -262 -192 -427 -500 -408c-22 19 -14 97 3 117c192 10 300 79 334 206c-41 -32 -82 -65 -167 -65c-129 0 -204 85 -204 224c0 125 99 239 261 239c197 0 273 -117 273 -313zM300 357c28 0 75 21 90 35c6 22 10 51 10 78c0 92 -37 142 -102 142
c-59 0 -98 -48 -98 -139c0 -71 39 -116 100 -116z" />
    <glyph glyph-name="notequal" unicode="&#x2260;" horiz-adv-x="608" 
d="M110 454l191 4l52 132c18 9 87 -9 100 -33l-38 -97l79 2c12 -37 12 -81 -5 -118l-121 -4l-27 -66l153 3c11 -35 12 -79 -6 -118l-194 -5l-49 -126c-21 -8 -96 12 -100 30l36 93l-67 -2c-15 36 -14 83 -4 120l118 2l26 66l-139 -3c-17 35 -14 84 -5 120z" />
    <glyph glyph-name="ntilde" unicode="&#xf1;" horiz-adv-x="627" 
d="M214 574c-29 2 -49 56 -44 78c12 33 52 63 98 63c53 0 87 -31 125 -31c24 0 35 8 49 27c17 4 58 -16 62 -44c-3 -62 -44 -99 -94 -99c-57 0 -83 32 -135 32c-25 0 -44 -12 -61 -26zM547 315l-5 -167c-1 -33 3 -49 55 -36c12 -16 14 -62 1 -82c-23 -24 -64 -40 -110 -40
c-70 0 -104 34 -101 125l7 172c3 75 -25 96 -76 96c-37 0 -74 -24 -102 -61l-3 -322c-26 -11 -133 -16 -159 0c7 202 24 321 9 496c18 21 127 24 151 12l7 -90c47 67 116 94 176 94c130 0 154 -89 150 -197z" />
    <glyph glyph-name="numbersign" unicode="#" horiz-adv-x="826" 
d="M726 156h-157l-23 -154c-18 -18 -112 -18 -139 1l24 153h-160l-23 -154c-10 -14 -118 -15 -137 1l24 153h-104c-19 21 -16 99 4 123h119l27 170h-119c-20 23 -13 96 6 119h132l20 127c16 14 109 16 132 1l-19 -128h163l20 127c28 24 115 20 134 1l-19 -128h132
c21 -22 19 -107 -6 -119h-144l-26 -170h143c19 -20 18 -102 -4 -123zM315 449l-26 -170h161l27 170h-162z" />
    <glyph glyph-name="o" unicode="o" horiz-adv-x="600" 
d="M305 512c190 0 262 -112 262 -247c0 -166 -95 -281 -271 -280c-201 0 -263 133 -263 250c0 189 135 277 272 277zM195 233c0 -81 23 -145 99 -145c88 0 113 74 113 176c0 80 -20 141 -99 141c-66 0 -113 -56 -113 -172z" />
    <glyph glyph-name="oacute" unicode="&#xf3;" horiz-adv-x="600" 
d="M305 512c190 0 262 -112 262 -247c0 -166 -95 -281 -271 -280c-201 0 -263 133 -263 250c0 189 135 277 272 277zM195 233c0 -81 23 -145 99 -145c88 0 113 74 113 176c0 80 -20 141 -99 141c-66 0 -113 -56 -113 -172zM317 729c22 17 128 9 152 -22l-116 -141
c-24 -8 -76 9 -79 21z" />
    <glyph glyph-name="ocircumflex" unicode="&#xf4;" horiz-adv-x="600" 
d="M305 512c190 0 262 -112 262 -247c0 -166 -95 -281 -271 -280c-201 0 -263 133 -263 250c0 189 135 277 272 277zM195 233c0 -81 23 -145 99 -145c88 0 113 74 113 176c0 80 -20 141 -99 141c-66 0 -113 -56 -113 -172zM311 623l-88 -74c-23 -8 -64 16 -64 29l117 155
c18 15 62 12 80 0l120 -153c-6 -17 -39 -38 -75 -30z" />
    <glyph glyph-name="odieresis" unicode="&#xf6;" horiz-adv-x="600" 
d="M438 569c-37 13 -73 51 -87 86c14 37 58 69 92 78c36 -14 75 -49 89 -85c-14 -34 -60 -70 -94 -79zM204 570c-36 14 -70 50 -87 86c14 34 57 70 92 79c35 -12 75 -53 88 -86c-14 -34 -58 -69 -93 -79zM305 512c190 0 262 -112 262 -247c0 -166 -95 -281 -271 -280
c-201 0 -263 133 -263 250c0 189 135 277 272 277zM195 233c0 -81 23 -145 99 -145c88 0 113 74 113 176c0 80 -20 141 -99 141c-66 0 -113 -56 -113 -172z" />
    <glyph glyph-name="oe" unicode="&#x153;" horiz-adv-x="942" 
d="M570 222c0 -65 37 -115 140 -115c61 0 112 21 156 53c26 -19 40 -56 25 -101c-56 -47 -142 -74 -234 -69c-74 3 -132 28 -171 74c-42 -50 -105 -78 -190 -78c-201 1 -263 129 -263 249c0 186 131 275 272 275c91 0 153 -30 191 -76c46 49 114 78 197 78
c167 0 223 -77 223 -153c0 -161 -204 -174 -346 -137zM195 236c0 -85 23 -148 99 -148c87 0 113 72 113 174c0 72 -17 144 -100 144c-65 0 -112 -58 -112 -170zM567 288c45 -8 191 -19 191 65c0 44 -26 62 -67 62c-88 0 -119 -66 -124 -127z" />
    <glyph glyph-name="ogonek" unicode="&#x2db;" horiz-adv-x="340" 
d="M218 42l42 -48c-48 -24 -85 -62 -85 -92c0 -16 10 -29 30 -29c21 0 41 10 59 28c19 3 46 -30 41 -54c-22 -39 -63 -75 -131 -75c-58 0 -118 29 -118 96c0 80 72 131 162 174z" />
    <glyph glyph-name="ograve" unicode="&#xf2;" horiz-adv-x="600" 
d="M305 512c190 0 262 -112 262 -247c0 -166 -95 -281 -271 -280c-201 0 -263 133 -263 250c0 189 135 277 272 277zM195 233c0 -81 23 -145 99 -145c88 0 113 74 113 176c0 80 -20 141 -99 141c-66 0 -113 -56 -113 -172zM336 729l37 -142c-7 -18 -45 -30 -76 -22l-110 144
c21 27 131 44 149 20z" />
    <glyph glyph-name="ohungarumlaut" unicode="&#x151;" horiz-adv-x="602" 
d="M305 512c190 0 262 -112 262 -247c0 -166 -95 -281 -271 -280c-201 0 -263 133 -263 250c0 189 135 277 272 277zM195 233c0 -81 23 -145 99 -145c88 0 113 74 113 176c0 80 -20 141 -99 141c-66 0 -113 -56 -113 -172zM417 729c17 17 119 9 146 -20l-139 -143
c-28 -8 -76 4 -81 21zM211 729c23 18 127 8 149 -19l-107 -144c-25 -7 -74 9 -79 21z" />
    <glyph glyph-name="omacron" unicode="&#x14d;" horiz-adv-x="600" 
d="M305 512c190 0 262 -112 262 -247c0 -166 -95 -281 -271 -280c-201 0 -263 133 -263 250c0 189 135 277 272 277zM195 233c0 -81 23 -145 99 -145c88 0 113 74 113 176c0 80 -20 141 -99 141c-66 0 -113 -56 -113 -172zM165 689l275 8c21 -10 16 -92 0 -111h-267
c-22 12 -27 91 -8 103z" />
    <glyph glyph-name="one" unicode="1" horiz-adv-x="425" 
d="M153 542l-61 -56c-31 8 -67 75 -66 101l182 139c34 2 96 -27 106 -55l-15 -564l103 -6c8 -20 1 -86 -14 -101l-361 -1c-13 11 -11 110 2 121l102 -5z" />
    <glyph glyph-name="oslash" unicode="&#xf8;" horiz-adv-x="603" 
d="M306 512c34 0 64 -4 90 -11l38 67c31 14 109 -28 113 -59l-45 -64c46 -45 66 -109 66 -180c0 -166 -95 -281 -271 -280c-35 0 -65 4 -91 11l-46 -81c-32 -7 -90 31 -100 58c0 0 20 28 51 72c-57 49 -77 122 -77 190c0 189 135 277 272 277zM305 169l-44 -76
c10 -4 21 -5 34 -5c88 0 113 74 113 176c0 16 -1 31 -3 46zM196 233c0 -21 1 -40 5 -57c26 39 53 80 79 121l59 104c-9 3 -19 4 -30 4c-66 0 -113 -56 -113 -172z" />
    <glyph glyph-name="otilde" unicode="&#xf5;" horiz-adv-x="600" 
d="M198 574c-29 2 -49 56 -44 78c12 33 52 63 98 63c53 0 87 -31 125 -31c24 0 35 8 49 27c17 4 58 -16 62 -44c-3 -62 -44 -99 -94 -99c-57 0 -83 32 -135 32c-25 0 -44 -12 -61 -26zM305 512c190 0 262 -112 262 -247c0 -166 -95 -281 -271 -280c-201 0 -263 133 -263 250
c0 189 135 277 272 277zM195 233c0 -81 23 -145 99 -145c88 0 113 74 113 176c0 80 -20 141 -99 141c-66 0 -113 -56 -113 -172z" />
    <glyph glyph-name="p" unicode="p" horiz-adv-x="612" 
d="M222 507l7 -75c42 46 89 80 167 80c95 0 183 -57 183 -227c0 -241 -149 -335 -365 -270l-12 -238c-37 -16 -122 -16 -156 -6c14 241 40 482 26 725c37 19 112 20 150 11zM224 327l-7 -204c134 -61 197 19 197 146c0 81 -26 118 -86 118c-38 0 -71 -18 -104 -60z" />
    <glyph glyph-name="p.alt01" horiz-adv-x="617" 
d="M82 66l2 423c21 22 140 33 162 11c-3 -18 -5 -37 -7 -55c46 43 90 67 162 67c100 0 181 -63 181 -229c0 -222 -128 -334 -363 -269c-2 -55 -11 -103 -25 -143c157 -56 309 -127 421 -127c83 0 125 49 121 105c45 30 147 7 140 -73c-7 -78 -94 -138 -215 -138
c-154 0 -329 81 -501 161c-62 -98 -160 -132 -249 -132c-127 0 -222 48 -222 148c0 84 72 138 179 138c49 0 119 -10 199 -38c9 41 14 91 15 151zM330 387c-34 0 -68 -16 -101 -57c-5 -69 -8 -139 -9 -208c124 -53 197 5 197 144c0 85 -27 121 -87 121zM-68 -227
c49 0 84 22 109 67c-127 54 -198 26 -198 -17c0 -34 41 -50 89 -50z" />
    <glyph glyph-name="paragraph" unicode="&#xb6;" horiz-adv-x="702" 
d="M643 562l-82 12l-9 -694c-23 -29 -127 -35 -165 -6l46 715c-29 14 -65 15 -96 7l-12 -375c-199 -2 -298 85 -298 242c0 163 108 255 320 255c106 0 219 -10 311 -21c13 -30 11 -112 -15 -135z" />
    <glyph glyph-name="parenleft" unicode="(" horiz-adv-x="360" 
d="M342 669c-77 -97 -130 -237 -130 -427c0 -163 26 -318 103 -440c-9 -21 -52 -51 -96 -52c-86 89 -164 259 -164 494c0 222 100 412 206 482c36 -5 71 -36 81 -57z" />
    <glyph glyph-name="parenright" unicode=")" horiz-adv-x="343" 
d="M41 660c8 24 54 52 78 53c95 -77 169 -233 169 -465c0 -238 -75 -401 -190 -496c-40 3 -78 32 -80 59c68 81 114 246 114 443c0 201 -43 339 -91 406z" />
    <glyph glyph-name="partialdiff" unicode="&#x2202;" horiz-adv-x="623" 
d="M146 622c-13 22 24 92 54 96c255 -36 389 -214 386 -428c-3 -199 -116 -305 -282 -304c-206 1 -285 135 -270 292c15 142 124 226 238 226c57 0 106 -12 144 -46c-49 95 -176 146 -270 164zM186 276c-18 -116 33 -183 122 -180c85 3 118 78 121 167
c2 65 -28 124 -106 131c-79 7 -125 -41 -137 -118z" />
    <glyph glyph-name="percent" unicode="%" horiz-adv-x="837" 
d="M77 39l535 676c27 12 103 -32 112 -68l-537 -681c-21 -9 -105 48 -110 73zM234 718c101 -1 151 -70 147 -156c-5 -109 -63 -182 -168 -181c-131 1 -174 90 -163 187c10 93 80 151 184 150zM147 558c-6 -54 17 -80 66 -86c36 -5 67 29 73 74c6 48 -10 79 -61 83
c-42 4 -73 -25 -78 -71zM641 324c101 -1 151 -70 147 -156c-4 -109 -63 -182 -168 -181c-131 1 -174 90 -162 187c9 93 79 151 183 150zM555 161c-6 -54 16 -77 65 -83c37 -5 68 29 74 73c6 49 -11 76 -62 80c-41 4 -72 -24 -77 -70z" />
    <glyph glyph-name="period" unicode="." horiz-adv-x="340" 
d="M46 87c0 63 56 107 124 107s124 -43 124 -107c0 -63 -56 -106 -124 -106s-124 41 -124 106z" />
    <glyph glyph-name="perthousand" unicode="&#x2030;" horiz-adv-x="1197" 
d="M77 39l535 676c27 12 103 -32 112 -68l-537 -681c-21 -9 -105 48 -110 73zM234 718c101 -1 151 -70 147 -156c-5 -109 -63 -182 -168 -181c-131 1 -174 90 -163 187c10 93 80 151 184 150zM147 558c-6 -54 17 -80 66 -86c36 -5 67 29 73 74c6 48 -10 79 -61 83
c-42 4 -73 -25 -78 -71zM641 324c101 -1 151 -70 147 -156c-4 -109 -63 -182 -168 -181c-131 1 -174 90 -162 187c9 93 79 151 183 150zM555 161c-6 -54 16 -77 65 -83c37 -5 68 29 74 73c6 49 -11 76 -62 80c-41 4 -72 -24 -77 -70zM1019 324c101 -1 151 -70 147 -156
c-4 -109 -63 -182 -168 -181c-131 1 -174 90 -162 187c9 93 79 151 183 150zM933 161c-6 -54 16 -77 64 -83c38 -5 69 29 75 73c6 49 -12 76 -62 80c-42 4 -72 -24 -77 -70z" />
    <glyph glyph-name="pi" unicode="&#x3c0;" horiz-adv-x="644" 
d="M94 118c48 1 80 0 75 258c-28 -1 -54 -5 -81 -23c-26 8 -43 55 -37 82c26 59 102 72 165 72c80 0 140 -7 225 -7c48 0 96 11 119 49c24 -3 59 -27 68 -61c-3 -61 -50 -97 -110 -108c-16 -245 14 -276 77 -265c11 -6 30 -40 25 -70c-29 -32 -78 -55 -124 -55
c-90 0 -129 98 -102 392l-105 -2c9 -298 -22 -375 -107 -387c-52 -7 -99 17 -113 47c-4 23 4 65 25 78z" />
    <glyph glyph-name="plus" unicode="+" horiz-adv-x="606" 
d="M225 423l-12 150c11 20 133 19 163 2l-15 -153l141 8c30 -14 37 -109 16 -131l-151 1l13 -147c-21 -23 -138 -23 -156 -2l5 148l-125 -7c-25 14 -37 120 -21 135z" />
    <glyph glyph-name="plusminus" unicode="&#xb1;" horiz-adv-x="596" 
d="M228 428l-13 150c7 20 122 18 147 2l-15 -153l151 8c22 -12 32 -101 12 -123l-157 1l13 -116c-13 -18 -128 -21 -140 -2l5 117l-132 -7c-20 13 -31 116 -16 127zM102 147l393 8c18 -31 16 -94 -4 -119l-394 -10c-14 31 -11 96 5 121z" />
    <glyph glyph-name="product" unicode="&#x220f;" horiz-adv-x="685" 
d="M88 688l495 13l32 -922c-27 -20 -143 -27 -168 -6l-2 789l-213 5l-19 -796c-22 -12 -125 -7 -144 11z" />
    <glyph glyph-name="q" unicode="q" horiz-adv-x="625" 
d="M581 500c-14 -197 -22 -385 -23 -568c0 -65 11 -78 52 -69c15 -14 31 -69 -4 -94c-21 -16 -48 -26 -81 -26c-83 0 -125 46 -122 149l5 175c-41 -49 -93 -72 -166 -72c-130 0 -209 96 -209 250c0 158 101 264 233 264c81 0 126 -26 164 -71l21 71c36 6 97 1 130 -9z
M410 164l11 187c-110 92 -223 35 -223 -109c0 -155 123 -180 212 -78z" />
    <glyph glyph-name="question" unicode="?" horiz-adv-x="515" 
d="M97 518c-31 10 -68 79 -53 133c51 45 134 65 210 65c114 0 222 -49 222 -184c0 -148 -165 -208 -192 -311c-34 -15 -83 -13 -111 8c-13 113 128 154 128 252c0 36 -16 69 -73 70c-64 3 -101 -14 -131 -33zM119 70c0 54 49 87 110 87c65 0 110 -38 110 -87
c0 -54 -44 -86 -110 -86c-64 0 -110 32 -110 86z" />
    <glyph glyph-name="questiondown" unicode="&#xbf;" horiz-adv-x="515" 
d="M419 -27c30 -10 67 -79 52 -133c-51 -45 -133 -65 -210 -65c-113 0 -222 49 -222 184c0 148 166 208 192 311c35 15 83 13 112 -8c13 -113 -129 -154 -129 -252c0 -36 16 -69 73 -70c64 -3 101 14 132 33zM396 421c0 -54 -48 -87 -110 -87c-64 0 -110 38 -110 87
c0 54 45 86 110 86c64 0 110 -32 110 -86z" />
    <glyph glyph-name="quotedbl" unicode="&#x22;" horiz-adv-x="425" 
d="M42 696c19 30 143 32 154 12l-31 -231c-13 -15 -107 -18 -115 9zM251 696c19 30 127 32 139 11l-32 -208c-12 -14 -112 -21 -122 6z" />
    <glyph glyph-name="quotedblbase" unicode="&#x201e;" horiz-adv-x="526" 
d="M112 -142c-28 -4 -55 24 -56 44c35 26 59 58 71 101c-66 -8 -87 43 -87 83c0 47 45 84 97 84c55 0 106 -41 106 -115c0 -78 -56 -157 -131 -197zM370 -142c-30 -4 -57 24 -57 44c39 28 59 60 71 101c-67 -8 -88 43 -88 82c0 47 45 85 97 85c57 0 107 -41 107 -115
c0 -78 -55 -155 -130 -197z" />
    <glyph glyph-name="quotedblleft" unicode="&#x201c;" horiz-adv-x="521" 
d="M419 793c29 5 56 -21 57 -44c-39 -28 -59 -57 -71 -100c67 8 87 -46 87 -82c0 -49 -45 -86 -97 -86c-58 0 -106 42 -106 116c0 75 48 150 130 196zM164 793c25 7 57 -22 57 -44c-39 -28 -59 -57 -71 -100c67 7 87 -45 87 -82c0 -44 -40 -86 -96 -86
c-61 0 -108 43 -108 118c0 70 50 150 131 194z" />
    <glyph glyph-name="quotedblright" unicode="&#x201d;" horiz-adv-x="520" 
d="M106 415c-32 -2 -54 22 -56 43c40 29 60 61 71 101c-65 -8 -87 45 -87 81c0 44 39 87 99 87c58 0 105 -46 105 -117c0 -79 -58 -156 -132 -195zM362 415c-31 -3 -56 23 -56 43c39 28 59 58 71 101c-65 -8 -87 42 -87 83c0 48 47 85 95 85c61 0 109 -43 109 -117
c0 -77 -59 -157 -132 -195z" />
    <glyph glyph-name="quoteleft" unicode="&#x2018;" horiz-adv-x="261" 
d="M163 793c24 5 54 -19 57 -44c-39 -28 -59 -57 -71 -100c66 7 87 -44 87 -82c0 -48 -44 -86 -97 -86c-57 0 -107 39 -107 118c0 77 59 153 131 194z" />
    <glyph glyph-name="quoteright" unicode="&#x2019;" horiz-adv-x="261" 
d="M106 416c-31 -5 -56 21 -56 44c36 25 59 58 71 101c-65 -9 -87 43 -87 81c0 49 45 86 98 86c56 0 106 -41 106 -117c0 -77 -58 -156 -132 -195z" />
    <glyph glyph-name="quotesinglbase" unicode="&#x201a;" horiz-adv-x="285" 
d="M112 -142c-30 -4 -56 27 -56 44c36 26 59 58 71 101c-66 -8 -87 43 -87 81c0 50 45 86 97 86c56 0 106 -41 106 -116c0 -78 -57 -156 -131 -196z" />
    <glyph glyph-name="quotesingle" unicode="'" horiz-adv-x="246" 
d="M41 696c19 30 134 33 155 12l-30 -229c-10 -15 -109 -18 -117 8z" />
    <glyph glyph-name="r" unicode="r" horiz-adv-x="473" 
d="M64 496c26 12 117 20 151 11l5 -87c28 44 78 92 141 92s112 -32 112 -98c0 -88 -67 -130 -149 -96c0 45 -9 72 -35 72c-29 0 -53 -23 -71 -61l-9 -329c-27 -17 -136 -18 -155 -1c5 149 22 317 10 497z" />
    <glyph glyph-name="r.alt01" horiz-adv-x="514" 
d="M69 450c0 43 22 70 49 85c41 -47 147 -58 251 -44c40 6 58 -12 62 -40c-112 -111 -155 -189 -155 -259c0 -45 21 -76 65 -76c27 0 45 14 62 35c19 -4 46 -49 33 -89c-30 -46 -83 -72 -156 -72c-93 0 -151 52 -151 134c0 84 41 167 113 246c-105 -34 -173 3 -173 80z" />
    <glyph glyph-name="racute" unicode="&#x155;" horiz-adv-x="473" 
d="M64 496c26 12 117 20 151 11l5 -87c28 44 78 92 141 92s112 -32 112 -98c0 -88 -67 -130 -149 -96c0 45 -9 72 -35 72c-29 0 -53 -23 -71 -61l-9 -329c-27 -17 -136 -18 -155 -1c5 149 22 317 10 497zM233 729c22 17 128 9 152 -22l-116 -141c-24 -8 -76 9 -79 21z" />
    <glyph glyph-name="radical" unicode="&#x221a;" horiz-adv-x="720" 
d="M39 322l209 32l116 -423l190 874c29 19 133 14 149 -19l-267 -1012c-23 -31 -98 -51 -126 -34l-169 460l-72 -24c-37 11 -50 114 -30 146z" />
    <glyph glyph-name="rcaron" unicode="&#x159;" horiz-adv-x="473" 
d="M64 496c26 12 117 20 151 11l5 -87c28 44 78 92 141 92s112 -32 112 -98c0 -88 -67 -130 -149 -96c0 45 -9 72 -35 72c-29 0 -53 -23 -71 -61l-9 -329c-27 -17 -136 -18 -155 -1c5 149 22 317 10 497zM260 646l88 78c23 9 64 -11 67 -27l-100 -140
c-24 -21 -90 -18 -116 0l-102 139c5 21 47 36 81 27z" />
    <glyph glyph-name="rcommaaccent" unicode="&#x157;" horiz-adv-x="473" 
d="M64 496c26 12 117 20 151 11l5 -87c28 44 78 92 141 92s112 -32 112 -98c0 -88 -67 -130 -149 -96c0 45 -9 72 -35 72c-29 0 -53 -23 -71 -61l-9 -329c-27 -17 -136 -18 -155 -1c5 149 22 317 10 497zM140 -266c-23 -2 -51 29 -50 43c18 14 31 27 39 48
c-36 8 -52 35 -52 65c0 37 37 64 80 64s88 -30 88 -87c0 -56 -39 -107 -105 -133z" />
    <glyph glyph-name="registered" unicode="&#xae;" horiz-adv-x="646" 
d="M337 748c187 -5 283 -128 271 -288c-13 -182 -113 -274 -286 -273c-218 1 -294 151 -282 311c11 154 123 256 297 250zM147 481c-2 -131 74 -199 175 -199c106 0 173 58 176 182c3 126 -69 187 -171 189c-88 2 -178 -52 -180 -172zM220 338l1 268c26 8 69 11 93 11
c68 0 129 -28 126 -94c-1 -45 -31 -70 -52 -79c10 -22 43 -76 61 -90c1 -14 -47 -31 -76 -22c-21 12 -39 64 -50 101c-12 0 -18 0 -32 2l4 -98c-19 -7 -56 -7 -75 1zM288 556l1 -73c12 -3 26 -4 35 -4c30 0 48 13 48 41c0 21 -16 40 -52 40c-9 0 -21 -2 -32 -4z" />
    <glyph glyph-name="ring" unicode="&#x2da;" horiz-adv-x="321" 
d="M41 649c0 59 59 99 131 99s131 -40 131 -99c0 -60 -58 -99 -131 -99c-72 0 -131 39 -131 99zM135 649c0 -23 17 -39 37 -39s36 15 36 39c0 23 -16 39 -36 39s-37 -16 -37 -39z" />
    <glyph glyph-name="s" unicode="s" horiz-adv-x="532" 
d="M492 477c9 -37 -15 -106 -44 -118c-29 23 -111 46 -148 46c-41 0 -74 -10 -74 -36c0 -70 270 -66 270 -231c0 -75 -61 -152 -229 -152c-69 0 -185 22 -230 52c-10 29 10 107 45 127c44 -38 131 -71 183 -71c45 0 73 10 73 38c0 64 -276 67 -276 239c0 96 94 141 216 141
c81 0 172 -12 214 -35z" />
    <glyph glyph-name="s.alt01" horiz-adv-x="495" 
d="M281 526c54 0 88 -29 88 -72c0 -36 -23 -65 -53 -85c65 -76 112 -133 112 -217c0 -114 -93 -161 -184 -161c-83 0 -137 23 -177 72c-17 57 21 134 63 129c25 -57 61 -79 89 -79c32 0 56 18 56 61c0 49 -28 91 -54 137c-31 -24 -70 -44 -114 -51c-23 11 -41 66 -25 91
c30 8 71 22 104 46c-3 13 -4 26 -4 40c0 55 47 89 99 89z" />
    <glyph glyph-name="sacute" unicode="&#x15b;" horiz-adv-x="532" 
d="M492 477c9 -37 -15 -106 -44 -118c-29 23 -111 46 -148 46c-41 0 -74 -10 -74 -36c0 -70 270 -66 270 -231c0 -75 -61 -152 -229 -152c-69 0 -185 22 -230 52c-10 29 10 107 45 127c44 -38 131 -71 183 -71c45 0 73 10 73 38c0 64 -276 67 -276 239c0 96 94 141 216 141
c81 0 172 -12 214 -35zM283 729c22 17 128 9 152 -22l-116 -141c-24 -8 -76 9 -79 21z" />
    <glyph glyph-name="scaron" unicode="&#x161;" horiz-adv-x="532" 
d="M492 477c9 -37 -15 -106 -44 -118c-29 23 -111 46 -148 46c-41 0 -74 -10 -74 -36c0 -70 270 -66 270 -231c0 -75 -61 -152 -229 -152c-69 0 -185 22 -230 52c-10 29 10 107 45 127c44 -38 131 -71 183 -71c45 0 73 10 73 38c0 64 -276 67 -276 239c0 96 94 141 216 141
c81 0 172 -12 214 -35zM280 646l88 78c23 9 64 -11 67 -27l-100 -140c-24 -21 -90 -18 -116 0l-102 139c5 21 47 36 81 27z" />
    <glyph glyph-name="scedilla" unicode="&#x15f;" horiz-adv-x="532" 
d="M228 -78l24 64c-70 3 -173 24 -215 52c-10 29 10 107 45 127c44 -38 131 -71 183 -71c45 0 73 10 73 38c0 64 -276 67 -276 239c0 96 94 141 216 141c81 0 172 -12 214 -35c9 -37 -15 -106 -44 -118c-29 23 -111 46 -148 46c-41 0 -74 -10 -74 -36
c0 -70 270 -66 270 -231c0 -62 -42 -125 -150 -145l-14 -33c55 -9 87 -40 87 -91c0 -91 -102 -129 -228 -69c-12 21 9 67 28 67c63 -23 96 -23 96 8c0 26 -36 42 -87 47z" />
    <glyph glyph-name="scircumflex" unicode="&#x15d;" horiz-adv-x="532" 
d="M492 477c9 -37 -15 -106 -44 -118c-29 23 -111 46 -148 46c-41 0 -74 -10 -74 -36c0 -70 270 -66 270 -231c0 -75 -61 -152 -229 -152c-69 0 -185 22 -230 52c-10 29 10 107 45 127c44 -38 131 -71 183 -71c45 0 73 10 73 38c0 64 -276 67 -276 239c0 96 94 141 216 141
c81 0 172 -12 214 -35zM281 623l-88 -74c-23 -8 -64 16 -64 29l117 155c18 15 62 12 80 0l120 -153c-6 -17 -39 -38 -75 -30z" />
    <glyph glyph-name="scommaaccent" unicode="&#x219;" horiz-adv-x="532" 
d="M492 477c9 -37 -15 -106 -44 -118c-29 23 -111 46 -148 46c-41 0 -74 -10 -74 -36c0 -70 270 -66 270 -231c0 -75 -61 -152 -229 -152c-69 0 -185 22 -230 52c-10 29 10 107 45 127c44 -38 131 -71 183 -71c45 0 73 10 73 38c0 64 -276 67 -276 239c0 96 94 141 216 141
c81 0 172 -12 214 -35zM243 -269c-23 -2 -51 29 -50 43c18 14 31 27 39 48c-36 8 -52 35 -52 65c0 37 37 64 80 64s88 -30 88 -87c0 -56 -39 -107 -105 -133z" />
    <glyph glyph-name="section" unicode="&#xa7;" horiz-adv-x="579" 
d="M82 -74c-8 31 17 122 46 131c43 -30 96 -60 154 -60c29 0 62 10 62 43c0 78 -276 79 -276 258c0 53 32 95 90 125c-43 32 -75 73 -75 131c0 101 99 155 212 155c71 0 161 -11 203 -35c10 -30 -12 -110 -46 -120c-29 25 -86 49 -133 49c-43 0 -76 -10 -77 -44
c-2 -71 267 -75 267 -250c0 -61 -34 -107 -96 -135c46 -32 82 -73 82 -130c0 -100 -99 -153 -210 -153c-71 0 -161 11 -203 35zM377 275c-1 41 -75 68 -149 106c-20 -15 -31 -35 -31 -56c0 -43 69 -71 141 -107c22 15 39 35 39 57z" />
    <glyph glyph-name="semicolon" unicode=";" horiz-adv-x="341" 
d="M65 412c0 55 46 95 114 95s115 -40 115 -95c0 -54 -45 -94 -115 -94c-68 0 -114 40 -114 94zM129 -177c-37 0 -60 34 -62 54c42 30 66 61 79 110c-75 -5 -100 53 -100 91c0 59 50 96 115 96c64 0 122 -47 122 -127c0 -87 -55 -180 -154 -224z" />
    <glyph glyph-name="seven" unicode="7" horiz-adv-x="475" 
d="M56 536c-29 29 -32 130 -9 169h409l21 -93c-164 -206 -212 -415 -218 -622c-12 -8 -44 -14 -73 -14c-40 0 -91 15 -97 35c11 212 122 448 248 554c0 0 -260 -27 -281 -29z" />
    <glyph glyph-name="six" unicode="6" horiz-adv-x="616" 
d="M452 709c30 0 65 -3 94 -9c23 -18 12 -99 -3 -116c-21 4 -46 5 -65 5c-138 0 -248 -89 -266 -208c44 32 81 62 162 62c120 0 206 -80 206 -223c0 -134 -103 -240 -265 -240c-184 0 -271 111 -271 306c0 273 196 423 408 423zM311 339c-30 0 -75 -20 -90 -33
c-6 -21 -10 -43 -10 -79c0 -66 27 -128 104 -128c63 0 99 53 99 128c0 70 -39 112 -103 112z" />
    <glyph glyph-name="slash" unicode="/" horiz-adv-x="456" 
d="M-48 -203l356 960c34 11 117 -16 135 -46l-353 -951c-34 -12 -128 11 -138 37z" />
    <glyph glyph-name="space" unicode=" " horiz-adv-x="306" 
 />
    <glyph glyph-name="sterling" unicode="&#xa3;" horiz-adv-x="659" 
d="M432 377l-154 -4c1 -40 3 -81 3 -121c0 -63 -28 -100 -67 -135l11 -10c33 18 61 28 89 28c50 0 99 -14 131 -14c44 0 85 14 104 43c23 4 71 -28 76 -49c-23 -81 -81 -124 -154 -124c-71 0 -158 28 -207 28c-42 0 -91 -7 -158 -30c-7 1 -39 53 -38 63c40 55 60 108 60 171
c0 46 -3 97 -5 145l-84 -2c-13 30 2 102 15 116h62v28c0 131 88 214 235 214c78 0 142 -13 207 -49c23 -25 -2 -128 -61 -137c-29 47 -88 73 -142 73c-60 0 -80 -46 -80 -111v-18h174c9 -12 4 -90 -17 -105z" />
    <glyph glyph-name="summation" unicode="&#x2211;" horiz-adv-x="562" 
d="M509 696c21 -24 10 -121 -20 -150l-234 22l116 -259l-139 -325l259 18c37 -18 35 -125 12 -142l-453 5l185 433l-191 398h465z" />
    <glyph glyph-name="t" unicode="t" horiz-adv-x="431" 
d="M289 633l-28 -132h134c12 -29 13 -92 -2 -127l-129 12l-13 -187c-4 -66 14 -83 45 -83c22 0 48 7 65 28c22 -16 38 -62 26 -97c-25 -34 -72 -56 -140 -56c-80 0 -155 36 -147 160l15 233l-97 -21c-10 31 -8 96 8 129l88 1l2 117c20 26 132 39 173 23z" />
    <glyph glyph-name="tcaron" unicode="&#x165;" horiz-adv-x="552" 
d="M439 700c20 28 116 29 129 11c1 -81 -27 -180 -58 -216c-21 -12 -85 3 -85 25c20 59 28 119 14 180zM289 633l-28 -132h134c12 -29 13 -92 -2 -127l-129 12l-13 -187c-4 -66 14 -83 45 -83c22 0 48 7 65 28c22 -16 38 -62 26 -97c-25 -34 -72 -56 -140 -56
c-80 0 -155 36 -147 160l15 233l-97 -21c-10 31 -8 96 8 129l88 1l2 117c20 26 132 39 173 23z" />
    <glyph glyph-name="tcedilla" horiz-adv-x="431" 
d="M144 -78l31 81c-47 19 -81 63 -75 148l15 233l-97 -21c-10 31 -8 96 8 129l88 1l2 117c20 26 132 39 173 23l-28 -132h134c12 -29 13 -92 -2 -127l-129 12l-13 -187c-4 -66 14 -83 45 -83c22 0 48 7 65 28c22 -16 38 -62 26 -97c-23 -32 -66 -53 -126 -56l-13 -31
c55 -9 87 -40 87 -91c0 -91 -102 -129 -228 -69c-12 21 9 67 28 67c63 -23 96 -23 96 8c0 26 -36 42 -87 47z" />
    <glyph glyph-name="tcommaaccent" unicode="&#x163;" horiz-adv-x="431" 
d="M289 633l-28 -132h134c12 -29 13 -92 -2 -127l-129 12l-13 -187c-4 -66 14 -83 45 -83c22 0 48 7 65 28c22 -16 38 -62 26 -97c-25 -34 -72 -56 -140 -56c-80 0 -155 36 -147 160l15 233l-97 -21c-10 31 -8 96 8 129l88 1l2 117c20 26 132 39 173 23zM222 -267
c-23 -2 -51 29 -50 43c18 14 31 27 39 48c-36 8 -52 35 -52 65c0 37 37 64 80 64s88 -30 88 -87c0 -56 -39 -107 -105 -133z" />
    <glyph glyph-name="thorn" unicode="&#xfe;" 
d="M244 678l-12 -248c37 55 98 80 153 82c127 5 208 -61 208 -227c0 -228 -146 -339 -378 -270l-13 -238c-39 -16 -118 -14 -156 -6c15 241 42 656 27 899c42 21 139 16 171 8zM227 334l-9 -211c134 -61 209 15 209 141c0 90 -25 120 -94 123c-35 1 -78 -22 -106 -53z" />
    <glyph glyph-name="three" unicode="3" horiz-adv-x="542" 
d="M318 585l-237 -18c-27 17 -30 113 -11 137l416 6s12 -89 14 -102l-219 -193c135 -15 223 -86 223 -218c0 -139 -130 -217 -254 -217c-108 0 -176 27 -229 59c-5 33 26 101 51 119c42 -28 87 -58 146 -58c71 0 118 43 118 111c0 85 -74 122 -173 125l-27 79z" />
    <glyph glyph-name="tilde" unicode="&#x2dc;" horiz-adv-x="366" 
d="M53 574c-29 2 -49 56 -44 78c12 33 52 63 98 63c53 0 87 -31 125 -31c24 0 35 8 49 27c17 4 58 -16 62 -44c-3 -62 -44 -99 -94 -99c-57 0 -83 32 -135 32c-25 0 -44 -12 -61 -26z" />
    <glyph glyph-name="trademark" unicode="&#x2122;" horiz-adv-x="1033" 
d="M35 706l375 -3c19 -33 13 -89 -1 -116l-120 5l-3 -328c-39 -13 -98 -14 -137 0l17 332l-128 -7c-20 27 -19 82 -3 117zM623 698l76 -176l10 -36h4l6 32l86 183c33 10 90 12 124 1l68 -431c-24 -29 -90 -29 -128 -18l-31 257v51h-8l-13 -60l-66 -157
c-15 -17 -72 -20 -98 -10l-64 187v-1l-8 44h-6l-4 -48l-30 -254c-32 -13 -92 -12 -126 7l77 427c37 14 95 9 131 2z" />
    <glyph glyph-name="two" unicode="2" horiz-adv-x="542" 
d="M239 594c-51 0 -97 -30 -148 -70c-26 6 -73 90 -65 114c69 54 155 86 260 86c144 0 206 -89 206 -199c0 -174 -143 -287 -284 -393l270 35c29 -26 23 -142 -7 -167l-444 -3l7 117c216 194 292 297 292 387c0 62 -30 93 -87 93z" />
    <glyph glyph-name="u" unicode="u" 
d="M230 505l-18 -255c-6 -87 6 -141 77 -141c35 0 73 22 100 57c-1 111 7 223 19 337c43 17 112 10 147 0c-13 -115 -21 -224 -16 -328c2 -52 7 -79 55 -67c14 -17 9 -69 -5 -90c-17 -15 -45 -28 -83 -28c-50 0 -95 16 -104 92c-40 -50 -92 -91 -176 -91
c-121 0 -176 72 -169 209l12 294c48 16 115 22 161 11z" />
    <glyph glyph-name="uacute" unicode="&#xfa;" 
d="M230 505l-18 -255c-6 -87 6 -141 77 -141c35 0 73 22 100 57c-1 111 7 223 19 337c43 17 112 10 147 0c-13 -115 -21 -224 -16 -328c2 -52 7 -79 55 -67c14 -17 9 -69 -5 -90c-17 -15 -45 -28 -83 -28c-50 0 -95 16 -104 92c-40 -50 -92 -91 -176 -91
c-121 0 -176 72 -169 209l12 294c48 16 115 22 161 11zM308 729c22 17 128 9 152 -22l-116 -141c-24 -8 -76 9 -79 21z" />
    <glyph glyph-name="ubreve" unicode="&#x16d;" 
d="M230 505l-18 -255c-6 -87 6 -141 77 -141c35 0 73 22 100 57c-1 111 7 223 19 337c43 17 112 10 147 0c-13 -115 -21 -224 -16 -328c2 -52 7 -79 55 -67c14 -17 9 -69 -5 -90c-17 -15 -45 -28 -83 -28c-50 0 -95 16 -104 92c-40 -50 -92 -91 -176 -91
c-121 0 -176 72 -169 209l12 294c48 16 115 22 161 11zM230 719c12 -41 43 -65 99 -65c54 0 83 22 98 65c17 12 75 3 84 -13c-13 -113 -92 -156 -184 -156c-91 0 -171 39 -181 156c10 22 72 26 84 13z" />
    <glyph glyph-name="ucircumflex" unicode="&#xfb;" 
d="M230 505l-18 -255c-6 -87 6 -141 77 -141c35 0 73 22 100 57c-1 111 7 223 19 337c43 17 112 10 147 0c-13 -115 -21 -224 -16 -328c2 -52 7 -79 55 -67c14 -17 9 -69 -5 -90c-17 -15 -45 -28 -83 -28c-50 0 -95 16 -104 92c-40 -50 -92 -91 -176 -91
c-121 0 -176 72 -169 209l12 294c48 16 115 22 161 11zM310 623l-88 -74c-23 -8 -64 16 -64 29l117 155c18 15 62 12 80 0l120 -153c-6 -17 -39 -38 -75 -30z" />
    <glyph glyph-name="udieresis" unicode="&#xfc;" 
d="M442 569c-37 13 -73 51 -87 86c14 37 58 69 92 78c36 -14 75 -49 89 -85c-14 -34 -60 -70 -94 -79zM208 570c-36 14 -70 50 -87 86c14 34 57 70 92 79c35 -12 75 -53 88 -86c-14 -34 -58 -69 -93 -79zM230 505l-18 -255c-6 -87 6 -141 77 -141c35 0 73 22 100 57
c-1 111 7 223 19 337c43 17 112 10 147 0c-13 -115 -21 -224 -16 -328c2 -52 7 -79 55 -67c14 -17 9 -69 -5 -90c-17 -15 -45 -28 -83 -28c-50 0 -95 16 -104 92c-40 -50 -92 -91 -176 -91c-121 0 -176 72 -169 209l12 294c48 16 115 22 161 11z" />
    <glyph glyph-name="ugrave" unicode="&#xf9;" 
d="M230 505l-18 -255c-6 -87 6 -141 77 -141c35 0 73 22 100 57c-1 111 7 223 19 337c43 17 112 10 147 0c-13 -115 -21 -224 -16 -328c2 -52 7 -79 55 -67c14 -17 9 -69 -5 -90c-17 -15 -45 -28 -83 -28c-50 0 -95 16 -104 92c-40 -50 -92 -91 -176 -91
c-121 0 -176 72 -169 209l12 294c48 16 115 22 161 11zM341 729l37 -142c-7 -18 -45 -30 -76 -22l-110 144c21 27 131 44 149 20z" />
    <glyph glyph-name="uhungarumlaut" unicode="&#x171;" horiz-adv-x="630" 
d="M230 505l-18 -255c-6 -87 6 -141 77 -141c35 0 73 22 100 57c-1 111 7 223 19 337c43 17 112 10 147 0c-13 -115 -21 -224 -16 -328c2 -52 7 -79 55 -67c14 -17 9 -69 -5 -90c-17 -15 -45 -28 -83 -28c-50 0 -95 16 -104 92c-40 -50 -92 -91 -176 -91
c-121 0 -176 72 -169 209l12 294c48 16 115 22 161 11zM431 729c17 17 119 9 146 -20l-139 -143c-28 -8 -76 4 -81 21zM225 729c23 18 127 8 149 -19l-107 -144c-25 -7 -74 9 -79 21z" />
    <glyph glyph-name="umacron" unicode="&#x16b;" 
d="M230 505l-18 -255c-6 -87 6 -141 77 -141c35 0 73 22 100 57c-1 111 7 223 19 337c43 17 112 10 147 0c-13 -115 -21 -224 -16 -328c2 -52 7 -79 55 -67c14 -17 9 -69 -5 -90c-17 -15 -45 -28 -83 -28c-50 0 -95 16 -104 92c-40 -50 -92 -91 -176 -91
c-121 0 -176 72 -169 209l12 294c48 16 115 22 161 11zM171 689l275 8c21 -10 16 -92 0 -111h-267c-22 12 -27 91 -8 103z" />
    <glyph glyph-name="underscore" unicode="_" horiz-adv-x="757" 
d="M38 123l682 8c13 -32 12 -101 -5 -129l-674 -10c-19 32 -16 97 -3 131z" />
    <glyph glyph-name="uogonek" unicode="&#x173;" 
d="M230 505l-18 -255c-6 -87 6 -141 77 -141c35 0 73 22 100 57c-1 111 7 223 19 337c43 17 112 10 147 0c-13 -115 -21 -224 -16 -328c2 -52 7 -79 55 -67c14 -17 9 -69 -5 -90c-15 -13 -37 -23 -66 -27c-45 -24 -78 -60 -78 -89c0 -16 10 -29 30 -29c21 0 41 10 59 28
c19 3 46 -30 41 -54c-22 -39 -63 -75 -131 -75c-58 0 -118 29 -118 96c0 63 44 108 106 144c-15 14 -26 36 -30 70c-40 -50 -92 -91 -176 -91c-121 0 -176 72 -169 209l12 294c48 16 115 22 161 11z" />
    <glyph glyph-name="uring" unicode="&#x16f;" 
d="M230 505l-18 -255c-6 -87 6 -141 77 -141c35 0 73 22 100 57c-1 111 7 223 19 337c43 17 112 10 147 0c-13 -115 -21 -224 -16 -328c2 -52 7 -79 55 -67c14 -17 9 -69 -5 -90c-17 -15 -45 -28 -83 -28c-50 0 -95 16 -104 92c-40 -50 -92 -91 -176 -91
c-121 0 -176 72 -169 209l12 294c48 16 115 22 161 11zM199 649c0 59 59 99 131 99s131 -40 131 -99c0 -60 -58 -99 -131 -99c-72 0 -131 39 -131 99zM293 649c0 -23 17 -39 37 -39s36 15 36 39c0 23 -16 39 -36 39s-37 -16 -37 -39z" />
    <glyph glyph-name="v" unicode="v" horiz-adv-x="587" 
d="M55 490c15 18 139 27 165 14c-21 -331 10 -412 67 -412c82 0 110 124 110 211c0 67 -15 103 -55 127c-7 51 59 106 94 107c73 -11 118 -76 118 -196c0 -190 -98 -356 -271 -356c-179 0 -247 129 -228 505z" />
    <glyph glyph-name="w" unicode="w" horiz-adv-x="875" 
d="M66 492c14 20 135 24 158 7c-38 -316 -12 -385 59 -385c36 0 57 30 74 91c0 77 3 192 9 279c22 20 135 29 158 13c-15 -268 -5 -393 60 -393c76 0 105 101 105 198c0 68 -31 121 -73 139c0 47 51 98 103 97c59 -7 123 -73 123 -203c0 -186 -106 -347 -263 -347
c-84 0 -162 44 -189 151c-22 -114 -86 -156 -154 -156c-154 0 -213 128 -170 509z" />
    <glyph glyph-name="x" unicode="x" horiz-adv-x="564" 
d="M17 36c23 81 100 158 181 219l-104 143c-11 16 -26 24 -41 27c-10 45 28 96 89 92c40 -2 73 -14 101 -76l59 -110c48 57 65 110 108 177c45 12 119 1 135 -33c-13 -62 -92 -150 -172 -214l103 -143c17 -25 39 -36 60 -34c17 -38 2 -102 -72 -105c-43 -2 -95 13 -134 90
l-66 116c-51 -54 -80 -133 -113 -197c-41 -6 -117 15 -134 48z" />
    <glyph glyph-name="y" unicode="y" horiz-adv-x="599" 
d="M243 504c-49 -264 -34 -406 53 -406c44 0 76 32 82 134c3 68 6 168 8 275c26 12 144 2 166 -19c-20 -147 -28 -293 -28 -442c0 -285 -137 -320 -265 -320c-117 0 -220 45 -220 141c0 62 42 117 118 151c-55 34 -84 99 -91 180c-7 82 -5 159 11 289c25 24 133 30 166 17z
M263 -8c-7 0 -13 0 -19 1c-32 -29 -46 -62 -46 -94c0 -35 21 -67 79 -67c81 0 108 56 108 234c-37 -57 -86 -74 -122 -74z" />
    <glyph glyph-name="y.alt01" horiz-adv-x="599" 
d="M243 504c-49 -264 -34 -406 53 -406c44 0 76 32 82 134c3 68 6 168 8 275c26 12 144 2 166 -19c-20 -147 -28 -293 -28 -442c0 -70 -10 -129 -27 -177c154 -56 304 -125 414 -125c83 0 125 49 121 105c45 30 146 7 140 -73c-7 -78 -94 -138 -215 -138
c-152 0 -324 79 -495 158c-61 -96 -160 -129 -247 -129c-128 0 -223 48 -223 148c0 84 72 138 179 138c50 0 122 -10 203 -39c9 41 13 92 11 152c-37 -57 -86 -74 -122 -74c-127 0 -186 84 -197 206c-7 82 -5 159 11 289c25 24 133 30 166 17zM236 -227c47 0 85 22 110 66
c-128 56 -200 27 -200 -16c0 -34 42 -50 90 -50z" />
    <glyph glyph-name="yacute" unicode="&#xfd;" horiz-adv-x="599" 
d="M243 504c-49 -264 -34 -406 53 -406c44 0 76 32 82 134c3 68 6 168 8 275c26 12 144 2 166 -19c-20 -147 -28 -293 -28 -442c0 -285 -137 -320 -265 -320c-117 0 -220 45 -220 141c0 62 42 117 118 151c-55 34 -84 99 -91 180c-7 82 -5 159 11 289c25 24 133 30 166 17z
M263 -8c-7 0 -13 0 -19 1c-32 -29 -46 -62 -46 -94c0 -35 21 -67 79 -67c81 0 108 56 108 234c-37 -57 -86 -74 -122 -74zM307 729c22 17 128 9 152 -22l-116 -141c-24 -8 -76 9 -79 21z" />
    <glyph glyph-name="ydieresis" unicode="&#xff;" horiz-adv-x="599" 
d="M243 504c-49 -264 -34 -406 53 -406c44 0 76 32 82 134c3 68 6 168 8 275c26 12 144 2 166 -19c-20 -147 -28 -293 -28 -442c0 -285 -137 -320 -265 -320c-117 0 -220 45 -220 141c0 62 42 117 118 151c-55 34 -84 99 -91 180c-7 82 -5 159 11 289c25 24 133 30 166 17z
M263 -8c-7 0 -13 0 -19 1c-32 -29 -46 -62 -46 -94c0 -35 21 -67 79 -67c81 0 108 56 108 234c-37 -57 -86 -74 -122 -74zM437 569c-37 13 -73 51 -87 86c14 37 58 69 92 78c36 -14 75 -49 89 -85c-14 -34 -60 -70 -94 -79zM203 570c-36 14 -70 50 -87 86c14 34 57 70 92 79
c35 -12 75 -53 88 -86c-14 -34 -58 -69 -93 -79z" />
    <glyph glyph-name="yen" unicode="&#xa5;" horiz-adv-x="596" 
d="M57 228l149 -4l3 39l-10 18l-140 -5c-24 18 -20 113 3 131l67 -4l-135 240c14 42 115 86 167 74l117 -286l12 -77h10l20 78l118 285c61 17 160 -26 177 -59l-155 -255l82 7c18 -20 17 -121 -12 -137l-145 6l-15 -24v-30l161 6c13 -11 12 -115 -12 -131l-148 15l2 -116
c-39 -20 -134 -24 -180 0l7 118l-147 -14c-19 17 -14 116 4 125z" />
    <glyph glyph-name="z" unicode="z" horiz-adv-x="491" 
d="M64 366c-37 17 -46 125 -2 137c104 -31 189 -19 261 -17c75 28 144 5 145 -45l-243 -328c74 28 140 30 211 17c35 -24 31 -119 -3 -136c-78 19 -171 33 -284 13l-31 -13c-49 -6 -100 26 -99 57l252 337c-69 -26 -144 -43 -207 -22z" />
    <glyph glyph-name="z.alt01" horiz-adv-x="598" 
d="M106 366c-42 27 -42 133 1 144c110 -43 225 -26 334 -17c49 3 69 -17 69 -49l-232 -313c47 -8 82 -14 123 -14s48 31 40 67c57 17 103 -16 103 -74c0 -61 -40 -117 -136 -117c-73 0 -129 25 -198 30l-43 -30c-54 -4 -106 26 -105 58l254 338c-70 -45 -148 -42 -210 -23z
" />
    <glyph glyph-name="z.alt02" horiz-adv-x="573" 
d="M112 369c-29 37 -28 111 -5 137h364c29 -6 50 -49 44 -90l-187 -216c132 -78 197 -164 197 -269c0 -110 -89 -206 -253 -206c-115 0 -228 48 -228 164c0 83 75 166 230 200c-22 17 -45 32 -67 47c-17 13 -27 59 -19 80l162 182c-79 -41 -170 -66 -238 -29zM370 -69
c0 36 -13 67 -33 94c-98 -22 -145 -73 -145 -123c0 -49 34 -72 82 -72c61 0 96 43 96 101z" />
    <glyph glyph-name="zacute" unicode="&#x17a;" horiz-adv-x="491" 
d="M64 366c-37 17 -46 125 -2 137c104 -31 189 -19 261 -17c75 28 144 5 145 -45l-243 -328c74 28 140 30 211 17c35 -24 31 -119 -3 -136c-78 19 -171 33 -284 13l-31 -13c-49 -6 -100 26 -99 57l252 337c-69 -26 -144 -43 -207 -22zM251 729c22 17 128 9 152 -22
l-116 -141c-24 -8 -76 9 -79 21z" />
    <glyph glyph-name="zcaron" unicode="&#x17e;" horiz-adv-x="491" 
d="M64 366c-37 17 -46 125 -2 137c104 -31 189 -19 261 -17c75 28 144 5 145 -45l-243 -328c74 28 140 30 211 17c35 -24 31 -119 -3 -136c-78 19 -171 33 -284 13l-31 -13c-49 -6 -100 26 -99 57l252 337c-69 -26 -144 -43 -207 -22zM263 646l88 78c23 9 64 -11 67 -27
l-100 -140c-24 -21 -90 -18 -116 0l-102 139c5 21 47 36 81 27z" />
    <glyph glyph-name="zdotaccent" unicode="&#x17c;" horiz-adv-x="491" 
d="M64 366c-37 17 -46 125 -2 137c104 -31 189 -19 261 -17c75 28 144 5 145 -45l-243 -328c74 28 140 30 211 17c35 -24 31 -119 -3 -136c-78 19 -171 33 -284 13l-31 -13c-49 -6 -100 26 -99 57l252 337c-69 -26 -144 -43 -207 -22zM263 570c-40 13 -81 48 -97 87
c17 36 60 72 100 83c40 -15 80 -49 98 -86c-15 -37 -62 -74 -101 -84z" />
    <glyph glyph-name="zero" unicode="0" horiz-adv-x="648" 
d="M337 724c189 1 267 -137 267 -359c0 -219 -95 -385 -286 -385c-201 0 -274 117 -274 371c0 171 86 372 293 373zM213 353c0 -139 9 -248 106 -248s118 119 118 264c0 148 -9 233 -107 233c-90 0 -117 -104 -117 -249z" />
    <glyph glyph-name="Schwa" unicode="&#x18f;" horiz-adv-x="732" 
d="M89 411l442 7c-4 101 -69 164 -164 164c-57 0 -118 -14 -204 -57c-30 32 -41 93 -32 131c84 39 163 56 246 56c213 0 321 -117 321 -348s-145 -375 -350 -375c-267 0 -372 265 -261 422c0 -1 1 -1 1 -1s1 0 1 1zM535 301l-345 -11c-9 -102 60 -166 148 -166
c104 0 184 71 197 177z" />
    <glyph glyph-name="eturn" unicode="&#x1dd;" horiz-adv-x="567" 
d="M373 282c1 70 -47 114 -139 114c-55 0 -112 -19 -156 -53c-26 15 -40 60 -25 102c56 47 145 74 237 68c140 -8 245 -89 245 -257c0 -161 -115 -265 -285 -265c-169 0 -223 77 -223 154c0 153 191 176 346 137zM376 216c-55 8 -191 9 -191 -66c0 -37 23 -62 66 -62
c90 0 120 66 125 128z" />
    <glyph glyph-name="schwa" unicode="&#x259;" horiz-adv-x="567" 
d="M373 282c1 70 -47 114 -139 114c-55 0 -112 -19 -156 -53c-26 15 -40 60 -25 102c56 47 145 74 237 68c140 -8 245 -89 245 -257c0 -161 -115 -265 -285 -265c-169 0 -223 77 -223 154c0 153 191 176 346 137zM376 216c-55 8 -191 9 -191 -66c0 -37 23 -62 66 -62
c90 0 120 66 125 128z" />
    </font>
</defs>
</svg>
