<svg width="30" height="30" viewBox="0 0 30 30" fill="none" xmlns="http://www.w3.org/2000/svg">
<rect width="30" height="30" rx="6" fill="white"/>
<path d="M15.0005 11.7898C13.0651 11.7898 11.4857 13.4569 11.4857 15.4998C11.4857 17.5426 13.0651 19.2098 15.0005 19.2098C16.9358 19.2098 18.5152 17.5426 18.5152 15.4998C18.5152 13.4569 16.9358 11.7898 15.0005 11.7898ZM25.542 15.4998C25.542 13.9635 25.5552 12.441 25.4735 10.9075C25.3918 9.12626 25.0068 7.5454 23.7728 6.24286C22.5362 4.93755 21.0412 4.53398 19.3537 4.4477C17.8982 4.36142 16.4559 4.37534 15.0031 4.37534C13.5476 4.37534 12.1054 4.36142 10.6525 4.4477C8.96503 4.53398 7.46738 4.94033 6.2334 6.24286C4.99678 7.54818 4.61446 9.12626 4.53272 10.9075C4.45098 12.4438 4.46416 13.9662 4.46416 15.4998C4.46416 17.0333 4.45098 18.5585 4.53272 20.0921C4.61446 21.8733 4.99942 23.4542 6.2334 24.7567C7.47002 26.062 8.96503 26.4656 10.6525 26.5519C12.108 26.6381 13.5503 26.6242 15.0031 26.6242C16.4586 26.6242 17.9009 26.6381 19.3537 26.5519C21.0412 26.4656 22.5388 26.0592 23.7728 24.7567C25.0094 23.4514 25.3918 21.8733 25.4735 20.0921C25.5579 18.5585 25.542 17.0361 25.542 15.4998ZM15.0005 21.2081C12.0078 21.2081 9.59257 18.6587 9.59257 15.4998C9.59257 12.3408 12.0078 9.79144 15.0005 9.79144C17.9931 9.79144 20.4084 12.3408 20.4084 15.4998C20.4084 18.6587 17.9931 21.2081 15.0005 21.2081ZM20.6299 10.8908C19.9311 10.8908 19.3669 10.2952 19.3669 9.55765C19.3669 8.82011 19.9311 8.2245 20.6299 8.2245C21.3286 8.2245 21.8928 8.82011 21.8928 9.55765C21.893 9.73279 21.8605 9.90624 21.7971 10.0681C21.7337 10.2299 21.6407 10.377 21.5234 10.5008C21.4061 10.6247 21.2668 10.7229 21.1134 10.7898C20.9601 10.8567 20.7958 10.891 20.6299 10.8908Z" fill="#0A2D73"/>
</svg>
